<svg width="20" height="20" viewBox="0 0 20 20" fill="none" xmlns="http://www.w3.org/2000/svg">
<path d="M10.0003 18.9577C5.05866 18.9577 1.04199 14.941 1.04199 9.99935C1.04199 5.05768 5.05866 1.04102 10.0003 1.04102C14.942 1.04102 18.9587 5.05768 18.9587 9.99935C18.9587 14.941 14.942 18.9577 10.0003 18.9577ZM10.0003 2.29102C5.75033 2.29102 2.29199 5.74935 2.29199 9.99935C2.29199 14.2493 5.75033 17.7077 10.0003 17.7077C14.2503 17.7077 17.7087 14.2493 17.7087 9.99935C17.7087 5.74935 14.2503 2.29102 10.0003 2.29102Z" fill="#292D32"/>
<path d="M13.3337 10.625H6.66699C6.32533 10.625 6.04199 10.3417 6.04199 10C6.04199 9.65833 6.32533 9.375 6.66699 9.375H13.3337C13.6753 9.375 13.9587 9.65833 13.9587 10C13.9587 10.3417 13.6753 10.625 13.3337 10.625Z" fill="#292D32"/>
<path d="M10 13.9577C9.65833 13.9577 9.375 13.6743 9.375 13.3327V6.66602C9.375 6.32435 9.65833 6.04102 10 6.04102C10.3417 6.04102 10.625 6.32435 10.625 6.66602V13.3327C10.625 13.6743 10.3417 13.9577 10 13.9577Z" fill="#292D32"/>
</svg>
