<svg width="80" height="68" viewBox="0 0 80 68" fill="none" xmlns="http://www.w3.org/2000/svg">
<g clip-path="url(#clip0_2393_10804)">
<path fill-rule="evenodd" clip-rule="evenodd" d="M40.0408 1.60064C22.5436 1.60064 8.3576 15.9342 8.3576 33.6134C8.3576 51.2927 22.5436 65.6263 40.0408 65.6263C57.538 65.6263 71.7239 51.2927 71.7239 33.6134C71.7239 15.9342 57.538 1.60064 40.0408 1.60064ZM6.77344 33.6134C6.77344 15.0502 21.6687 0 40.0408 0C58.4129 0 73.3081 15.0502 73.3081 33.6134C73.3081 52.1767 58.4129 67.2269 40.0408 67.2269C21.6687 67.2269 6.77344 52.1767 6.77344 33.6134Z" fill="#4F4F4F"/>
<path fill-rule="evenodd" clip-rule="evenodd" d="M40.0422 2.60133C23.0909 2.60133 9.34916 16.4861 9.34916 33.6137C9.34916 50.7414 23.0909 64.6261 40.0422 64.6261C56.9935 64.6261 70.7353 50.7414 70.7353 33.6137C70.7353 16.4861 56.9935 2.60133 40.0422 2.60133ZM8.95312 33.6137C8.95312 16.2651 22.8722 2.20117 40.0422 2.20117C57.2123 2.20117 71.1313 16.2651 71.1313 33.6137C71.1313 50.9624 57.2123 65.0263 40.0422 65.0263C22.8722 65.0263 8.95312 50.9624 8.95312 33.6137Z" fill="#4F4F4F"/>
<path fill-rule="evenodd" clip-rule="evenodd" d="M40.04 13.2051C28.8849 13.2051 19.842 22.3422 19.842 33.6133C19.842 44.8844 28.8849 54.0215 40.04 54.0215C51.195 54.0215 60.238 44.8844 60.238 33.6133C60.238 22.3422 51.195 13.2051 40.04 13.2051ZM18.2578 33.6133C18.2578 21.4582 28.01 11.6045 40.04 11.6045C52.07 11.6045 61.8222 21.4582 61.8222 33.6133C61.8222 45.7684 52.07 55.6221 40.04 55.6221C28.01 55.6221 18.2578 45.7684 18.2578 33.6133Z" fill="#4F4F4F"/>
<path fill-rule="evenodd" clip-rule="evenodd" d="M40.043 11.2048C27.7943 11.2048 17.8648 21.2377 17.8648 33.6138C17.8648 45.9899 27.7943 56.0228 40.043 56.0228C52.2917 56.0228 62.2212 45.9899 62.2212 33.6138C62.2212 21.2377 52.2917 11.2048 40.043 11.2048ZM17.4688 33.6138C17.4688 21.0167 27.5756 10.8047 40.043 10.8047C52.5104 10.8047 62.6173 21.0167 62.6173 33.6138C62.6173 46.2109 52.5104 56.4229 40.043 56.4229C27.5756 56.4229 17.4688 46.2109 17.4688 33.6138Z" fill="#4F4F4F"/>
<path d="M77.6238 23.667H2.37624C1.06388 23.667 0 24.7419 0 26.068V42.2744C0 43.6004 1.06388 44.6754 2.37624 44.6754H77.6238C78.9361 44.6754 80 43.6004 80 42.2744V26.068C80 24.7419 78.9361 23.667 77.6238 23.667Z" fill="#F4C031"/>
<path d="M16.1055 47.9037L17.9391 46.8413L17.5233 46.107L17.9154 45.8789L18.9966 47.7857L18.6045 48.0138L18.1886 47.2795L16.355 48.3419L16.1055 47.9017V47.9037Z" fill="#4F4F4F"/>
<path d="M17.0528 49.5143L19.1458 48.0137L19.7934 48.938C19.8092 48.96 19.827 48.9881 19.8508 49.0261C19.8745 49.0641 19.8943 49.0981 19.9082 49.1301C19.9815 49.2742 20.0151 49.4122 20.0112 49.5403C20.0072 49.6683 19.9716 49.7884 19.9023 49.8944C19.833 50.0005 19.7419 50.0985 19.625 50.1825C19.4488 50.3086 19.2666 50.3706 19.0785 50.3686C18.8904 50.3686 18.7122 50.2786 18.5478 50.1045L18.4072 49.9304L18.0488 49.4202L17.3399 49.9284L17.0508 49.5143H17.0528ZM17.9181 50.7488L18.4666 49.7063L18.8429 50.0745L18.2448 51.215L17.9161 50.7468H17.9181V50.7488ZM18.4211 49.1581L18.7656 49.6503C18.7815 49.6723 18.7973 49.6943 18.8171 49.7184C18.8369 49.7424 18.8567 49.7624 18.8785 49.7804C18.932 49.8264 18.9874 49.8504 19.0429 49.8564C19.0983 49.8624 19.1518 49.8564 19.2013 49.8364C19.2508 49.8184 19.2963 49.7944 19.3339 49.7684C19.3716 49.7424 19.4072 49.7063 19.4409 49.6643C19.4745 49.6223 19.4983 49.5743 19.5122 49.5183C19.526 49.4643 19.5201 49.4022 19.4943 49.3362C19.4844 49.3102 19.4726 49.2842 19.4567 49.2582C19.4409 49.2322 19.425 49.2081 19.4112 49.1861L19.0666 48.6939L18.4211 49.1561V49.1581Z" fill="#4F4F4F"/>
<path d="M18.5195 51.5728L20.9869 50.4863L21.4779 51.0566L20.076 53.3775L19.7374 52.9853L20.969 50.9325L21.0324 51.0065L18.8581 51.9669L18.5195 51.5728ZM19.2423 51.5888L19.5829 51.2886L20.5037 52.3551L20.1631 52.6552L19.2423 51.5888Z" fill="#4F4F4F"/>
<path d="M20.6914 53.976L21.8855 51.5391L22.2577 51.9012L21.2736 53.902L23.2221 52.8376L23.5944 53.1997L21.23 54.5003L20.6914 53.976Z" fill="#4F4F4F"/>
<path d="M22.1914 55.3822L23.7954 53.3594L25.1478 54.4538L24.8647 54.81L23.9043 54.0316L23.5617 54.4638L24.3498 55.1021L24.0667 55.4582L23.2785 54.82L22.8667 55.3402L23.8271 56.1185L23.5439 56.4746L22.1914 55.3802V55.3822Z" fill="#4F4F4F"/>
<path d="M24.0898 56.8735L25.5255 54.7246L25.9413 55.0087L24.7592 56.7794L25.7057 57.4257L25.4522 57.8038L24.0898 56.8735Z" fill="#4F4F4F"/>
<path d="M26.8672 57.5431L27.0474 57.2109L28.0177 57.7472L27.8375 58.0793L26.8672 57.5431Z" fill="#4F4F4F"/>
<path d="M29.7972 60.093C29.5517 59.991 29.3596 59.8529 29.225 59.6748C29.0903 59.4968 29.0111 59.2947 28.9893 59.0666C28.9695 58.8385 29.0091 58.6004 29.1101 58.3523C29.2111 58.1042 29.3458 57.9041 29.518 57.7561C29.6903 57.608 29.8863 57.518 30.1061 57.486C30.3259 57.4539 30.5596 57.49 30.8052 57.59C31.0883 57.706 31.2962 57.8721 31.4329 58.0882C31.5695 58.3043 31.6309 58.5444 31.6151 58.8105L31.0962 58.7445C31.1101 58.5804 31.0784 58.4363 31.0032 58.3103C30.9279 58.1862 30.8052 58.0882 30.6329 58.0182C30.4764 57.9541 30.3339 57.9341 30.2012 57.9601C30.0685 57.9862 29.9537 58.0482 29.8507 58.1502C29.7477 58.2523 29.6646 58.3863 29.5972 58.5524C29.5299 58.7185 29.4982 58.8745 29.5002 59.0206C29.5022 59.1666 29.5418 59.2927 29.619 59.4047C29.6962 59.5148 29.8131 59.6028 29.9675 59.6668C30.1378 59.7369 30.2943 59.7529 30.4349 59.7169C30.5755 59.6808 30.6982 59.5988 30.8012 59.4728L31.217 59.7929C31.0448 59.993 30.8349 60.123 30.5873 60.181C30.3398 60.2391 30.0764 60.2091 29.7933 60.093H29.7972Z" fill="#4F4F4F"/>
<path d="M32.6231 61.0792C32.3676 61.0051 32.1637 60.8871 32.0092 60.725C31.8548 60.563 31.7557 60.3689 31.7122 60.1448C31.6686 59.9207 31.6825 59.6786 31.7557 59.4205C31.829 59.1624 31.9439 58.9503 32.0983 58.7842C32.2528 58.6182 32.4389 58.5081 32.6548 58.4541C32.8706 58.4001 33.1062 58.4101 33.3617 58.4841C33.6171 58.5581 33.8211 58.6762 33.9755 58.8383C34.13 59.0003 34.229 59.1944 34.2726 59.4185C34.3161 59.6426 34.3023 59.8847 34.229 60.1428C34.1557 60.4009 34.0409 60.613 33.8864 60.779C33.732 60.9451 33.5458 61.0552 33.33 61.1092C33.1142 61.1632 32.8785 61.1532 32.6231 61.0792ZM32.7498 60.637C32.9102 60.687 33.0548 60.691 33.1835 60.653C33.3102 60.613 33.4191 60.5369 33.5102 60.4229C33.6013 60.3088 33.6706 60.1668 33.7201 59.9927C33.7696 59.8187 33.7854 59.6626 33.7676 59.5185C33.7498 59.3765 33.6983 59.2544 33.6092 59.1524C33.5201 59.0504 33.3973 58.9743 33.2369 58.9263C33.0765 58.8763 32.932 58.8723 32.8033 58.9103C32.6765 58.9503 32.5676 59.0263 32.4765 59.1384C32.3854 59.2524 32.3161 59.3945 32.2666 59.5686C32.2171 59.7406 32.2013 59.8987 32.2191 60.0427C32.2369 60.1848 32.2884 60.3069 32.3775 60.4089C32.4647 60.5109 32.5894 60.585 32.7498 60.635V60.637Z" fill="#4F4F4F"/>
<path d="M34.4609 61.513L34.9104 58.96L35.4114 59.05L36.2491 60.9568L36.5481 59.2541L37.0491 59.3441L36.5996 61.8971L36.0986 61.8071L35.2609 59.9003L34.9619 61.603L34.4609 61.513Z" fill="#4F4F4F"/>
<path d="M37.3359 61.9913L37.528 59.4062L38.035 59.4443L39.0587 61.255L39.1854 59.5303L39.6924 59.5683L39.5003 62.1534L38.9934 62.1153L37.9696 60.3046L37.8429 62.0293L37.3359 61.9913Z" fill="#4F4F4F"/>
<path d="M40.2291 62.164L40.1875 59.571L41.9202 59.543L41.9281 60.0012L40.6964 60.0212L40.7043 60.5754L41.7142 60.5594L41.7222 61.0176L40.7123 61.0336L40.7222 61.6998L41.9538 61.6798L41.9618 62.138L40.2291 62.166V62.164Z" fill="#4F4F4F"/>
<path d="M43.6568 62.0455C43.3934 62.0736 43.1598 62.0415 42.9558 61.9495C42.7538 61.8575 42.5895 61.7154 42.4647 61.5253C42.34 61.3353 42.2647 61.1052 42.237 60.8371C42.2093 60.5689 42.237 60.3288 42.3182 60.1168C42.4013 59.9047 42.532 59.7306 42.7103 59.5986C42.8905 59.4665 43.1122 59.3865 43.3756 59.3585C43.6786 59.3265 43.94 59.3725 44.1617 59.4985C44.3835 59.6226 44.5479 59.8066 44.6588 60.0487L44.1716 60.2388C44.1063 60.0888 44.0112 59.9747 43.8865 59.9007C43.7617 59.8267 43.6073 59.7986 43.4231 59.8186C43.2548 59.8367 43.1202 59.8867 43.0152 59.9727C42.9103 60.0567 42.837 60.1688 42.7954 60.3068C42.7538 60.4449 42.7419 60.605 42.7598 60.783C42.7776 60.9631 42.8231 61.1152 42.8924 61.2412C42.9617 61.3673 43.0568 61.4613 43.1756 61.5233C43.2944 61.5854 43.439 61.6054 43.6053 61.5874C43.7895 61.5673 43.934 61.5093 44.041 61.4093C44.1479 61.3092 44.2172 61.1792 44.2509 61.0191L44.7677 61.1012C44.7103 61.3613 44.5855 61.5753 44.3934 61.7434C44.2033 61.9115 43.9558 62.0115 43.6528 62.0455H43.6568Z" fill="#4F4F4F"/>
<path d="M46.0689 61.6294L45.6511 59.5366L44.8313 59.7046L44.7422 59.2564L46.8749 58.8223L46.964 59.2704L46.1442 59.4385L46.562 61.5314L46.0709 61.6314H46.0689V61.6294Z" fill="#4F4F4F"/>
<path d="M48.2398 60.1366L48.1289 59.7744L49.1863 59.4463L49.2972 59.8084L48.2398 60.1366Z" fill="#4F4F4F"/>
<path d="M51.0218 60.202L50 57.8231L50.7881 57.4769C50.8079 57.4689 50.8475 57.4509 50.9069 57.4269C50.9663 57.4009 51.0257 57.3809 51.0851 57.3629C51.2911 57.3009 51.4852 57.2928 51.6693 57.3449C51.8535 57.3949 52.0158 57.4889 52.1604 57.627C52.3049 57.765 52.4198 57.9351 52.5069 58.1372C52.5941 58.3393 52.6376 58.5393 52.6396 58.7414C52.6396 58.9415 52.598 59.1276 52.5089 59.2976C52.4198 59.4677 52.2812 59.6078 52.095 59.7158C52.0436 59.7458 51.9861 59.7758 51.9267 59.8038C51.8673 59.8319 51.8277 59.8499 51.8099 59.8579L51.0218 60.204V60.202ZM51.3069 59.5718L51.6277 59.4317C51.6574 59.4177 51.699 59.3997 51.7505 59.3757C51.802 59.3517 51.8455 59.3257 51.8851 59.2996C51.9822 59.2316 52.0475 59.1456 52.0832 59.0415C52.1168 58.9355 52.1287 58.8235 52.1149 58.7014C52.101 58.5794 52.0693 58.4633 52.0218 58.3493C51.9703 58.2312 51.9049 58.1252 51.8257 58.0331C51.7465 57.9411 51.6574 57.8731 51.5584 57.8291C51.4594 57.785 51.3545 57.775 51.2436 57.8011C51.198 57.8111 51.1485 57.8271 51.097 57.8471C51.0455 57.8691 51.004 57.8871 50.9723 57.8991L50.6515 58.0411L51.3109 59.5738H51.3069V59.5718Z" fill="#4F4F4F"/>
<path d="M53.6003 59.0095L52.4102 56.7126L52.8537 56.4785L54.0438 58.7754L53.6003 59.0095Z" fill="#4F4F4F"/>
<path d="M55.5755 57.9461C55.4072 58.0501 55.2389 58.1161 55.0705 58.1421C54.9022 58.1682 54.7399 58.1541 54.5874 58.1001C54.4349 58.0461 54.3022 57.9521 54.1894 57.816L54.5953 57.4739C54.7042 57.5819 54.829 57.6379 54.9676 57.6459C55.1082 57.6539 55.2408 57.6179 55.3656 57.5399C55.4349 57.4959 55.4983 57.4439 55.5498 57.3798C55.6012 57.3158 55.6369 57.2518 55.6547 57.1838C55.6725 57.1157 55.6606 57.0497 55.623 56.9897C55.6092 56.9677 55.5933 56.9477 55.5735 56.9317C55.5537 56.9157 55.53 56.9016 55.5042 56.8936C55.4785 56.8856 55.4448 56.8816 55.4052 56.8836C55.3656 56.8836 55.322 56.8936 55.2686 56.9077L54.5795 57.1037C54.528 57.1197 54.4666 57.1337 54.3953 57.1457C54.324 57.1597 54.2468 57.1617 54.1676 57.1537C54.0884 57.1457 54.0092 57.1177 53.93 57.0717C53.8527 57.0257 53.7814 56.9497 53.7161 56.8436C53.625 56.6956 53.5894 56.5495 53.6052 56.4034C53.621 56.2574 53.6785 56.1213 53.7775 55.9933C53.8765 55.8652 54.0032 55.7552 54.1577 55.6591C54.3141 55.5651 54.4705 55.5031 54.623 55.4771C54.7755 55.4511 54.922 55.4611 55.0646 55.5051C55.2072 55.5491 55.3359 55.6291 55.4567 55.7432L55.0428 56.1073C54.9834 56.0453 54.9141 56.0053 54.8408 55.9833C54.7676 55.9613 54.6903 55.9593 54.6111 55.9713C54.5339 55.9853 54.4606 56.0113 54.3913 56.0513C54.324 56.0913 54.2666 56.1393 54.2191 56.1954C54.1715 56.2514 54.1418 56.3114 54.128 56.3714C54.1141 56.4315 54.122 56.4895 54.1537 56.5415C54.1834 56.5895 54.223 56.6195 54.2705 56.6315C54.3201 56.6435 54.3715 56.6435 54.429 56.6315C54.4864 56.6215 54.5418 56.6075 54.5973 56.5895L55.0527 56.4495C55.1201 56.4275 55.1973 56.4074 55.2844 56.3894C55.3715 56.3694 55.4606 56.3614 55.5537 56.3654C55.6468 56.3694 55.7359 56.3934 55.823 56.4395C55.9102 56.4855 55.9874 56.5635 56.0547 56.6756C56.128 56.7936 56.1656 56.9136 56.1676 57.0337C56.1715 57.1537 56.1478 57.2698 56.0963 57.3798C56.0468 57.4919 55.9755 57.5939 55.8844 57.69C55.7933 57.786 55.6903 57.87 55.5755 57.9421V57.9461Z" fill="#4F4F4F"/>
<path d="M57.9116 56.3188C57.7017 56.4829 57.4859 56.5769 57.2641 56.607C57.0443 56.635 56.8304 56.601 56.6265 56.5049C56.4225 56.4089 56.2383 56.2528 56.076 56.0387C55.9136 55.8246 55.8126 55.6066 55.773 55.3805C55.7334 55.1544 55.7552 54.9383 55.8403 54.7322C55.9255 54.5241 56.072 54.34 56.2839 54.176C56.5255 53.9879 56.773 53.8899 57.0265 53.8799C57.2799 53.8699 57.5156 53.9379 57.7354 54.0879L57.4166 54.5061C57.2839 54.4121 57.1433 54.3661 56.9987 54.3681C56.8542 54.3701 56.7077 54.4281 56.5611 54.5421C56.4265 54.6462 56.3374 54.7602 56.2918 54.8883C56.2463 55.0163 56.2423 55.1484 56.276 55.2904C56.3116 55.4305 56.3829 55.5725 56.4918 55.7166C56.6007 55.8587 56.7176 55.9667 56.8423 56.0367C56.9671 56.1068 57.0958 56.1368 57.2304 56.1268C57.3631 56.1168 57.4978 56.0587 57.6304 55.9547C57.777 55.8407 57.87 55.7146 57.9096 55.5725C57.9492 55.4305 57.9413 55.2844 57.8879 55.1304L58.371 54.9283C58.4562 55.1804 58.4601 55.4285 58.3849 55.6726C58.3096 55.9167 58.1512 56.1328 57.9077 56.3208H57.9116V56.3188Z" fill="#4F4F4F"/>
<path d="M60.1863 54.3523C59.9943 54.5364 59.7903 54.6564 59.5745 54.7084C59.3586 54.7605 59.1428 54.7504 58.9289 54.6764C58.7151 54.6024 58.517 54.4683 58.3329 54.2723C58.1487 54.0782 58.026 53.8701 57.9626 53.652C57.8992 53.4339 57.8972 53.2158 57.9606 52.9998C58.022 52.7837 58.1487 52.5836 58.3408 52.3975C58.5329 52.2114 58.7368 52.0934 58.9527 52.0414C59.1685 51.9893 59.3844 51.9993 59.5982 52.0734C59.8121 52.1474 60.0101 52.2815 60.1943 52.4755C60.3784 52.6696 60.5012 52.8777 60.5646 53.0958C60.6279 53.3159 60.6299 53.532 60.5665 53.748C60.5052 53.9641 60.3764 54.1642 60.1863 54.3503V54.3523ZM59.8715 54.0202C59.9943 53.9041 60.0715 53.7801 60.1032 53.65C60.1349 53.52 60.123 53.3859 60.0715 53.2499C60.02 53.1138 59.9329 52.9797 59.8101 52.8497C59.6873 52.7196 59.5606 52.6256 59.4299 52.5696C59.2992 52.5136 59.1685 52.4975 59.0378 52.5216C58.9071 52.5456 58.7804 52.6176 58.6557 52.7336C58.5309 52.8497 58.4557 52.9737 58.424 53.1038C58.3923 53.2338 58.4042 53.3679 58.4557 53.504C58.5071 53.64 58.5943 53.7741 58.717 53.9041C58.8398 54.0342 58.9665 54.1282 59.0972 54.1842C59.2279 54.2402 59.3586 54.2562 59.4893 54.2322C59.62 54.2082 59.7467 54.1362 59.8715 54.0202Z" fill="#4F4F4F"/>
<path d="M61.7721 52.6098L59.2969 51.5414L59.6335 51.1452L61.6672 52.0256L60.5068 50.1188L60.8434 49.7227L62.2612 52.0336L61.7741 52.6078H61.7721V52.6098Z" fill="#4F4F4F"/>
<path d="M63.0774 51.0151L60.9844 49.5145L61.9883 48.0859L62.3567 48.35L61.6438 49.3644L62.0913 49.6846L62.6755 48.8522L63.0438 49.1163L62.4596 49.9487L62.9982 50.3348L63.7111 49.3204L64.0794 49.5845L63.0755 51.0131H63.0774V51.0151Z" fill="#4F4F4F"/>
<path d="M64.4386 49.0282L62.2148 47.7336L62.7752 46.7532C62.7871 46.7312 62.8069 46.7012 62.8287 46.6632C62.8525 46.6252 62.8743 46.5932 62.898 46.5672C62.997 46.4411 63.1059 46.3511 63.2247 46.3031C63.3416 46.253 63.4643 46.237 63.5891 46.253C63.7139 46.271 63.8386 46.3151 63.9634 46.3871C64.1495 46.4951 64.2822 46.6372 64.3594 46.8113C64.4366 46.9853 64.4327 47.1834 64.3455 47.4095L64.2465 47.6096L63.9376 48.1518L64.6921 48.59L64.4426 49.0282H64.4386ZM63.5436 47.9217L63.8426 47.3995C63.8544 47.3775 63.8683 47.3515 63.8822 47.3235C63.896 47.2955 63.9059 47.2674 63.9119 47.2414C63.9297 47.1734 63.9297 47.1134 63.9119 47.0594C63.8941 47.0053 63.8663 46.9593 63.8287 46.9213C63.7911 46.8833 63.7515 46.8513 63.7119 46.8293C63.6723 46.8053 63.6267 46.7873 63.5733 46.7733C63.5218 46.7592 63.4683 46.7572 63.4129 46.7692C63.3574 46.7813 63.3059 46.8113 63.2564 46.8613C63.2366 46.8793 63.2188 46.9033 63.201 46.9273C63.1832 46.9533 63.1693 46.9773 63.1554 46.9993L62.8584 47.5215L63.5436 47.9197V47.9217ZM65.1871 47.7196L64.0208 47.6516L64.195 47.1514L65.4703 47.2234L65.1871 47.7196Z" fill="#4F4F4F"/>
<path d="M3.90042 37.4968V30.582H5.04497V36.4124H8.06675V37.4968H3.89844H3.90042Z" fill="#151820"/>
<path d="M11.5995 37.6404C10.9143 37.6404 10.3282 37.4883 9.84105 37.1862C9.35392 36.8841 8.97768 36.4619 8.7163 35.9217C8.45491 35.3815 8.32422 34.7532 8.32422 34.0389C8.32422 33.3247 8.45491 32.6984 8.7163 32.1562C8.97768 31.616 9.35194 31.1938 9.84105 30.8917C10.3282 30.5896 10.9143 30.4375 11.5995 30.4375C12.2846 30.4375 12.8708 30.5896 13.3599 30.8917C13.849 31.1938 14.2252 31.616 14.4866 32.1562C14.748 32.6964 14.8787 33.3247 14.8787 34.0389C14.8787 34.7532 14.748 35.3795 14.4866 35.9217C14.2252 36.4619 13.849 36.8841 13.3599 37.1862C12.8708 37.4883 12.2826 37.6404 11.5995 37.6404ZM11.5995 36.5499C12.0589 36.5539 12.4411 36.4499 12.748 36.2418C13.0529 36.0337 13.2826 35.7416 13.4371 35.3635C13.5915 34.9853 13.6668 34.5431 13.6668 34.0389C13.6668 33.5347 13.5896 33.0946 13.4371 32.7204C13.2826 32.3483 13.0529 32.0561 12.748 31.8481C12.443 31.64 12.0589 31.5319 11.5995 31.5259C11.1401 31.5219 10.7579 31.626 10.4549 31.8341C10.15 32.0421 9.92224 32.3343 9.76778 32.7124C9.61333 33.0906 9.53808 33.5327 9.53808 34.0369C9.53808 34.5411 9.61333 34.9813 9.7658 35.3555C9.91828 35.7276 10.146 36.0197 10.4529 36.2278C10.7599 36.4359 11.142 36.5439 11.6014 36.5499H11.5995Z" fill="#151820"/>
<path d="M18.7401 37.6404C18.0549 37.6404 17.4688 37.4883 16.9817 37.1862C16.4945 36.8841 16.1183 36.4619 15.8569 35.9217C15.5955 35.3815 15.4648 34.7532 15.4648 34.0389C15.4648 33.3247 15.5955 32.6984 15.8569 32.1562C16.1183 31.616 16.4926 31.1938 16.9817 30.8917C17.4688 30.5896 18.0549 30.4375 18.7401 30.4375C19.5282 30.4375 20.1856 30.6376 20.7124 31.0357C21.2391 31.4339 21.6074 31.9721 21.8193 32.6464L20.6648 32.9685C20.5322 32.5163 20.3044 32.1642 19.9856 31.9101C19.6668 31.656 19.251 31.5279 18.7401 31.5279C18.2807 31.5279 17.8985 31.632 17.5916 31.8401C17.2846 32.0481 17.0569 32.3403 16.9025 32.7164C16.748 33.0926 16.6708 33.5327 16.6668 34.0389C16.6668 34.5451 16.7441 34.9853 16.8965 35.3615C17.051 35.7376 17.2807 36.0297 17.5876 36.2378C17.8945 36.4459 18.2787 36.5499 18.7381 36.5499C19.249 36.5499 19.6629 36.4219 19.9837 36.1658C20.3044 35.9097 20.5302 35.5575 20.6629 35.1094L21.8173 35.4315C21.6054 36.1078 21.2351 36.644 20.7104 37.0421C20.1837 37.4403 19.5262 37.6404 18.7381 37.6404H18.7401Z" fill="#151820"/>
<path d="M22.2227 37.4968L24.3811 30.582H26.0583L28.2167 37.4968H27.0385L25.0801 31.2923H25.3375L23.4029 37.4968H22.2227ZM23.4246 35.9982V34.9178H27.0167V35.9982H23.4246Z" fill="#151820"/>
<path d="M29.1817 37.4968V30.582H30.3262V36.4124H33.348V37.4968H29.1797H29.1817Z" fill="#151820"/>
<path d="M38.1559 37.6403C37.6549 37.6403 37.2054 37.5522 36.8034 37.3761C36.4034 37.2001 36.0727 36.948 35.8153 36.6198C35.5579 36.2917 35.3935 35.9016 35.3242 35.4514L36.5123 35.2693C36.6133 35.6795 36.8212 35.9956 37.1381 36.2197C37.4549 36.4438 37.8173 36.5558 38.2292 36.5558C38.4727 36.5558 38.7024 36.5178 38.9183 36.4398C39.1341 36.3637 39.3084 36.2517 39.443 36.1036C39.5777 35.9556 39.645 35.7755 39.645 35.5614C39.645 35.4654 39.6292 35.3773 39.5975 35.2953C39.5658 35.2133 39.5183 35.1413 39.4569 35.0772C39.3955 35.0132 39.3163 34.9552 39.2193 34.9012C39.1222 34.8491 39.0113 34.8031 38.8846 34.7651L37.1163 34.2369C36.9638 34.1929 36.7995 34.1328 36.6252 34.0568C36.451 33.9808 36.2826 33.8767 36.1262 33.7447C35.9698 33.6126 35.8411 33.4426 35.742 33.2365C35.643 33.0304 35.5915 32.7743 35.5915 32.4702C35.5915 32.026 35.7024 31.6519 35.9262 31.3497C36.15 31.0476 36.451 30.8215 36.8292 30.6695C37.2074 30.5194 37.6292 30.4454 38.0906 30.4494C38.5599 30.4534 38.9777 30.5334 39.346 30.6915C39.7143 30.8495 40.0212 31.0796 40.2688 31.3797C40.5163 31.6799 40.6906 32.044 40.7915 32.4702L39.5599 32.6863C39.5084 32.4422 39.4113 32.2361 39.2668 32.064C39.1222 31.8919 38.946 31.7619 38.7401 31.6719C38.5341 31.5818 38.3123 31.5338 38.0767 31.5278C37.849 31.5238 37.6371 31.5598 37.443 31.6318C37.249 31.7039 37.0906 31.8079 36.9717 31.942C36.8529 32.076 36.7935 32.2341 36.7935 32.4122C36.7935 32.5902 36.845 32.7203 36.946 32.8283C37.047 32.9364 37.1737 33.0204 37.3242 33.0824C37.4747 33.1445 37.6272 33.1965 37.7836 33.2385L39.0094 33.5846C39.1777 33.6286 39.3658 33.6907 39.5757 33.7667C39.7856 33.8427 39.9856 33.9508 40.1797 34.0888C40.3737 34.2269 40.5321 34.407 40.6569 34.631C40.7816 34.8551 40.845 35.1392 40.845 35.4854C40.845 35.8315 40.7717 36.1597 40.6232 36.4298C40.4747 36.6999 40.2767 36.926 40.0272 37.104C39.7777 37.2821 39.4906 37.4182 39.1698 37.5082C38.849 37.5982 38.5123 37.6423 38.1599 37.6423H38.1559V37.6403Z" fill="#151820"/>
<path d="M41.8906 37.4968V30.582H46.3104V31.6665H43.0352V33.3711H45.7401V34.4556H43.0352V36.4104H46.3104V37.4948H41.8906V37.4968Z" fill="#151820"/>
<path d="M50.1268 37.6404C49.4417 37.6404 48.8555 37.4883 48.3684 37.1862C47.8813 36.8841 47.505 36.4619 47.2436 35.9217C46.9823 35.3815 46.8516 34.7532 46.8516 34.0389C46.8516 33.3247 46.9823 32.6984 47.2436 32.1562C47.505 31.616 47.8793 31.1938 48.3684 30.8917C48.8555 30.5896 49.4417 30.4375 50.1268 30.4375C50.9149 30.4375 51.5724 30.6376 52.0991 31.0357C52.6258 31.4339 52.9941 31.9721 53.206 32.6464L52.0516 32.9685C51.9189 32.5163 51.6912 32.1642 51.3724 31.9101C51.0535 31.656 50.6377 31.5279 50.1268 31.5279C49.6674 31.5279 49.2852 31.632 48.9783 31.8401C48.6714 32.0481 48.4436 32.3403 48.2892 32.7164C48.1347 33.0926 48.0575 33.5327 48.0535 34.0389C48.0535 34.5451 48.1308 34.9853 48.2832 35.3615C48.4377 35.7376 48.6674 36.0297 48.9743 36.2378C49.2813 36.4459 49.6654 36.5499 50.1248 36.5499C50.6357 36.5499 51.0496 36.4219 51.3704 36.1658C51.6912 35.9097 51.9169 35.5575 52.0496 35.1094L53.204 35.4315C52.9922 36.1078 52.6219 36.644 52.0971 37.0421C51.5704 37.4403 50.9129 37.6404 50.1248 37.6404H50.1268Z" fill="#151820"/>
<path d="M54.2734 37.4968V30.582H57.1012C57.1685 30.582 57.2536 30.582 57.3586 30.59C57.4635 30.594 57.5606 30.606 57.6477 30.622C58.0437 30.6821 58.3705 30.8161 58.6299 31.0202C58.8873 31.2243 59.0794 31.4844 59.2041 31.7965C59.3289 32.1086 59.3923 32.4548 59.3923 32.8369C59.3923 33.4012 59.2517 33.8854 58.9685 34.2895C58.6873 34.6937 58.2536 34.9458 57.6715 35.0418L57.1823 35.0858H55.42V37.5008H54.2754V37.4968H54.2734ZM55.416 34.0014H57.0517C57.115 34.0014 57.1863 33.9974 57.2655 33.9914C57.3447 33.9854 57.418 33.9714 57.4833 33.9534C57.6734 33.9054 57.8239 33.8213 57.9328 33.6993C58.0418 33.5772 58.119 33.4392 58.1665 33.2871C58.2121 33.133 58.2358 32.983 58.2358 32.8349C58.2358 32.6869 58.2121 32.5368 58.1665 32.3807C58.121 32.2247 58.0437 32.0866 57.9328 31.9646C57.8239 31.8425 57.6734 31.7585 57.4833 31.7105C57.416 31.6905 57.3447 31.6785 57.2655 31.6745C57.1863 31.6705 57.115 31.6665 57.0517 31.6665H55.416V33.9994V34.0014ZM58.2002 37.4988L56.8497 34.6857L58.014 34.4276L59.4972 37.5008H58.2002V37.4988Z" fill="#151820"/>
<path d="M60.5625 37.4968V30.582H64.9823V31.6665H61.7071V33.3711H64.412V34.4556H61.7071V36.4104H64.9823V37.4948H60.5625V37.4968Z" fill="#151820"/>
<path d="M67.7881 37.4968V31.6665H65.5742V30.582H71.1485V31.6665H68.9346V37.4968H67.7881Z" fill="#151820"/>
<path d="M74.4606 37.6403C73.9596 37.6403 73.5101 37.5522 73.1081 37.3761C72.7081 37.2001 72.3774 36.948 72.12 36.6198C71.8626 36.2917 71.6982 35.9016 71.6289 35.4514L72.817 35.2693C72.918 35.6795 73.1259 35.9956 73.4428 36.2197C73.7596 36.4438 74.122 36.5558 74.5339 36.5558C74.7774 36.5558 75.0071 36.5178 75.223 36.4398C75.4388 36.3637 75.6131 36.2517 75.7477 36.1036C75.8824 35.9556 75.9497 35.7755 75.9497 35.5614C75.9497 35.4654 75.9339 35.3773 75.9022 35.2953C75.8705 35.2133 75.823 35.1413 75.7616 35.0772C75.7002 35.0132 75.621 34.9552 75.524 34.9012C75.4269 34.8491 75.316 34.8031 75.1893 34.7651L73.421 34.2369C73.2685 34.1929 73.1041 34.1328 72.9299 34.0568C72.7556 33.9808 72.5873 33.8767 72.4309 33.7447C72.2744 33.6126 72.1457 33.4426 72.0467 33.2365C71.9477 33.0304 71.8962 32.7743 71.8962 32.4702C71.8962 32.026 72.0071 31.6519 72.2309 31.3497C72.4546 31.0476 72.7556 30.8215 73.1339 30.6695C73.5121 30.5194 73.9339 30.4454 74.3952 30.4494C74.8646 30.4534 75.2824 30.5334 75.6507 30.6915C76.019 30.8495 76.3259 31.0796 76.5735 31.3797C76.821 31.6799 76.9952 32.044 77.0962 32.4702L75.8645 32.6863C75.8131 32.4422 75.716 32.2361 75.5715 32.064C75.4269 31.8919 75.2507 31.7619 75.0447 31.6719C74.8388 31.5818 74.617 31.5338 74.3814 31.5278C74.1537 31.5238 73.9418 31.5598 73.7477 31.6318C73.5537 31.7039 73.3952 31.8079 73.2764 31.942C73.1576 32.076 73.0982 32.2341 73.0982 32.4122C73.0982 32.5902 73.1497 32.7203 73.2507 32.8283C73.3517 32.9364 73.4784 33.0204 73.6289 33.0824C73.7794 33.1445 73.9319 33.1965 74.0883 33.2385L75.3141 33.5846C75.4824 33.6286 75.6705 33.6907 75.8804 33.7667C76.0903 33.8427 76.2903 33.9508 76.4843 34.0888C76.6784 34.2269 76.8368 34.407 76.9616 34.631C77.0863 34.8551 77.1497 35.1392 77.1497 35.4854C77.1497 35.8315 77.0764 36.1597 76.9279 36.4298C76.7794 36.6999 76.5814 36.926 76.3319 37.104C76.0824 37.2821 75.7952 37.4182 75.4744 37.5082C75.1537 37.5982 74.817 37.6423 74.4645 37.6423H74.4606V37.6403Z" fill="#151820"/>
</g>
<defs>
<clipPath id="clip0_2393_10804">
<rect width="80" height="67.2269" fill="white"/>
</clipPath>
</defs>
</svg>
