<svg width="60" height="51" viewBox="0 0 60 51" fill="none" xmlns="http://www.w3.org/2000/svg">
<g clip-path="url(#clip0_2488_15721)">
<path fill-rule="evenodd" clip-rule="evenodd" d="M30.0325 1.20048C16.9096 1.20048 6.27015 11.9507 6.27015 25.2101C6.27015 38.4695 16.9096 49.2197 30.0325 49.2197C43.1554 49.2197 53.7949 38.4695 53.7949 25.2101C53.7949 11.9507 43.1554 1.20048 30.0325 1.20048ZM5.08203 25.2101C5.08203 11.2876 16.2534 0 30.0325 0C43.8116 0 54.983 11.2876 54.983 25.2101C54.983 39.1325 43.8116 50.4202 30.0325 50.4202C16.2534 50.4202 5.08203 39.1325 5.08203 25.2101Z" fill="#4F4F4F"/>
<path fill-rule="evenodd" clip-rule="evenodd" d="M30.0317 1.951C17.3182 1.951 7.01187 12.3645 7.01187 25.2103C7.01187 38.0561 17.3182 48.4696 30.0317 48.4696C42.7452 48.4696 53.0515 38.0561 53.0515 25.2103C53.0515 12.3645 42.7452 1.951 30.0317 1.951ZM6.71484 25.2103C6.71484 12.1988 17.1541 1.65088 30.0317 1.65088C42.9092 1.65088 53.3485 12.1988 53.3485 25.2103C53.3485 38.2218 42.9092 48.7697 30.0317 48.7697C17.1541 48.7697 6.71484 38.2218 6.71484 25.2103Z" fill="#4F4F4F"/>
<path fill-rule="evenodd" clip-rule="evenodd" d="M30.0319 9.90409C21.6657 9.90409 14.8834 16.7569 14.8834 25.2102C14.8834 33.6636 21.6657 40.5163 30.0319 40.5163C38.3982 40.5163 45.1805 33.6636 45.1805 25.2102C45.1805 16.7569 38.3982 9.90409 30.0319 9.90409ZM13.6953 25.2102C13.6953 16.0939 21.0095 8.70361 30.0319 8.70361C39.0544 8.70361 46.3686 16.0939 46.3686 25.2102C46.3686 34.3266 39.0544 41.7168 30.0319 41.7168C21.0095 41.7168 13.6953 34.3266 13.6953 25.2102Z" fill="#4F4F4F"/>
<path fill-rule="evenodd" clip-rule="evenodd" d="M30.0323 8.40315C20.8457 8.40315 13.3986 15.9278 13.3986 25.2099C13.3986 34.492 20.8457 42.0166 30.0323 42.0166C39.2188 42.0166 46.6659 34.492 46.6659 25.2099C46.6659 15.9278 39.2188 8.40315 30.0323 8.40315ZM13.1016 25.2099C13.1016 15.762 20.6817 8.10303 30.0323 8.10303C39.3828 8.10303 46.9629 15.762 46.9629 25.2099C46.9629 34.6577 39.3828 42.3167 30.0323 42.3167C20.6817 42.3167 13.1016 34.6577 13.1016 25.2099Z" fill="#4F4F4F"/>
<path d="M58.2178 17.7505H1.78218C0.797908 17.7505 0 18.5567 0 19.5512V31.7061C0 32.7006 0.797908 33.5068 1.78218 33.5068H58.2178C59.2021 33.5068 60 32.7006 60 31.7061V19.5512C60 18.5567 59.2021 17.7505 58.2178 17.7505Z" fill="#F4C031"/>
<path d="M12.0781 35.9273L13.4534 35.1305L13.1415 34.5798L13.4356 34.4087L14.2464 35.8388L13.9524 36.0098L13.6405 35.4591L12.2653 36.2559L12.0781 35.9258V35.9273Z" fill="#4F4F4F"/>
<path d="M12.7905 37.1352L14.3603 36.0098L14.846 36.703C14.8579 36.7195 14.8712 36.7406 14.8891 36.7691C14.9069 36.7976 14.9217 36.8231 14.9321 36.8471C14.9871 36.9551 15.0123 37.0587 15.0094 37.1547C15.0064 37.2508 14.9797 37.3408 14.9277 37.4203C14.8757 37.4999 14.8074 37.5734 14.7198 37.6364C14.5876 37.731 14.4509 37.7775 14.3099 37.776C14.1688 37.776 14.0351 37.7084 13.9118 37.5779L13.8064 37.4473L13.5376 37.0647L13.0059 37.4458L12.7891 37.1352H12.7905ZM13.4396 38.0611L13.8509 37.2793L14.1331 37.5554L13.6846 38.4107L13.4381 38.0596H13.4396V38.0611ZM13.8168 36.8681L14.0752 37.2373C14.0871 37.2538 14.099 37.2703 14.1138 37.2883C14.1287 37.3063 14.1435 37.3213 14.1599 37.3348C14.2 37.3693 14.2415 37.3873 14.2831 37.3918C14.3247 37.3963 14.3648 37.3918 14.4019 37.3768C14.4391 37.3633 14.4732 37.3453 14.5014 37.3258C14.5297 37.3063 14.5564 37.2793 14.5816 37.2478C14.6069 37.2162 14.6247 37.1802 14.6351 37.1382C14.6455 37.0977 14.641 37.0512 14.6217 37.0017C14.6143 36.9822 14.6054 36.9626 14.5935 36.9431C14.5816 36.9236 14.5698 36.9056 14.5594 36.8891L14.3009 36.52L13.8168 36.8666V36.8681Z" fill="#4F4F4F"/>
<path d="M13.8867 38.6796L15.7372 37.8647L16.1055 38.2924L15.054 40.0331L14.8001 39.739L15.7238 38.1994L15.7714 38.2549L14.1407 38.9752L13.8867 38.6796ZM14.4288 38.6916L14.6842 38.4665L15.3748 39.2663L15.1194 39.4914L14.4288 38.6916Z" fill="#4F4F4F"/>
<path d="M15.5156 40.4815L16.4112 38.6538L16.6904 38.9254L15.9523 40.426L17.4136 39.6277L17.6929 39.8993L15.9196 40.8747L15.5156 40.4815Z" fill="#4F4F4F"/>
<path d="M16.6445 41.5366L17.8475 40.0195L18.8619 40.8404L18.6495 41.1075L17.9292 40.5237L17.6723 40.8479L18.2633 41.3266L18.051 41.5937L17.4599 41.115L17.151 41.5051L17.8713 42.0889L17.6589 42.356L16.6445 41.5351V41.5366Z" fill="#4F4F4F"/>
<path d="M18.0664 42.6546L19.1431 41.043L19.455 41.2561L18.5684 42.5841L19.2783 43.0688L19.0882 43.3524L18.0664 42.6546Z" fill="#4F4F4F"/>
<path d="M20.1484 43.1573L20.2836 42.9082L21.0113 43.3104L20.8762 43.5595L20.1484 43.1573Z" fill="#4F4F4F"/>
<path d="M22.3479 45.0688C22.1638 44.9922 22.0197 44.8887 21.9187 44.7552C21.8177 44.6216 21.7583 44.47 21.742 44.299C21.7271 44.1279 21.7568 43.9493 21.8326 43.7633C21.9083 43.5772 22.0093 43.4271 22.1385 43.3161C22.2677 43.205 22.4148 43.1375 22.5796 43.1135C22.7445 43.0895 22.9197 43.1165 23.1039 43.1915C23.3162 43.2786 23.4722 43.4031 23.5747 43.5652C23.6771 43.7272 23.7232 43.9073 23.7113 44.1069L23.3222 44.0574C23.3326 43.9343 23.3088 43.8263 23.2524 43.7317C23.1959 43.6387 23.1039 43.5652 22.9747 43.5127C22.8573 43.4646 22.7504 43.4496 22.6509 43.4691C22.5514 43.4886 22.4653 43.5352 22.388 43.6117C22.3108 43.6882 22.2484 43.7888 22.1979 43.9133C22.1474 44.0379 22.1237 44.1549 22.1252 44.2645C22.1266 44.374 22.1563 44.4685 22.2143 44.5526C22.2722 44.6351 22.3598 44.7011 22.4757 44.7491C22.6034 44.8017 22.7207 44.8137 22.8261 44.7867C22.9316 44.7597 23.0237 44.6981 23.1009 44.6036L23.4128 44.8437C23.2836 44.9937 23.1261 45.0913 22.9405 45.1348C22.7549 45.1783 22.5573 45.1558 22.345 45.0688H22.3479Z" fill="#4F4F4F"/>
<path d="M24.4673 45.8089C24.2757 45.7534 24.1227 45.6648 24.0069 45.5433C23.8911 45.4217 23.8168 45.2762 23.7841 45.1081C23.7515 44.94 23.7619 44.7585 23.8168 44.5649C23.8718 44.3713 23.9579 44.2122 24.0737 44.0877C24.1896 43.9631 24.3292 43.8806 24.4911 43.8401C24.6529 43.7996 24.8297 43.8071 25.0213 43.8626C25.2128 43.9181 25.3658 44.0067 25.4817 44.1282C25.5975 44.2498 25.6718 44.3953 25.7044 44.5634C25.7371 44.7315 25.7267 44.913 25.6718 45.1066C25.6168 45.3002 25.5307 45.4592 25.4148 45.5838C25.299 45.7083 25.1594 45.7909 24.9975 45.8314C24.8356 45.8719 24.6589 45.8644 24.4673 45.8089ZM24.5624 45.4772C24.6827 45.5148 24.7911 45.5178 24.8876 45.4893C24.9827 45.4592 25.0643 45.4022 25.1326 45.3167C25.201 45.2311 25.2529 45.1246 25.2901 44.9941C25.3272 44.8635 25.3391 44.7465 25.3257 44.6384C25.3124 44.5319 25.2737 44.4403 25.2069 44.3638C25.1401 44.2873 25.048 44.2303 24.9277 44.1942C24.8074 44.1567 24.699 44.1537 24.6025 44.1822C24.5074 44.2122 24.4257 44.2693 24.3574 44.3533C24.2891 44.4388 24.2371 44.5454 24.2 44.6759C24.1628 44.805 24.151 44.9235 24.1643 45.0316C24.1777 45.1381 24.2163 45.2297 24.2831 45.3062C24.3485 45.3827 24.4421 45.4382 24.5624 45.4757V45.4772Z" fill="#4F4F4F"/>
<path d="M25.8438 46.1345L26.1809 44.2197L26.5566 44.2873L27.1848 45.7173L27.4091 44.4403L27.7848 44.5078L27.4477 46.4226L27.072 46.3551L26.4438 44.925L26.2195 46.202L25.8438 46.1345Z" fill="#4F4F4F"/>
<path d="M28 46.493L28.1441 44.5542L28.5243 44.5827L29.2921 45.9408L29.3871 44.6472L29.7673 44.6757L29.6233 46.6145L29.2431 46.586L28.4752 45.228L28.3802 46.5215L28 46.493Z" fill="#4F4F4F"/>
<path d="M30.1718 46.622L30.1406 44.6773L31.4401 44.6562L31.4461 44.9999L30.5223 45.0149L30.5282 45.4306L31.2857 45.4186L31.2916 45.7622L30.5342 45.7742L30.5416 46.2739L31.4654 46.2589L31.4713 46.6025L30.1718 46.6235V46.622Z" fill="#4F4F4F"/>
<path d="M32.7406 46.5334C32.5431 46.5544 32.3679 46.5304 32.2149 46.4614C32.0634 46.3924 31.9401 46.2858 31.8466 46.1433C31.753 46.0007 31.6966 45.8281 31.6758 45.6271C31.655 45.426 31.6758 45.2459 31.7367 45.0868C31.7991 44.9278 31.8971 44.7972 32.0307 44.6982C32.1659 44.5991 32.3322 44.5391 32.5297 44.5181C32.757 44.4941 32.953 44.5286 33.1194 44.6232C33.2857 44.7162 33.409 44.8542 33.4921 45.0358L33.1268 45.1784C33.0778 45.0658 33.0065 44.9803 32.9129 44.9248C32.8194 44.8693 32.7035 44.8482 32.5654 44.8633C32.4392 44.8768 32.3382 44.9143 32.2595 44.9788C32.1807 45.0418 32.1258 45.1259 32.0946 45.2294C32.0634 45.3329 32.0545 45.453 32.0679 45.5865C32.0812 45.7216 32.1154 45.8356 32.1674 45.9302C32.2194 46.0247 32.2906 46.0952 32.3797 46.1418C32.4689 46.1883 32.5773 46.2033 32.702 46.1898C32.8401 46.1748 32.9486 46.1313 33.0288 46.0562C33.109 45.9812 33.1609 45.8837 33.1862 45.7636L33.5738 45.8251C33.5307 46.0202 33.4372 46.1808 33.2931 46.3068C33.1505 46.4329 32.9649 46.5079 32.7377 46.5334H32.7406Z" fill="#4F4F4F"/>
<path d="M34.5497 46.2216L34.2364 44.6519L33.6215 44.778L33.5547 44.4418L35.1542 44.1162L35.221 44.4523L34.6062 44.5784L34.9195 46.148L34.5512 46.2231H34.5497V46.2216Z" fill="#4F4F4F"/>
<path d="M36.1769 45.1022L36.0938 44.8306L36.8868 44.5845L36.97 44.8561L36.1769 45.1022Z" fill="#4F4F4F"/>
<path d="M38.2624 45.1515L37.4961 43.3673L38.0872 43.1077C38.102 43.1017 38.1317 43.0882 38.1763 43.0702C38.2208 43.0507 38.2654 43.0357 38.31 43.0222C38.4644 42.9756 38.61 42.9696 38.7481 43.0086C38.8862 43.0462 39.008 43.1167 39.1164 43.2202C39.2248 43.3238 39.3109 43.4513 39.3763 43.6029C39.4416 43.7544 39.4743 43.9045 39.4758 44.0561C39.4758 44.2061 39.4446 44.3457 39.3778 44.4732C39.3109 44.6008 39.207 44.7058 39.0674 44.7869C39.0288 44.8094 38.9857 44.8319 38.9411 44.8529C38.8966 44.8739 38.8669 44.8874 38.8535 44.8934L38.2624 45.153V45.1515ZM38.4763 44.6788L38.7169 44.5738C38.7392 44.5633 38.7703 44.5498 38.809 44.5318C38.8476 44.5138 38.8803 44.4942 38.91 44.4747C38.9827 44.4237 39.0317 44.3592 39.0585 44.2812C39.0837 44.2016 39.0926 44.1176 39.0822 44.0261C39.0718 43.9345 39.0481 43.8475 39.0124 43.762C38.9738 43.6734 38.9248 43.5939 38.8654 43.5249C38.806 43.4558 38.7392 43.4048 38.6649 43.3718C38.5906 43.3388 38.5119 43.3313 38.4288 43.3508C38.3946 43.3583 38.3575 43.3703 38.3189 43.3853C38.2803 43.4018 38.2491 43.4153 38.2253 43.4243L37.9847 43.5309L38.4793 44.6803H38.4763V44.6788Z" fill="#4F4F4F"/>
<path d="M40.1973 44.2571L39.3047 42.5345L39.6374 42.3589L40.5299 44.0816L40.1973 44.2571Z" fill="#4F4F4F"/>
<path d="M41.6797 43.4586C41.5534 43.5366 41.4272 43.5861 41.301 43.6056C41.1747 43.6251 41.0529 43.6146 40.9386 43.5741C40.8242 43.5336 40.7247 43.4631 40.6401 43.361L40.9445 43.1044C41.0262 43.1855 41.1198 43.2275 41.2237 43.2335C41.3292 43.2395 41.4287 43.2125 41.5222 43.1539C41.5742 43.1209 41.6217 43.0819 41.6604 43.0339C41.699 42.9859 41.7257 42.9379 41.7391 42.8868C41.7524 42.8358 41.7435 42.7863 41.7153 42.7413C41.7049 42.7248 41.693 42.7098 41.6782 42.6978C41.6633 42.6858 41.6455 42.6753 41.6262 42.6693C41.6069 42.6633 41.5817 42.6603 41.5519 42.6618C41.5222 42.6618 41.4896 42.6693 41.4495 42.6798L40.9326 42.8268C40.894 42.8388 40.848 42.8493 40.7945 42.8583C40.7411 42.8688 40.6831 42.8703 40.6237 42.8643C40.5643 42.8583 40.5049 42.8373 40.4455 42.8028C40.3876 42.7683 40.3341 42.7113 40.2851 42.6317C40.2168 42.5207 40.1901 42.4112 40.2019 42.3016C40.2138 42.1921 40.2569 42.09 40.3312 41.994C40.4054 41.8979 40.5005 41.8154 40.6163 41.7434C40.7336 41.6729 40.851 41.6263 40.9653 41.6068C41.0797 41.5873 41.1896 41.5948 41.2965 41.6278C41.4034 41.6609 41.5 41.7209 41.5906 41.8064L41.2802 42.0795C41.2356 42.033 41.1836 42.003 41.1287 41.9865C41.0737 41.97 41.0158 41.9685 40.9564 41.9775C40.8985 41.988 40.8435 42.0075 40.7916 42.0375C40.7411 42.0675 40.698 42.1035 40.6623 42.1455C40.6267 42.1876 40.6044 42.2326 40.594 42.2776C40.5836 42.3226 40.5896 42.3661 40.6133 42.4051C40.6356 42.4412 40.6653 42.4637 40.701 42.4727C40.7381 42.4817 40.7767 42.4817 40.8198 42.4727C40.8628 42.4652 40.9044 42.4547 40.946 42.4412L41.2876 42.3361C41.3381 42.3196 41.396 42.3046 41.4614 42.2911C41.5267 42.2761 41.5935 42.2701 41.6633 42.2731C41.7331 42.2761 41.8 42.2941 41.8653 42.3286C41.9307 42.3631 41.9886 42.4217 42.0391 42.5057C42.094 42.5942 42.1222 42.6843 42.1237 42.7743C42.1267 42.8643 42.1089 42.9514 42.0703 43.0339C42.0331 43.1179 41.9797 43.1945 41.9114 43.2665C41.843 43.3385 41.7658 43.4015 41.6797 43.4556V43.4586Z" fill="#4F4F4F"/>
<path d="M43.4308 42.2386C43.2734 42.3617 43.1115 42.4322 42.9451 42.4547C42.7803 42.4757 42.6199 42.4502 42.4669 42.3782C42.314 42.3062 42.1758 42.1891 42.0541 42.0286C41.9323 41.868 41.8565 41.7044 41.8268 41.5349C41.7971 41.3653 41.8135 41.2032 41.8773 41.0487C41.9412 40.8926 42.0511 40.7545 42.21 40.6315C42.3912 40.4904 42.5768 40.4169 42.7669 40.4094C42.957 40.4019 43.1338 40.4529 43.2986 40.5655L43.0595 40.8791C42.96 40.8086 42.8545 40.7741 42.7461 40.7756C42.6377 40.7771 42.5278 40.8206 42.4179 40.9061C42.3169 40.9841 42.2501 41.0697 42.2159 41.1657C42.1818 41.2617 42.1788 41.3608 42.2041 41.4673C42.2308 41.5724 42.2842 41.6789 42.3659 41.787C42.4476 41.8935 42.5352 41.9745 42.6288 42.0271C42.7224 42.0796 42.8189 42.1021 42.9199 42.0946C43.0194 42.0871 43.1204 42.0436 43.2199 41.9655C43.3298 41.88 43.3996 41.7855 43.4293 41.6789C43.459 41.5724 43.4531 41.4628 43.413 41.3473L43.7753 41.1957C43.8392 41.3848 43.8422 41.5709 43.7857 41.7539C43.7293 41.937 43.6105 42.0991 43.4278 42.2401H43.4308V42.2386Z" fill="#4F4F4F"/>
<path d="M45.1378 40.764C44.9937 40.902 44.8408 40.9921 44.6789 41.0311C44.517 41.0701 44.3551 41.0626 44.1947 41.0071C44.0343 40.9515 43.8858 40.851 43.7477 40.7039C43.6096 40.5584 43.5175 40.4023 43.47 40.2388C43.4225 40.0752 43.421 39.9116 43.4685 39.7496C43.5145 39.5875 43.6096 39.4374 43.7536 39.2979C43.8977 39.1583 44.0507 39.0698 44.2126 39.0308C44.3744 38.9918 44.5363 38.9993 44.6967 39.0548C44.8571 39.1103 45.0056 39.2108 45.1438 39.3564C45.2819 39.502 45.3739 39.658 45.4215 39.8216C45.469 39.9867 45.4705 40.1487 45.423 40.3108C45.3769 40.4729 45.2804 40.6229 45.1378 40.7625V40.764ZM44.9017 40.5149C44.9937 40.4278 45.0517 40.3348 45.0754 40.2373C45.0992 40.1397 45.0903 40.0392 45.0517 39.9371C45.0131 39.8351 44.9477 39.7346 44.8556 39.637C44.7636 39.5395 44.6685 39.469 44.5705 39.4269C44.4725 39.3849 44.3744 39.3729 44.2764 39.3909C44.1784 39.4089 44.0834 39.463 43.9898 39.55C43.8962 39.637 43.8398 39.7301 43.816 39.8276C43.7923 39.9251 43.8012 40.0257 43.8398 40.1277C43.8784 40.2298 43.9438 40.3303 44.0358 40.4278C44.1279 40.5254 44.223 40.5959 44.321 40.6379C44.419 40.6799 44.517 40.6919 44.615 40.6739C44.7131 40.6559 44.8081 40.6019 44.9017 40.5149Z" fill="#4F4F4F"/>
<path d="M46.3291 39.4569L44.4727 38.6556L44.7251 38.3584L46.2504 39.0187L45.3801 37.5886L45.6326 37.2915L46.6959 39.0247L46.3306 39.4554H46.3291V39.4569Z" fill="#4F4F4F"/>
<path d="M47.3042 38.2608L45.7344 37.1354L46.4873 36.064L46.7636 36.262L46.2289 37.0228L46.5646 37.2629L47.0027 36.6387L47.2789 36.8368L46.8408 37.461L47.2448 37.7506L47.7794 36.9898L48.0557 37.1879L47.3027 38.2593H47.3042V38.2608Z" fill="#4F4F4F"/>
<path d="M48.328 36.7709L46.6602 35.8L47.0805 35.0647C47.0894 35.0482 47.1042 35.0257 47.1206 34.9972C47.1384 34.9686 47.1547 34.9446 47.1725 34.9251C47.2468 34.8306 47.3285 34.7631 47.4176 34.7271C47.5052 34.6895 47.5973 34.6775 47.6908 34.6895C47.7844 34.703 47.878 34.7361 47.9715 34.7901C48.1111 34.8711 48.2107 34.9777 48.2686 35.1082C48.3265 35.2388 48.3235 35.3873 48.2582 35.5569L48.1839 35.7069L47.9522 36.1136L48.5181 36.4422L48.3309 36.7709H48.328ZM47.6567 35.941L47.8809 35.5494C47.8899 35.5329 47.9003 35.5134 47.9107 35.4924C47.921 35.4714 47.9285 35.4503 47.9329 35.4308C47.9463 35.3798 47.9463 35.3348 47.9329 35.2943C47.9196 35.2538 47.8988 35.2192 47.8706 35.1907C47.8423 35.1622 47.8126 35.1382 47.7829 35.1217C47.7532 35.1037 47.7191 35.0902 47.679 35.0797C47.6404 35.0692 47.6003 35.0677 47.5587 35.0767C47.5171 35.0857 47.4785 35.1082 47.4413 35.1457C47.4265 35.1592 47.4131 35.1772 47.3998 35.1952C47.3864 35.2147 47.376 35.2328 47.3656 35.2493L47.1428 35.6409L47.6567 35.9395V35.941ZM48.8894 35.7895L48.0146 35.7385L48.1453 35.3633L49.1017 35.4173L48.8894 35.7895Z" fill="#4F4F4F"/>
<path d="M2.92727 28.1226V22.9365H3.78568V27.3093H6.05202V28.1226H2.92578H2.92727Z" fill="#151820"/>
<path d="M8.70253 28.2308C8.18867 28.2308 7.74906 28.1167 7.38372 27.8901C7.01837 27.6635 6.73619 27.3469 6.54015 26.9418C6.34411 26.5366 6.24609 26.0654 6.24609 25.5297C6.24609 24.994 6.34411 24.5243 6.54015 24.1176C6.73619 23.7125 7.01689 23.3958 7.38372 23.1692C7.74906 22.9427 8.18867 22.8286 8.70253 22.8286C9.21639 22.8286 9.65599 22.9427 10.0228 23.1692C10.3897 23.3958 10.6718 23.7125 10.8679 24.1176C11.0639 24.5228 11.1619 24.994 11.1619 25.5297C11.1619 26.0654 11.0639 26.5351 10.8679 26.9418C10.6718 27.3469 10.3897 27.6635 10.0228 27.8901C9.65599 28.1167 9.21491 28.2308 8.70253 28.2308ZM8.70253 27.4129C9.04708 27.4159 9.33372 27.3379 9.56391 27.1819C9.79263 27.0258 9.96491 26.8067 10.0807 26.5231C10.1966 26.2395 10.253 25.9078 10.253 25.5297C10.253 25.1515 10.1951 24.8214 10.0807 24.5408C9.96491 24.2617 9.79263 24.0426 9.56391 23.8865C9.3352 23.7305 9.04708 23.6494 8.70253 23.6449C8.35798 23.6419 8.07134 23.72 7.84411 23.876C7.6154 24.0321 7.44461 24.2512 7.32877 24.5348C7.21293 24.8184 7.15649 25.15 7.15649 25.5282C7.15649 25.9063 7.21293 26.2365 7.32728 26.5171C7.44164 26.7962 7.61243 27.0153 7.84263 27.1714C8.07283 27.3274 8.35946 27.4084 8.70401 27.4129H8.70253Z" fill="#151820"/>
<path d="M14.058 28.2308C13.5441 28.2308 13.1045 28.1167 12.7392 27.8901C12.3738 27.6635 12.0917 27.3469 11.8956 26.9418C11.6996 26.5366 11.6016 26.0654 11.6016 25.5297C11.6016 24.994 11.6996 24.5243 11.8956 24.1176C12.0917 23.7125 12.3724 23.3958 12.7392 23.1692C13.1045 22.9427 13.5441 22.8286 14.058 22.8286C14.6491 22.8286 15.1422 22.9787 15.5372 23.2773C15.9323 23.5759 16.2085 23.9796 16.3674 24.4853L15.5016 24.7269C15.4021 24.3877 15.2313 24.1236 14.9922 23.9331C14.753 23.7425 14.4412 23.6464 14.058 23.6464C13.7134 23.6464 13.4268 23.7245 13.1966 23.8805C12.9664 24.0366 12.7956 24.2557 12.6798 24.5378C12.5639 24.8199 12.506 25.15 12.503 25.5297C12.503 25.9093 12.561 26.2395 12.6753 26.5216C12.7912 26.8037 12.9634 27.0228 13.1936 27.1789C13.4238 27.3349 13.712 27.4129 14.0565 27.4129C14.4397 27.4129 14.7501 27.3169 14.9907 27.1248C15.2313 26.9328 15.4006 26.6686 15.5001 26.3325L16.3659 26.5741C16.207 27.0813 15.9293 27.4835 15.5357 27.7821C15.1407 28.0807 14.6476 28.2308 14.0565 28.2308H14.058Z" fill="#151820"/>
<path d="M16.668 28.1226L18.2868 22.9365H19.5447L21.1635 28.1226H20.2798L18.811 23.4692H19.0041L17.5531 28.1226H16.668ZM17.5695 26.9986V26.1883H20.2635V26.9986H17.5695Z" fill="#151820"/>
<path d="M21.8882 28.1226V22.9365H22.7466V27.3093H25.013V28.1226H21.8867H21.8882Z" fill="#151820"/>
<path d="M28.6199 28.2307C28.2441 28.2307 27.907 28.1646 27.6055 28.0326C27.3055 27.9005 27.0575 27.7115 26.8644 27.4654C26.6713 27.2193 26.5481 26.9267 26.4961 26.589L27.3872 26.4525C27.4629 26.7601 27.6189 26.9972 27.8565 27.1652C28.0941 27.3333 28.3659 27.4174 28.6748 27.4174C28.8575 27.4174 29.0298 27.3888 29.1916 27.3303C29.3535 27.2733 29.4842 27.1893 29.5852 27.0782C29.6862 26.9672 29.7367 26.8321 29.7367 26.6716C29.7367 26.5995 29.7248 26.5335 29.701 26.472C29.6773 26.4104 29.6416 26.3564 29.5956 26.3084C29.5496 26.2604 29.4902 26.2169 29.4174 26.1764C29.3446 26.1373 29.2614 26.1028 29.1664 26.0743L27.8402 25.6782C27.7258 25.6451 27.6025 25.6001 27.4718 25.5431C27.3411 25.4861 27.2149 25.408 27.0976 25.309C26.9803 25.21 26.8837 25.0824 26.8095 24.9279C26.7352 24.7733 26.6966 24.5812 26.6966 24.3531C26.6966 24.02 26.7798 23.7394 26.9476 23.5128C27.1154 23.2862 27.3411 23.1166 27.6248 23.0026C27.9085 22.89 28.2248 22.8345 28.5708 22.8375C28.9228 22.8405 29.2362 22.9005 29.5124 23.0191C29.7887 23.1376 30.0189 23.3102 30.2045 23.5353C30.3902 23.7604 30.5208 24.0335 30.5966 24.3531L29.6728 24.5152C29.6342 24.3321 29.5614 24.1776 29.453 24.0485C29.3446 23.9194 29.2124 23.8219 29.058 23.7544C28.9035 23.6869 28.7372 23.6508 28.5604 23.6463C28.3897 23.6433 28.2307 23.6704 28.0852 23.7244C27.9397 23.7784 27.8208 23.8564 27.7317 23.957C27.6426 24.0575 27.5981 24.1761 27.5981 24.3096C27.5981 24.4432 27.6367 24.5407 27.7124 24.6217C27.7882 24.7028 27.8832 24.7658 27.9961 24.8123C28.109 24.8588 28.2233 24.8978 28.3406 24.9294L29.26 25.189C29.3862 25.222 29.5273 25.2685 29.6847 25.3255C29.8421 25.3825 29.9921 25.4636 30.1377 25.5671C30.2832 25.6707 30.402 25.8057 30.4956 25.9738C30.5892 26.1418 30.6367 26.3549 30.6367 26.6145C30.6367 26.8741 30.5817 27.1202 30.4704 27.3228C30.359 27.5254 30.2105 27.695 30.0233 27.8285C29.8362 27.9621 29.6208 28.0641 29.3803 28.1316C29.1397 28.1992 28.8872 28.2322 28.6228 28.2322H28.6199V28.2307Z" fill="#151820"/>
<path d="M31.4219 28.1226V22.9365H34.7367V23.7498H32.2803V25.0284H34.309V25.8417H32.2803V27.3078H34.7367V28.1211H31.4219V28.1226Z" fill="#151820"/>
<path d="M37.5971 28.2308C37.0832 28.2308 36.6436 28.1167 36.2782 27.8901C35.9129 27.6635 35.6307 27.3469 35.4347 26.9418C35.2386 26.5366 35.1406 26.0654 35.1406 25.5297C35.1406 24.994 35.2386 24.5243 35.4347 24.1176C35.6307 23.7125 35.9114 23.3958 36.2782 23.1692C36.6436 22.9427 37.0832 22.8286 37.5971 22.8286C38.1881 22.8286 38.6812 22.9787 39.0763 23.2773C39.4713 23.5759 39.7476 23.9796 39.9065 24.4853L39.0406 24.7269C38.9411 24.3877 38.7703 24.1236 38.5312 23.9331C38.2921 23.7425 37.9802 23.6464 37.5971 23.6464C37.2525 23.6464 36.9659 23.7245 36.7357 23.8805C36.5055 24.0366 36.3347 24.2557 36.2188 24.5378C36.103 24.8199 36.0451 25.15 36.0421 25.5297C36.0421 25.9093 36.1 26.2395 36.2144 26.5216C36.3302 26.8037 36.5025 27.0228 36.7327 27.1789C36.9629 27.3349 37.251 27.4129 37.5956 27.4129C37.9787 27.4129 38.2891 27.3169 38.5297 27.1248C38.7703 26.9328 38.9396 26.6686 39.0391 26.3325L39.905 26.5741C39.7461 27.0813 39.4683 27.4835 39.0748 27.7821C38.6797 28.0807 38.1867 28.2308 37.5956 28.2308H37.5971Z" fill="#151820"/>
<path d="M40.707 28.1226V22.9365H42.8278C42.8783 22.9365 42.9422 22.9365 43.0209 22.9425C43.0996 22.9455 43.1724 22.9545 43.2377 22.9665C43.5348 23.0116 43.7798 23.1121 43.9744 23.2652C44.1674 23.4182 44.3115 23.6133 44.4051 23.8474C44.4986 24.0815 44.5461 24.3411 44.5461 24.6277C44.5461 25.0509 44.4407 25.414 44.2283 25.7171C44.0174 26.0203 43.6922 26.2093 43.2555 26.2814L42.8887 26.3144H41.5669V28.1256H40.7085V28.1226H40.707ZM41.564 25.501H42.7907C42.8382 25.501 42.8917 25.498 42.9511 25.4935C43.0105 25.489 43.0655 25.4785 43.1145 25.465C43.257 25.429 43.3699 25.366 43.4516 25.2745C43.5333 25.1829 43.5912 25.0794 43.6268 24.9653C43.661 24.8498 43.6788 24.7372 43.6788 24.6262C43.6788 24.5152 43.661 24.4026 43.6268 24.2856C43.5927 24.1685 43.5348 24.065 43.4516 23.9734C43.3699 23.8819 43.257 23.8189 43.1145 23.7829C43.064 23.7679 43.0105 23.7589 42.9511 23.7558C42.8917 23.7528 42.8382 23.7498 42.7907 23.7498H41.564V25.4995V25.501ZM43.6521 28.1241L42.6392 26.0143L43.5125 25.8207L44.6249 28.1256H43.6521V28.1241Z" fill="#151820"/>
<path d="M45.4258 28.1226V22.9365H48.7406V23.7498H46.2842V25.0284H48.3129V25.8417H46.2842V27.3078H48.7406V28.1211H45.4258V28.1226Z" fill="#151820"/>
<path d="M50.844 28.1226V23.7498H49.1836V22.9365H53.3643V23.7498H51.7039V28.1226H50.844Z" fill="#151820"/>
<path d="M55.8464 28.2307C55.4707 28.2307 55.1335 28.1646 54.8321 28.0326C54.5321 27.9005 54.284 27.7115 54.091 27.4654C53.8979 27.2193 53.7746 26.9267 53.7227 26.589L54.6137 26.4525C54.6895 26.7601 54.8454 26.9972 55.0831 27.1652C55.3207 27.3333 55.5925 27.4174 55.9014 27.4174C56.084 27.4174 56.2563 27.3888 56.4182 27.3303C56.5801 27.2733 56.7108 27.1893 56.8118 27.0782C56.9128 26.9672 56.9632 26.8321 56.9632 26.6716C56.9632 26.5995 56.9514 26.5335 56.9276 26.472C56.9038 26.4104 56.8682 26.3564 56.8222 26.3084C56.7761 26.2604 56.7167 26.2169 56.6439 26.1764C56.5712 26.1373 56.488 26.1028 56.393 26.0743L55.0667 25.6782C54.9524 25.6451 54.8291 25.6001 54.6984 25.5431C54.5677 25.4861 54.4415 25.408 54.3241 25.309C54.2068 25.21 54.1103 25.0824 54.036 24.9279C53.9618 24.7733 53.9231 24.5812 53.9231 24.3531C53.9231 24.02 54.0063 23.7394 54.1741 23.5128C54.342 23.2862 54.5677 23.1166 54.8514 23.0026C55.135 22.89 55.4514 22.8345 55.7974 22.8375C56.1494 22.8405 56.4628 22.9005 56.739 23.0191C57.0152 23.1376 57.2454 23.3102 57.4311 23.5353C57.6167 23.7604 57.7474 24.0335 57.8231 24.3531L56.8994 24.5152C56.8608 24.3321 56.788 24.1776 56.6796 24.0485C56.5712 23.9194 56.439 23.8219 56.2845 23.7544C56.1301 23.6869 55.9637 23.6508 55.787 23.6463C55.6162 23.6433 55.4573 23.6704 55.3118 23.7244C55.1662 23.7784 55.0474 23.8564 54.9583 23.957C54.8692 24.0575 54.8246 24.1761 54.8246 24.3096C54.8246 24.4432 54.8633 24.5407 54.939 24.6217C55.0147 24.7028 55.1098 24.7658 55.2227 24.8123C55.3355 24.8588 55.4499 24.8978 55.5672 24.9294L56.4865 25.189C56.6128 25.222 56.7538 25.2685 56.9113 25.3255C57.0687 25.3825 57.2187 25.4636 57.3642 25.5671C57.5098 25.6707 57.6286 25.8057 57.7222 25.9738C57.8157 26.1418 57.8632 26.3549 57.8632 26.6145C57.8632 26.8741 57.8083 27.1202 57.6969 27.3228C57.5855 27.5254 57.437 27.695 57.2499 27.8285C57.0628 27.9621 56.8474 28.0641 56.6068 28.1316C56.3662 28.1992 56.1137 28.2322 55.8494 28.2322H55.8464V28.2307Z" fill="#151820"/>
</g>
<defs>
<clipPath id="clip0_2488_15721">
<rect width="60" height="50.4202" fill="white"/>
</clipPath>
</defs>
</svg>
