<svg width="80" height="68" viewBox="0 0 80 68" fill="none" xmlns="http://www.w3.org/2000/svg">
<g clip-path="url(#clip0_2488_15788)">
<path fill-rule="evenodd" clip-rule="evenodd" d="M40.0408 1.60064C22.5436 1.60064 8.3576 15.9342 8.3576 33.6134C8.3576 51.2927 22.5436 65.6263 40.0408 65.6263C57.538 65.6263 71.7239 51.2927 71.7239 33.6134C71.7239 15.9342 57.538 1.60064 40.0408 1.60064ZM6.77344 33.6134C6.77344 15.0502 21.6687 0 40.0408 0C58.4129 0 73.3081 15.0502 73.3081 33.6134C73.3081 52.1767 58.4129 67.2269 40.0408 67.2269C21.6687 67.2269 6.77344 52.1767 6.77344 33.6134Z" fill="#4F4F4F"/>
<path fill-rule="evenodd" clip-rule="evenodd" d="M40.0422 2.60133C23.0909 2.60133 9.34916 16.4861 9.34916 33.6137C9.34916 50.7414 23.0909 64.6261 40.0422 64.6261C56.9935 64.6261 70.7353 50.7414 70.7353 33.6137C70.7353 16.4861 56.9935 2.60133 40.0422 2.60133ZM8.95312 33.6137C8.95312 16.2651 22.8722 2.20117 40.0422 2.20117C57.2123 2.20117 71.1313 16.2651 71.1313 33.6137C71.1313 50.9624 57.2123 65.0263 40.0422 65.0263C22.8722 65.0263 8.95312 50.9624 8.95312 33.6137Z" fill="#4F4F4F"/>
<path fill-rule="evenodd" clip-rule="evenodd" d="M40.04 13.2051C28.8849 13.2051 19.842 22.3422 19.842 33.6133C19.842 44.8844 28.8849 54.0215 40.04 54.0215C51.1951 54.0215 60.238 44.8844 60.238 33.6133C60.238 22.3422 51.1951 13.2051 40.04 13.2051ZM18.2578 33.6133C18.2578 21.4582 28.01 11.6045 40.04 11.6045C52.07 11.6045 61.8222 21.4582 61.8222 33.6133C61.8222 45.7684 52.07 55.6221 40.04 55.6221C28.01 55.6221 18.2578 45.7684 18.2578 33.6133Z" fill="#4F4F4F"/>
<path fill-rule="evenodd" clip-rule="evenodd" d="M40.043 11.2048C27.7943 11.2048 17.8648 21.2377 17.8648 33.6138C17.8648 45.9899 27.7943 56.0228 40.043 56.0228C52.2917 56.0228 62.2212 45.9899 62.2212 33.6138C62.2212 21.2377 52.2917 11.2048 40.043 11.2048ZM17.4688 33.6138C17.4688 21.0167 27.5756 10.8047 40.043 10.8047C52.5104 10.8047 62.6173 21.0167 62.6173 33.6138C62.6173 46.2109 52.5104 56.4229 40.043 56.4229C27.5756 56.4229 17.4688 46.2109 17.4688 33.6138Z" fill="#4F4F4F"/>
<path d="M77.6238 23.667H2.37624C1.06388 23.667 0 24.7419 0 26.068V42.2744C0 43.6004 1.06388 44.6754 2.37624 44.6754H77.6238C78.9361 44.6754 80 43.6004 80 42.2744V26.068C80 24.7419 78.9361 23.667 77.6238 23.667Z" fill="#F4C031"/>
<path d="M16.1055 47.9027L17.9391 46.8403L17.5233 46.106L17.9154 45.8779L18.9966 47.7847L18.6045 48.0128L18.1886 47.2785L16.355 48.3409L16.1055 47.9007V47.9027Z" fill="#4F4F4F"/>
<path d="M17.0528 49.5133L19.1458 48.0127L19.7934 48.9371C19.8092 48.9591 19.827 48.9871 19.8508 49.0251C19.8745 49.0631 19.8943 49.0971 19.9082 49.1291C19.9815 49.2732 20.0151 49.4113 20.0112 49.5393C20.0072 49.6674 19.9716 49.7874 19.9023 49.8934C19.833 49.9995 19.7419 50.0975 19.625 50.1816C19.4488 50.3076 19.2666 50.3696 19.0785 50.3676C18.8904 50.3676 18.7122 50.2776 18.5478 50.1035L18.4072 49.9295L18.0488 49.4193L17.3399 49.9275L17.0508 49.5133H17.0528ZM17.9181 50.7478L18.4666 49.7054L18.8429 50.0735L18.2448 51.214L17.9161 50.7458H17.9181V50.7478ZM18.4211 49.1572L18.7656 49.6493C18.7815 49.6714 18.7973 49.6934 18.8171 49.7174C18.8369 49.7414 18.8567 49.7614 18.8785 49.7794C18.932 49.8254 18.9874 49.8494 19.0429 49.8554C19.0983 49.8614 19.1518 49.8554 19.2013 49.8354C19.2508 49.8174 19.2963 49.7934 19.3339 49.7674C19.3716 49.7414 19.4072 49.7054 19.4409 49.6634C19.4745 49.6213 19.4983 49.5733 19.5122 49.5173C19.526 49.4633 19.5201 49.4013 19.4943 49.3352C19.4844 49.3092 19.4726 49.2832 19.4567 49.2572C19.4409 49.2312 19.425 49.2072 19.4112 49.1852L19.0666 48.693L18.4211 49.1552V49.1572Z" fill="#4F4F4F"/>
<path d="M18.5195 51.5718L20.9869 50.4854L21.4779 51.0556L20.076 53.3765L19.7374 52.9844L20.969 50.9315L21.0324 51.0056L18.8581 51.9659L18.5195 51.5718ZM19.2423 51.5878L19.5829 51.2877L20.5037 52.3541L20.1631 52.6542L19.2423 51.5878Z" fill="#4F4F4F"/>
<path d="M20.6914 53.9751L21.8855 51.5381L22.2577 51.9002L21.2736 53.901L23.2221 52.8366L23.5944 53.1988L21.23 54.4993L20.6914 53.9751Z" fill="#4F4F4F"/>
<path d="M22.1914 55.3822L23.7954 53.3594L25.1478 54.4538L24.8647 54.81L23.9043 54.0316L23.5617 54.4638L24.3498 55.1021L24.0667 55.4582L23.2785 54.82L22.8667 55.3402L23.8271 56.1185L23.5439 56.4746L22.1914 55.3802V55.3822Z" fill="#4F4F4F"/>
<path d="M24.0898 56.8725L25.5255 54.7236L25.9413 55.0077L24.7592 56.7785L25.7057 57.4247L25.4522 57.8029L24.0898 56.8725Z" fill="#4F4F4F"/>
<path d="M26.8672 57.5431L27.0474 57.2109L28.0177 57.7472L27.8375 58.0793L26.8672 57.5431Z" fill="#4F4F4F"/>
<path d="M29.7972 60.092C29.5517 59.99 29.3596 59.8519 29.225 59.6739C29.0903 59.4958 29.0111 59.2937 28.9893 59.0656C28.9695 58.8375 29.0091 58.5994 29.1101 58.3513C29.2111 58.1032 29.3458 57.9032 29.518 57.7551C29.6903 57.607 29.8863 57.517 30.1061 57.485C30.3259 57.453 30.5596 57.489 30.8052 57.589C31.0883 57.7051 31.2962 57.8711 31.4329 58.0872C31.5695 58.3033 31.6309 58.5434 31.6151 58.8095L31.0962 58.7435C31.1101 58.5794 31.0784 58.4354 31.0032 58.3093C30.9279 58.1853 30.8052 58.0872 30.6329 58.0172C30.4764 57.9532 30.3339 57.9332 30.2012 57.9592C30.0685 57.9852 29.9537 58.0472 29.8507 58.1493C29.7477 58.2513 29.6646 58.3853 29.5972 58.5514C29.5299 58.7175 29.4982 58.8735 29.5002 59.0196C29.5022 59.1657 29.5418 59.2917 29.619 59.4038C29.6962 59.5138 29.8131 59.6018 29.9675 59.6659C30.1378 59.7359 30.2943 59.7519 30.4349 59.7159C30.5755 59.6799 30.6982 59.5978 30.8012 59.4718L31.217 59.7919C31.0448 59.992 30.8349 60.122 30.5873 60.1801C30.3398 60.2381 30.0764 60.2081 29.7933 60.092H29.7972Z" fill="#4F4F4F"/>
<path d="M32.6231 61.0782C32.3676 61.0042 32.1637 60.8861 32.0092 60.724C31.8548 60.562 31.7557 60.3679 31.7122 60.1438C31.6686 59.9197 31.6825 59.6776 31.7557 59.4195C31.829 59.1614 31.9439 58.9493 32.0983 58.7833C32.2528 58.6172 32.4389 58.5072 32.6548 58.4531C32.8706 58.3991 33.1062 58.4091 33.3617 58.4831C33.6171 58.5572 33.8211 58.6752 33.9755 58.8373C34.13 58.9994 34.229 59.1934 34.2726 59.4175C34.3161 59.6416 34.3023 59.8837 34.229 60.1418C34.1557 60.3999 34.0409 60.612 33.8864 60.7781C33.732 60.9441 33.5458 61.0542 33.33 61.1082C33.1142 61.1622 32.8785 61.1522 32.6231 61.0782ZM32.7498 60.636C32.9102 60.686 33.0548 60.69 33.1835 60.652C33.3102 60.612 33.4191 60.536 33.5102 60.4219C33.6013 60.3079 33.6706 60.1658 33.7201 59.9917C33.7696 59.8177 33.7854 59.6616 33.7676 59.5176C33.7498 59.3755 33.6983 59.2535 33.6092 59.1514C33.5201 59.0494 33.3973 58.9733 33.2369 58.9253C33.0765 58.8753 32.932 58.8713 32.8033 58.9093C32.6765 58.9493 32.5676 59.0254 32.4765 59.1374C32.3854 59.2515 32.3161 59.3935 32.2666 59.5676C32.2171 59.7396 32.2013 59.8977 32.2191 60.0418C32.2369 60.1838 32.2884 60.3059 32.3775 60.4079C32.4647 60.51 32.5894 60.584 32.7498 60.634V60.636Z" fill="#4F4F4F"/>
<path d="M34.4609 61.512L34.9104 58.959L35.4114 59.049L36.2491 60.9558L36.5481 59.2531L37.0491 59.3431L36.5996 61.8962L36.0986 61.8061L35.2609 59.8994L34.9619 61.602L34.4609 61.512Z" fill="#4F4F4F"/>
<path d="M37.3359 61.9903L37.528 59.4053L38.035 59.4433L39.0587 61.254L39.1854 59.5293L39.6924 59.5673L39.5003 62.1524L38.9934 62.1144L37.9696 60.3036L37.8429 62.0283L37.3359 61.9903Z" fill="#4F4F4F"/>
<path d="M40.2291 62.1621L40.1875 59.569L41.9202 59.541L41.9281 59.9992L40.6964 60.0192L40.7043 60.5734L41.7142 60.5574L41.7222 61.0156L40.7123 61.0316L40.7222 61.6979L41.9538 61.6779L41.9618 62.1361L40.2291 62.1641V62.1621Z" fill="#4F4F4F"/>
<path d="M43.6568 62.0446C43.3934 62.0726 43.1598 62.0406 42.9558 61.9485C42.7538 61.8565 42.5895 61.7144 42.4647 61.5244C42.34 61.3343 42.2647 61.1042 42.237 60.8361C42.2093 60.568 42.237 60.3279 42.3182 60.1158C42.4013 59.9037 42.532 59.7296 42.7103 59.5976C42.8905 59.4655 43.1122 59.3855 43.3756 59.3575C43.6786 59.3255 43.94 59.3715 44.1617 59.4975C44.3835 59.6216 44.5479 59.8057 44.6588 60.0478L44.1716 60.2378C44.1063 60.0878 44.0112 59.9737 43.8865 59.8997C43.7617 59.8257 43.6073 59.7977 43.4231 59.8177C43.2548 59.8357 43.1202 59.8857 43.0152 59.9717C42.9103 60.0558 42.837 60.1678 42.7954 60.3059C42.7538 60.4439 42.7419 60.604 42.7598 60.7821C42.7776 60.9621 42.8231 61.1142 42.8924 61.2402C42.9617 61.3663 43.0568 61.4603 43.1756 61.5224C43.2944 61.5844 43.439 61.6044 43.6053 61.5864C43.7895 61.5664 43.934 61.5083 44.041 61.4083C44.1479 61.3083 44.2172 61.1782 44.2509 61.0182L44.7677 61.1002C44.7103 61.3603 44.5855 61.5744 44.3934 61.7424C44.2033 61.9105 43.9558 62.0105 43.6528 62.0446H43.6568Z" fill="#4F4F4F"/>
<path d="M46.0689 61.6284L45.6511 59.5356L44.8313 59.7036L44.7422 59.2555L46.8749 58.8213L46.964 59.2695L46.1442 59.4375L46.562 61.5304L46.0709 61.6304H46.0689V61.6284Z" fill="#4F4F4F"/>
<path d="M48.2398 60.1356L48.1289 59.7734L49.1863 59.4453L49.2972 59.8075L48.2398 60.1356Z" fill="#4F4F4F"/>
<path d="M51.0218 60.202L50 57.8231L50.7881 57.4769C50.8079 57.4689 50.8475 57.4509 50.9069 57.4269C50.9663 57.4009 51.0257 57.3809 51.0851 57.3629C51.2911 57.3009 51.4852 57.2928 51.6693 57.3449C51.8535 57.3949 52.0158 57.4889 52.1604 57.627C52.3049 57.765 52.4198 57.9351 52.5069 58.1372C52.5941 58.3393 52.6376 58.5393 52.6396 58.7414C52.6396 58.9415 52.598 59.1276 52.5089 59.2976C52.4198 59.4677 52.2812 59.6078 52.095 59.7158C52.0436 59.7458 51.9861 59.7758 51.9267 59.8038C51.8673 59.8319 51.8277 59.8499 51.8099 59.8579L51.0218 60.204V60.202ZM51.3069 59.5718L51.6277 59.4317C51.6574 59.4177 51.699 59.3997 51.7505 59.3757C51.802 59.3517 51.8455 59.3257 51.8851 59.2996C51.9822 59.2316 52.0475 59.1456 52.0832 59.0415C52.1168 58.9355 52.1287 58.8235 52.1149 58.7014C52.101 58.5794 52.0693 58.4633 52.0218 58.3493C51.9703 58.2312 51.9049 58.1252 51.8257 58.0331C51.7465 57.9411 51.6574 57.8731 51.5584 57.8291C51.4594 57.785 51.3545 57.775 51.2436 57.8011C51.198 57.8111 51.1485 57.8271 51.097 57.8471C51.0455 57.8691 51.004 57.8871 50.9723 57.8991L50.6515 58.0411L51.3109 59.5738H51.3069V59.5718Z" fill="#4F4F4F"/>
<path d="M53.6003 59.0095L52.4102 56.7126L52.8537 56.4785L54.0438 58.7754L53.6003 59.0095Z" fill="#4F4F4F"/>
<path d="M55.5755 57.9451C55.4072 58.0491 55.2389 58.1152 55.0705 58.1412C54.9022 58.1672 54.7399 58.1532 54.5874 58.0992C54.4349 58.0451 54.3022 57.9511 54.1894 57.815L54.5953 57.4729C54.7042 57.5809 54.829 57.637 54.9676 57.645C55.1082 57.653 55.2408 57.617 55.3656 57.5389C55.4349 57.4949 55.4983 57.4429 55.5498 57.3789C55.6012 57.3148 55.6369 57.2508 55.6547 57.1828C55.6725 57.1148 55.6606 57.0487 55.623 56.9887C55.6092 56.9667 55.5933 56.9467 55.5735 56.9307C55.5537 56.9147 55.53 56.9007 55.5042 56.8927C55.4785 56.8847 55.4448 56.8807 55.4052 56.8827C55.3656 56.8827 55.322 56.8927 55.2686 56.9067L54.5795 57.1027C54.528 57.1188 54.4666 57.1328 54.3953 57.1448C54.324 57.1588 54.2468 57.1608 54.1676 57.1528C54.0884 57.1448 54.0092 57.1168 53.93 57.0707C53.8527 57.0247 53.7814 56.9487 53.7161 56.8426C53.625 56.6946 53.5894 56.5485 53.6052 56.4025C53.621 56.2564 53.6785 56.1204 53.7775 55.9923C53.8765 55.8643 54.0032 55.7542 54.1577 55.6582C54.3141 55.5641 54.4705 55.5021 54.623 55.4761C54.7755 55.4501 54.922 55.4601 55.0646 55.5041C55.2072 55.5481 55.3359 55.6282 55.4567 55.7422L55.0428 56.1064C54.9834 56.0443 54.9141 56.0043 54.8408 55.9823C54.7676 55.9603 54.6903 55.9583 54.6111 55.9703C54.5339 55.9843 54.4606 56.0103 54.3913 56.0503C54.324 56.0903 54.2666 56.1384 54.2191 56.1944C54.1715 56.2504 54.1418 56.3104 54.128 56.3705C54.1141 56.4305 54.122 56.4885 54.1537 56.5405C54.1834 56.5885 54.223 56.6186 54.2705 56.6306C54.3201 56.6426 54.3715 56.6426 54.429 56.6306C54.4864 56.6206 54.5418 56.6065 54.5973 56.5885L55.0527 56.4485C55.1201 56.4265 55.1973 56.4065 55.2844 56.3885C55.3715 56.3685 55.4606 56.3605 55.5537 56.3645C55.6468 56.3685 55.7359 56.3925 55.823 56.4385C55.9102 56.4845 55.9874 56.5625 56.0547 56.6746C56.128 56.7926 56.1656 56.9127 56.1676 57.0327C56.1715 57.1528 56.1478 57.2688 56.0963 57.3789C56.0468 57.4909 55.9755 57.5929 55.8844 57.689C55.7933 57.785 55.6903 57.8691 55.5755 57.9411V57.9451Z" fill="#4F4F4F"/>
<path d="M57.9116 56.3179C57.7017 56.4819 57.4859 56.576 57.2641 56.606C57.0443 56.634 56.8304 56.6 56.6265 56.5039C56.4225 56.4079 56.2383 56.2518 56.076 56.0378C55.9136 55.8237 55.8126 55.6056 55.773 55.3795C55.7334 55.1534 55.7552 54.9373 55.8403 54.7312C55.9255 54.5231 56.072 54.3391 56.2839 54.175C56.5255 53.9869 56.773 53.8889 57.0265 53.8789C57.2799 53.8689 57.5156 53.9369 57.7354 54.087L57.4166 54.5051C57.2839 54.4111 57.1433 54.3651 56.9987 54.3671C56.8542 54.3691 56.7077 54.4271 56.5611 54.5412C56.4265 54.6452 56.3374 54.7592 56.2918 54.8873C56.2463 55.0153 56.2423 55.1474 56.276 55.2895C56.3116 55.4295 56.3829 55.5716 56.4918 55.7156C56.6007 55.8577 56.7176 55.9657 56.8423 56.0358C56.9671 56.1058 57.0958 56.1358 57.2304 56.1258C57.3631 56.1158 57.4978 56.0578 57.6304 55.9537C57.777 55.8397 57.87 55.7136 57.9096 55.5716C57.9492 55.4295 57.9413 55.2835 57.8879 55.1294L58.371 54.9273C58.4562 55.1794 58.4601 55.4275 58.3849 55.6716C58.3096 55.9157 58.1512 56.1318 57.9077 56.3199H57.9116V56.3179Z" fill="#4F4F4F"/>
<path d="M60.1863 54.3513C59.9943 54.5354 59.7903 54.6554 59.5745 54.7075C59.3586 54.7595 59.1428 54.7495 58.9289 54.6754C58.7151 54.6014 58.517 54.4674 58.3329 54.2713C58.1487 54.0772 58.026 53.8691 57.9626 53.651C57.8992 53.4329 57.8972 53.2149 57.9606 52.9988C58.022 52.7827 58.1487 52.5826 58.3408 52.3965C58.5329 52.2105 58.7368 52.0924 58.9527 52.0404C59.1685 51.9884 59.3844 51.9984 59.5982 52.0724C59.8121 52.1464 60.0101 52.2805 60.1943 52.4746C60.3784 52.6686 60.5012 52.8767 60.5646 53.0948C60.6279 53.3149 60.6299 53.531 60.5665 53.7471C60.5052 53.9632 60.3764 54.1632 60.1863 54.3493V54.3513ZM59.8715 54.0192C59.9943 53.9031 60.0715 53.7791 60.1032 53.649C60.1349 53.519 60.123 53.3849 60.0715 53.2489C60.02 53.1128 59.9329 52.9788 59.8101 52.8487C59.6873 52.7187 59.5606 52.6246 59.4299 52.5686C59.2992 52.5126 59.1685 52.4966 59.0378 52.5206C58.9071 52.5446 58.7804 52.6166 58.6557 52.7327C58.5309 52.8487 58.4557 52.9728 58.424 53.1028C58.3923 53.2329 58.4042 53.3669 58.4557 53.503C58.5071 53.639 58.5943 53.7731 58.717 53.9031C58.8398 54.0332 58.9665 54.1272 59.0972 54.1832C59.2279 54.2393 59.3586 54.2553 59.4893 54.2313C59.62 54.2073 59.7467 54.1352 59.8715 54.0192Z" fill="#4F4F4F"/>
<path d="M61.7721 52.6088L59.2969 51.5404L59.6335 51.1442L61.6672 52.0246L60.5068 50.1178L60.8434 49.7217L62.2612 52.0326L61.7741 52.6068H61.7721V52.6088Z" fill="#4F4F4F"/>
<path d="M63.0774 51.0141L60.9844 49.5135L61.9883 48.085L62.3567 48.3491L61.6438 49.3635L62.0913 49.6836L62.6755 48.8513L63.0438 49.1154L62.4596 49.9477L62.9982 50.3339L63.7111 49.3195L64.0794 49.5836L63.0755 51.0121H63.0774V51.0141Z" fill="#4F4F4F"/>
<path d="M64.4386 49.0272L62.2148 47.7327L62.7752 46.7523C62.7871 46.7303 62.8069 46.7002 62.8287 46.6622C62.8525 46.6242 62.8743 46.5922 62.898 46.5662C62.997 46.4401 63.1059 46.3501 63.2247 46.3021C63.3416 46.2521 63.4643 46.2361 63.5891 46.2521C63.7139 46.2701 63.8386 46.3141 63.9634 46.3861C64.1495 46.4942 64.2822 46.6362 64.3594 46.8103C64.4366 46.9844 64.4327 47.1824 64.3455 47.4085L64.2465 47.6086L63.9376 48.1508L64.6921 48.589L64.4426 49.0272H64.4386ZM63.5436 47.9207L63.8426 47.3985C63.8544 47.3765 63.8683 47.3505 63.8822 47.3225C63.896 47.2945 63.9059 47.2665 63.9119 47.2405C63.9297 47.1724 63.9297 47.1124 63.9119 47.0584C63.8941 47.0044 63.8663 46.9583 63.8287 46.9203C63.7911 46.8823 63.7515 46.8503 63.7119 46.8283C63.6723 46.8043 63.6267 46.7863 63.5733 46.7723C63.5218 46.7583 63.4683 46.7563 63.4129 46.7683C63.3574 46.7803 63.3059 46.8103 63.2564 46.8603C63.2366 46.8783 63.2188 46.9023 63.201 46.9263C63.1832 46.9523 63.1693 46.9764 63.1554 46.9984L62.8584 47.5206L63.5436 47.9187V47.9207ZM65.1871 47.7187L64.0208 47.6506L64.195 47.1504L65.4703 47.2225L65.1871 47.7187Z" fill="#4F4F4F"/>
<path d="M3.90042 37.4978V30.583H5.04497V36.4133H8.06675V37.4978H3.89844H3.90042Z" fill="#151820"/>
<path d="M11.5995 37.6414C10.9143 37.6414 10.3282 37.4893 9.84105 37.1872C9.35392 36.8851 8.97768 36.4629 8.7163 35.9227C8.45491 35.3825 8.32422 34.7542 8.32422 34.0399C8.32422 33.3256 8.45491 32.6994 8.7163 32.1572C8.97768 31.6169 9.35194 31.1948 9.84105 30.8927C10.3282 30.5905 10.9143 30.4385 11.5995 30.4385C12.2846 30.4385 12.8708 30.5905 13.3599 30.8927C13.849 31.1948 14.2252 31.6169 14.4866 32.1572C14.748 32.6974 14.8787 33.3256 14.8787 34.0399C14.8787 34.7542 14.748 35.3805 14.4866 35.9227C14.2252 36.4629 13.849 36.8851 13.3599 37.1872C12.8708 37.4893 12.2826 37.6414 11.5995 37.6414ZM11.5995 36.5509C12.0589 36.5549 12.441 36.4509 12.748 36.2428C13.0529 36.0347 13.2826 35.7426 13.4371 35.3644C13.5915 34.9863 13.6668 34.5441 13.6668 34.0399C13.6668 33.5357 13.5896 33.0955 13.4371 32.7214C13.2826 32.3492 13.0529 32.0571 12.748 31.849C12.443 31.641 12.0589 31.5329 11.5995 31.5269C11.1401 31.5229 10.7579 31.627 10.4549 31.835C10.15 32.0431 9.92224 32.3352 9.76778 32.7134C9.61333 33.0915 9.53808 33.5337 9.53808 34.0379C9.53808 34.5421 9.61333 34.9823 9.7658 35.3564C9.91828 35.7286 10.146 36.0207 10.4529 36.2288C10.7599 36.4369 11.142 36.5449 11.6014 36.5509H11.5995Z" fill="#151820"/>
<path d="M18.7401 37.6414C18.0549 37.6414 17.4688 37.4893 16.9817 37.1872C16.4945 36.8851 16.1183 36.4629 15.8569 35.9227C15.5955 35.3825 15.4648 34.7542 15.4648 34.0399C15.4648 33.3256 15.5955 32.6994 15.8569 32.1572C16.1183 31.6169 16.4926 31.1948 16.9817 30.8927C17.4688 30.5905 18.0549 30.4385 18.7401 30.4385C19.5282 30.4385 20.1856 30.6386 20.7124 31.0367C21.2391 31.4349 21.6074 31.9731 21.8193 32.6474L20.6648 32.9695C20.5322 32.5173 20.3044 32.1652 19.9856 31.9111C19.6668 31.657 19.251 31.5289 18.7401 31.5289C18.2807 31.5289 17.8985 31.633 17.5916 31.841C17.2846 32.0491 17.0569 32.3412 16.9025 32.7174C16.748 33.0935 16.6708 33.5337 16.6668 34.0399C16.6668 34.5461 16.7441 34.9863 16.8965 35.3624C17.051 35.7386 17.2807 36.0307 17.5876 36.2388C17.8945 36.4469 18.2787 36.5509 18.7381 36.5509C19.249 36.5509 19.6629 36.4229 19.9837 36.1668C20.3044 35.9107 20.5302 35.5585 20.6629 35.1103L21.8173 35.4325C21.6054 36.1087 21.2351 36.645 20.7104 37.0431C20.1837 37.4413 19.5262 37.6414 18.7381 37.6414H18.7401Z" fill="#151820"/>
<path d="M22.2227 37.4978L24.3811 30.583H26.0583L28.2167 37.4978H27.0385L25.0801 31.2933H25.3375L23.4029 37.4978H22.2227ZM23.4246 35.9992V34.9187H27.0167V35.9992H23.4246Z" fill="#151820"/>
<path d="M29.1817 37.4978V30.583H30.3262V36.4133H33.348V37.4978H29.1797H29.1817Z" fill="#151820"/>
<path d="M38.1559 37.6412C37.6549 37.6412 37.2054 37.5532 36.8034 37.3771C36.4034 37.201 36.0727 36.9489 35.8153 36.6208C35.5579 36.2927 35.3935 35.9025 35.3242 35.4524L36.5123 35.2703C36.6133 35.6804 36.8212 35.9966 37.1381 36.2207C37.4549 36.4447 37.8173 36.5568 38.2292 36.5568C38.4727 36.5568 38.7024 36.5188 38.9183 36.4407C39.1341 36.3647 39.3084 36.2527 39.443 36.1046C39.5777 35.9566 39.645 35.7765 39.645 35.5624C39.645 35.4664 39.6292 35.3783 39.5975 35.2963C39.5658 35.2143 39.5183 35.1422 39.4569 35.0782C39.3955 35.0142 39.3163 34.9562 39.2193 34.9021C39.1222 34.8501 39.0113 34.8041 38.8846 34.7661L37.1163 34.2379C36.9638 34.1938 36.7995 34.1338 36.6252 34.0578C36.451 33.9818 36.2826 33.8777 36.1262 33.7457C35.9698 33.6136 35.8411 33.4435 35.742 33.2375C35.643 33.0314 35.5915 32.7753 35.5915 32.4712C35.5915 32.027 35.7024 31.6528 35.9262 31.3507C36.15 31.0486 36.451 30.8225 36.8292 30.6704C37.2074 30.5204 37.6292 30.4463 38.0906 30.4503C38.5599 30.4544 38.9777 30.5344 39.346 30.6924C39.7143 30.8505 40.0212 31.0806 40.2688 31.3807C40.5163 31.6808 40.6906 32.045 40.7915 32.4712L39.5599 32.6872C39.5084 32.4431 39.4113 32.2371 39.2668 32.065C39.1222 31.8929 38.946 31.7629 38.7401 31.6728C38.5341 31.5828 38.3123 31.5348 38.0767 31.5288C37.849 31.5248 37.6371 31.5608 37.443 31.6328C37.249 31.7049 37.0906 31.8089 36.9717 31.9429C36.8529 32.077 36.7935 32.2351 36.7935 32.4131C36.7935 32.5912 36.845 32.7213 36.946 32.8293C37.047 32.9373 37.1737 33.0214 37.3242 33.0834C37.4747 33.1454 37.6272 33.1974 37.7836 33.2395L39.0094 33.5856C39.1777 33.6296 39.3658 33.6916 39.5757 33.7677C39.7856 33.8437 39.9856 33.9518 40.1797 34.0898C40.3737 34.2279 40.5321 34.4079 40.6569 34.632C40.7816 34.8561 40.845 35.1402 40.845 35.4864C40.845 35.8325 40.7717 36.1606 40.6232 36.4307C40.4747 36.7008 40.2767 36.9269 40.0272 37.105C39.7777 37.2831 39.4906 37.4191 39.1698 37.5092C38.849 37.5992 38.5123 37.6432 38.1599 37.6432H38.1559V37.6412Z" fill="#151820"/>
<path d="M41.8906 37.4978V30.583H46.3104V31.6674H43.0352V33.3721H45.7401V34.4566H43.0352V36.4113H46.3104V37.4958H41.8906V37.4978Z" fill="#151820"/>
<path d="M50.1268 37.6414C49.4417 37.6414 48.8555 37.4893 48.3684 37.1872C47.8813 36.8851 47.505 36.4629 47.2436 35.9227C46.9823 35.3825 46.8516 34.7542 46.8516 34.0399C46.8516 33.3256 46.9823 32.6994 47.2436 32.1572C47.505 31.6169 47.8793 31.1948 48.3684 30.8927C48.8555 30.5905 49.4417 30.4385 50.1268 30.4385C50.9149 30.4385 51.5724 30.6386 52.0991 31.0367C52.6258 31.4349 52.9941 31.9731 53.206 32.6474L52.0516 32.9695C51.9189 32.5173 51.6912 32.1652 51.3724 31.9111C51.0535 31.657 50.6377 31.5289 50.1268 31.5289C49.6674 31.5289 49.2852 31.633 48.9783 31.841C48.6714 32.0491 48.4436 32.3412 48.2892 32.7174C48.1347 33.0935 48.0575 33.5337 48.0535 34.0399C48.0535 34.5461 48.1308 34.9863 48.2832 35.3624C48.4377 35.7386 48.6674 36.0307 48.9743 36.2388C49.2813 36.4469 49.6654 36.5509 50.1248 36.5509C50.6357 36.5509 51.0496 36.4229 51.3704 36.1668C51.6912 35.9107 51.9169 35.5585 52.0496 35.1103L53.204 35.4325C52.9922 36.1087 52.6219 36.645 52.0971 37.0431C51.5704 37.4413 50.9129 37.6414 50.1248 37.6414H50.1268Z" fill="#151820"/>
<path d="M54.2734 37.4978V30.583H57.1012C57.1685 30.583 57.2536 30.583 57.3586 30.591C57.4635 30.595 57.5606 30.607 57.6477 30.623C58.0437 30.683 58.3705 30.8171 58.6299 31.0212C58.8873 31.2253 59.0794 31.4854 59.2041 31.7975C59.3289 32.1096 59.3923 32.4558 59.3923 32.8379C59.3923 33.4021 59.2517 33.8863 58.9685 34.2905C58.6873 34.6947 58.2536 34.9468 57.6715 35.0428L57.1823 35.0868H55.42V37.5018H54.2754V37.4978H54.2734ZM55.416 34.0024H57.0517C57.115 34.0024 57.1863 33.9984 57.2655 33.9924C57.3447 33.9864 57.418 33.9724 57.4833 33.9544C57.6734 33.9063 57.8239 33.8223 57.9328 33.7003C58.0418 33.5782 58.119 33.4401 58.1665 33.2881C58.2121 33.134 58.2358 32.984 58.2358 32.8359C58.2358 32.6878 58.2121 32.5378 58.1665 32.3817C58.121 32.2257 58.0437 32.0876 57.9328 31.9656C57.8239 31.8435 57.6734 31.7595 57.4833 31.7115C57.416 31.6915 57.3447 31.6794 57.2655 31.6754C57.1863 31.6714 57.115 31.6674 57.0517 31.6674H55.416V34.0004V34.0024ZM58.2002 37.4998L56.8497 34.6866L58.014 34.4285L59.4972 37.5018H58.2002V37.4998Z" fill="#151820"/>
<path d="M60.5625 37.4978V30.583H64.9823V31.6674H61.7071V33.3721H64.412V34.4566H61.7071V36.4113H64.9823V37.4958H60.5625V37.4978Z" fill="#151820"/>
<path d="M67.7881 37.4978V31.6674H65.5742V30.583H71.1485V31.6674H68.9346V37.4978H67.7881Z" fill="#151820"/>
<path d="M74.4606 37.6412C73.9596 37.6412 73.5101 37.5532 73.1081 37.3771C72.7081 37.201 72.3774 36.9489 72.12 36.6208C71.8626 36.2927 71.6982 35.9025 71.6289 35.4524L72.817 35.2703C72.918 35.6804 73.1259 35.9966 73.4428 36.2207C73.7596 36.4447 74.122 36.5568 74.5339 36.5568C74.7774 36.5568 75.0071 36.5188 75.223 36.4407C75.4388 36.3647 75.6131 36.2527 75.7477 36.1046C75.8824 35.9566 75.9497 35.7765 75.9497 35.5624C75.9497 35.4664 75.9339 35.3783 75.9022 35.2963C75.8705 35.2143 75.823 35.1422 75.7616 35.0782C75.7002 35.0142 75.621 34.9562 75.524 34.9021C75.4269 34.8501 75.316 34.8041 75.1893 34.7661L73.421 34.2379C73.2685 34.1938 73.1041 34.1338 72.9299 34.0578C72.7556 33.9818 72.5873 33.8777 72.4309 33.7457C72.2744 33.6136 72.1457 33.4435 72.0467 33.2375C71.9477 33.0314 71.8962 32.7753 71.8962 32.4712C71.8962 32.027 72.0071 31.6528 72.2309 31.3507C72.4546 31.0486 72.7556 30.8225 73.1339 30.6704C73.5121 30.5204 73.9339 30.4463 74.3952 30.4503C74.8645 30.4544 75.2824 30.5344 75.6507 30.6924C76.019 30.8505 76.3259 31.0806 76.5735 31.3807C76.821 31.6808 76.9952 32.045 77.0962 32.4712L75.8645 32.6872C75.8131 32.4431 75.716 32.2371 75.5715 32.065C75.4269 31.8929 75.2507 31.7629 75.0447 31.6728C74.8388 31.5828 74.617 31.5348 74.3814 31.5288C74.1537 31.5248 73.9418 31.5608 73.7477 31.6328C73.5537 31.7049 73.3952 31.8089 73.2764 31.9429C73.1576 32.077 73.0982 32.2351 73.0982 32.4131C73.0982 32.5912 73.1497 32.7213 73.2507 32.8293C73.3517 32.9373 73.4784 33.0214 73.6289 33.0834C73.7794 33.1454 73.9319 33.1974 74.0883 33.2395L75.3141 33.5856C75.4824 33.6296 75.6705 33.6916 75.8804 33.7677C76.0903 33.8437 76.2903 33.9518 76.4843 34.0898C76.6784 34.2279 76.8368 34.4079 76.9616 34.632C77.0863 34.8561 77.1497 35.1402 77.1497 35.4864C77.1497 35.8325 77.0764 36.1606 76.9279 36.4307C76.7794 36.7008 76.5814 36.9269 76.3319 37.105C76.0824 37.2831 75.7952 37.4191 75.4744 37.5092C75.1537 37.5992 74.817 37.6432 74.4645 37.6432H74.4606V37.6412Z" fill="#151820"/>
</g>
<defs>
<clipPath id="clip0_2488_15788">
<rect width="80" height="67.2269" fill="white"/>
</clipPath>
</defs>
</svg>
