<svg width="24" height="24" viewBox="0 0 24 24" fill="none" xmlns="http://www.w3.org/2000/svg">
<path d="M15.0884 20.6695C15.2784 20.6695 15.4684 20.5995 15.6184 20.4495C15.9084 20.1595 15.9084 19.6795 15.6184 19.3895L9.09844 12.8695C8.61844 12.3895 8.61844 11.6095 9.09844 11.1295L15.6184 4.60953C15.9084 4.31953 15.9084 3.83953 15.6184 3.54953C15.3284 3.25953 14.8484 3.25953 14.5584 3.54953L8.03844 10.0695C7.52844 10.5795 7.23844 11.2695 7.23844 11.9995C7.23844 12.7295 7.51844 13.4195 8.03844 13.9295L14.5584 20.4495C14.7084 20.5895 14.8984 20.6695 15.0884 20.6695Z" fill="#151820"/>
</svg>
