<svg width="22" height="12" viewBox="0 0 22 12" fill="none" xmlns="http://www.w3.org/2000/svg">
<path d="M20.05 2.67832C19.6781 2.64717 19.3388 2.44623 19.1235 2.12996C17.9426 0.901042 16.3655 0.16923 14.6961 0.0754012C14.4108 0.0615737 13.5336 -0.00336326 13.2602 0.000136281C11.4615 -0.00458967 9.73551 0.738266 8.46725 2.06289C7.81659 2.73905 6.99768 3.21407 6.10208 3.4348L1.56499 4.55729C1.11862 4.66669 0.720962 4.92976 0.436929 5.30362C0.152897 5.67748 -0.00115857 6.14011 6.56064e-06 6.61637V8.32416C0.00219791 8.8132 0.198411 9.27966 0.542438 9.61343C0.886652 9.9474 1.34802 10.1193 1.81812 10.0885C2.00591 10.6421 2.40694 11.0899 2.92525 11.3242C3.44361 11.5586 4.03256 11.5586 4.55074 11.3242C5.06909 11.0899 5.47028 10.6421 5.65804 10.0885H16.0911C16.2789 10.6421 16.6799 11.0899 17.1982 11.3242C17.7166 11.5586 18.3055 11.5586 18.8237 11.3242C19.3421 11.0899 19.7433 10.6421 19.931 10.0885C20.4012 10.1193 20.8625 9.94742 21.2066 9.61343C21.5508 9.27965 21.747 8.8132 21.7492 8.32416V4.44263C21.7487 3.97492 21.5695 3.52634 21.2509 3.1957C20.9323 2.86489 20.5004 2.67883 20.05 2.67829L20.05 2.67832ZM3.73821 10.0887C3.55801 10.0887 3.38506 10.0144 3.25762 9.88203C3.13018 9.74971 3.05854 9.57013 3.05854 9.383C3.05854 9.19588 3.13018 9.01631 3.25762 8.88397C3.38505 8.75163 3.558 8.67726 3.73821 8.67726C3.91842 8.67726 4.09136 8.75165 4.2188 8.88397C4.34625 9.01629 4.41788 9.19588 4.41788 9.383C4.41771 9.57011 4.34607 9.74952 4.21864 9.88186C4.0912 10.0142 3.91842 10.0886 3.73821 10.0887ZM18.011 10.0887C17.8308 10.0887 17.6579 10.0144 17.5304 9.88203C17.403 9.74971 17.3314 9.57013 17.3314 9.383C17.3314 9.19588 17.403 9.01631 17.5304 8.88397C17.6579 8.75163 17.8308 8.67726 18.011 8.67726C18.1912 8.67726 18.3642 8.75165 18.4916 8.88397C18.6191 9.01629 18.6907 9.19588 18.6907 9.383C18.6905 9.57011 18.6189 9.74952 18.4914 9.88186C18.364 10.0142 18.1912 10.0886 18.011 10.0887ZM20.3898 8.32442C20.3839 8.43889 20.3291 8.54461 20.2405 8.61287C20.1516 8.68113 20.0382 8.70476 19.931 8.67728C19.7432 8.12367 19.3422 7.6759 18.8239 7.44156C18.3055 7.20718 17.7166 7.20718 17.1984 7.44156C16.68 7.67593 16.2788 8.12367 16.0911 8.67728H5.658C5.47022 8.12367 5.06918 7.6759 4.55087 7.44156C4.03252 7.20718 3.44357 7.20718 2.92539 7.44156C2.40704 7.67593 2.00585 8.12367 1.81809 8.67728C1.71088 8.70476 1.59744 8.68113 1.50877 8.61287C1.41994 8.54461 1.36515 8.43889 1.35925 8.32442V6.61663C1.35892 6.45805 1.41016 6.30384 1.50473 6.17922C1.59929 6.05478 1.73161 5.96708 1.88029 5.9305L5.04089 5.14864H15.9719C16.2147 5.14864 16.4392 5.01404 16.5606 4.79577C16.682 4.57733 16.682 4.3083 16.5606 4.09004C16.4392 3.8716 16.2147 3.73717 15.9719 3.73717H14.2728V3.38431C14.2728 3.13208 14.1433 2.89912 13.933 2.77307C13.7226 2.64703 13.4637 2.64705 13.2533 2.77307C13.0429 2.8991 12.9135 3.13206 12.9135 3.38431V3.73717H8.65974C8.93281 3.53326 9.1897 3.30729 9.42824 3.06101C10.4422 2.00205 11.8221 1.40816 13.2601 1.41184C13.4683 1.40816 14.3969 1.47432 14.6201 1.48482C15.9558 1.55974 17.2175 2.14503 18.1625 3.12804L18.4106 3.38569H18.4105C18.8464 3.83534 19.4355 4.08847 20.0499 4.09003C20.2376 4.09021 20.3896 4.24809 20.3898 4.4429L20.3898 8.32442Z" fill="#151820"/>
</svg>
