<svg width="20" height="13" viewBox="0 0 20 13" fill="none" xmlns="http://www.w3.org/2000/svg">
<path fill-rule="evenodd" clip-rule="evenodd" d="M19.9344 1.68236C19.9344 1.04932 19.4568 0.536133 18.8677 0.536133L17.801 0.536133C17.2119 0.536133 16.7344 1.04932 16.7344 1.68236V11.6163C16.7344 12.2494 17.2119 12.7625 17.801 12.7625H18.8677C19.4568 12.7625 19.9344 12.2494 19.9344 11.6163V1.68236ZM12.5003 2.98141H13.5669C14.156 2.98141 14.6336 3.50691 14.6336 4.15515V11.5888C14.6336 12.237 14.156 12.7625 13.5669 12.7625H12.5003C11.9112 12.7625 11.4336 12.237 11.4336 11.5888V4.15515C11.4336 3.50691 11.9112 2.98141 12.5003 2.98141ZM8.16849 5.63046H7.10182C6.51272 5.63046 6.03516 6.16265 6.03516 6.81914V11.5739C6.03516 12.2303 6.51272 12.7625 7.10182 12.7625H8.16849C8.75759 12.7625 9.23516 12.2303 9.23516 11.5739V6.81914C9.23516 6.16265 8.75759 5.63046 8.16849 5.63046ZM2.86771 8.07576H1.80104C1.21194 8.07576 0.734375 8.60034 0.734375 9.24745L0.734375 11.5909C0.734375 12.238 1.21194 12.7625 1.80104 12.7625H2.86771C3.45681 12.7625 3.93438 12.238 3.93438 11.5909V9.24745C3.93438 8.60034 3.45681 8.07576 2.86771 8.07576Z" fill="#151820"/>
</svg>
