<svg width="24" height="30" viewBox="0 0 24 30" fill="none" xmlns="http://www.w3.org/2000/svg">
<path d="M1.5 11.8843C1.5 19.162 7.86671 25.1804 10.6848 27.4878C11.0881 27.818 11.2922 27.9851 11.5931 28.0699C11.8274 28.1358 12.1722 28.1358 12.4065 28.0699C12.708 27.985 12.9106 27.8195 13.3154 27.488C16.1335 25.1806 22.4999 19.1627 22.4999 11.8849C22.4999 9.13077 21.3937 6.48908 19.4246 4.54158C17.4554 2.59409 14.7849 1.5 12.0001 1.5C9.21535 1.5 6.54451 2.59425 4.57538 4.54175C2.60625 6.48924 1.5 9.13011 1.5 11.8843Z" stroke="black" stroke-width="2" stroke-linecap="round" stroke-linejoin="round"/>
<path d="M9 10.5C9 12.1569 10.3431 13.5 12 13.5C13.6569 13.5 15 12.1569 15 10.5C15 8.84315 13.6569 7.5 12 7.5C10.3431 7.5 9 8.84315 9 10.5Z" stroke="black" stroke-width="2" stroke-linecap="round" stroke-linejoin="round"/>
</svg>
