<svg width="23" height="15" viewBox="0 0 23 15" fill="none" xmlns="http://www.w3.org/2000/svg">
<path fill-rule="evenodd" clip-rule="evenodd" d="M1.96531 7.41321C2.59086 8.48116 3.72006 9.94221 5.2533 11.1879C6.93641 12.5554 9.06576 13.6316 11.5177 13.6931C13.9523 13.7541 16.0686 12.713 17.7471 11.3308C19.2851 10.0644 20.418 8.54099 21.0427 7.42064C20.4418 6.37565 19.3411 4.926 17.8204 3.69938C16.1522 2.35379 14.0147 1.30435 11.5019 1.30435C8.98897 1.30435 6.8515 2.35379 5.1833 3.69938C3.66618 4.9231 2.56712 6.36879 1.96531 7.41321ZM4.38468 2.67794C6.21052 1.20521 8.62118 0 11.5019 0C14.3825 0 16.7932 1.20521 18.619 2.67794C20.4401 4.14684 21.7154 5.90948 22.3425 7.11059L22.5 7.41217L22.3457 7.71547C21.6931 8.99872 20.3865 10.8366 18.5558 12.3441C16.7216 13.8544 14.3165 15.068 11.486 14.997C8.67281 14.9265 6.28078 13.6931 4.45113 12.2065C2.62467 10.7225 1.31809 8.95461 0.663732 7.72655L0.5 7.41927L0.661163 7.11059C1.28827 5.90948 2.5636 4.14684 4.38468 2.67794Z" fill="#828282"/>
<path fill-rule="evenodd" clip-rule="evenodd" d="M11.5018 10.2717C13.0089 10.2717 14.2307 9.0307 14.2307 7.49991C14.2307 5.96912 13.0089 4.72818 11.5018 4.72818C9.99471 4.72818 8.77295 5.96912 8.77295 7.49991C8.77295 9.0307 9.99471 10.2717 11.5018 10.2717ZM11.5018 11.576C13.7182 11.576 15.5149 9.75107 15.5149 7.49991C15.5149 5.24875 13.7182 3.42383 11.5018 3.42383C9.28548 3.42383 7.48877 5.24875 7.48877 7.49991C7.48877 9.75107 9.28548 11.576 11.5018 11.576Z" fill="#828282"/>
</svg>
