<svg width="22" height="15" viewBox="0 0 22 15" fill="none" xmlns="http://www.w3.org/2000/svg">
<path fill-rule="evenodd" clip-rule="evenodd" d="M2.25971 7.37869C2.83313 8.35765 3.86823 9.69694 5.2737 10.8389C6.81655 12.0924 8.76845 13.0789 11.0161 13.1353C13.2478 13.1912 15.1877 12.2369 16.7264 10.9699C18.1362 9.80898 19.1747 8.41249 19.7473 7.3855C19.1965 6.4276 18.1875 5.09875 16.7935 3.97435C15.2644 2.7409 13.305 1.7789 11.0015 1.7789C8.69806 1.7789 6.73872 2.7409 5.20953 3.97435C3.81884 5.09609 2.81137 6.42131 2.25971 7.37869ZM4.47746 3.03803C6.15114 1.68802 8.36092 0.583252 11.0015 0.583252C13.6421 0.583252 15.8519 1.68802 17.5256 3.03803C19.1949 4.38452 20.364 6.00027 20.9388 7.10129L21.0832 7.37775L20.9418 7.65576C20.3435 8.83208 19.1458 10.5168 17.4677 11.8986C15.7863 13.2831 13.5817 14.3956 10.987 14.3305C8.40825 14.2659 6.21556 13.1352 4.53837 11.7725C2.86412 10.4122 1.66642 8.79165 1.06659 7.66592L0.916504 7.38425L1.06424 7.10129C1.63908 6.00027 2.80814 4.38452 4.47746 3.03803Z" fill="#151820"/>
<path fill-rule="evenodd" clip-rule="evenodd" d="M11.0014 9.99909C12.3829 9.99909 13.5029 8.86156 13.5029 7.45834C13.5029 6.05511 12.3829 4.91758 11.0014 4.91758C9.61986 4.91758 8.49992 6.05511 8.49992 7.45834C8.49992 8.86156 9.61986 9.99909 11.0014 9.99909ZM11.0014 11.1947C13.033 11.1947 14.68 9.5219 14.68 7.45834C14.68 5.39477 13.033 3.72192 11.0014 3.72192C8.96974 3.72192 7.32275 5.39477 7.32275 7.45834C7.32275 9.5219 8.96974 11.1947 11.0014 11.1947Z" fill="#151820"/>
</svg>
