<svg width="30" height="26" viewBox="0 0 30 26" fill="none" xmlns="http://www.w3.org/2000/svg">
<path d="M14.9993 25.8666C14.586 25.8666 14.186 25.8133 13.8527 25.6933C8.75935 23.9466 0.666016 17.7466 0.666016 8.58663C0.666016 3.91997 4.43935 0.133301 9.07935 0.133301C11.3327 0.133301 13.4393 1.0133 14.9993 2.58663C16.5593 1.0133 18.666 0.133301 20.9193 0.133301C25.5594 0.133301 29.3327 3.9333 29.3327 8.58663C29.3327 17.76 21.2393 23.9466 16.146 25.6933C15.8127 25.8133 15.4127 25.8666 14.9993 25.8666ZM9.07935 2.1333C5.54602 2.1333 2.66602 5.02663 2.66602 8.58663C2.66602 17.6933 11.426 22.76 14.506 23.8133C14.746 23.8933 15.266 23.8933 15.506 23.8133C18.5727 22.76 27.346 17.7066 27.346 8.58663C27.346 5.02663 24.466 2.1333 20.9327 2.1333C18.906 2.1333 17.026 3.07997 15.8127 4.71997C15.4393 5.22663 14.586 5.22663 14.2127 4.71997C12.9727 3.06663 11.106 2.1333 9.07935 2.1333Z" fill="#292D32"/>
</svg>
