<svg width="40" height="40" viewBox="0 0 40 40" fill="none" xmlns="http://www.w3.org/2000/svg">
<path d="M15 33.3333C15 34.2538 15.7462 35 16.6667 35H23.3333C24.2538 35 25 34.2538 25 33.3333V25L33.3333 25C34.2538 25 35 24.2538 35 23.3333V16.6667C35 15.7462 34.2538 15 33.3333 15H25L25 6.66667C25 5.74619 24.2538 5 23.3333 5H16.6667C15.7462 5 15 5.74619 15 6.66667V15H6.66667C5.74619 15 5 15.7462 5 16.6667V23.3333C5 24.2538 5.74619 25 6.66667 25H15V33.3333Z" stroke="black" stroke-width="2" stroke-linecap="round" stroke-linejoin="round"/>
</svg>
