<svg width="14" height="13" viewBox="0 0 14 13" fill="none" xmlns="http://www.w3.org/2000/svg">
<path d="M7 12.7457C6.79814 12.7457 6.60279 12.7199 6.44 12.6619C3.95256 11.8172 0 8.81894 0 4.38924C0 2.13247 1.84279 0.30127 4.10884 0.30127C5.2093 0.30127 6.23814 0.726831 7 1.48768C7.76186 0.726831 8.7907 0.30127 9.89116 0.30127C12.1572 0.30127 14 2.13892 14 4.38924C14 8.82539 10.0474 11.8172 7.56 12.6619C7.39721 12.7199 7.20186 12.7457 7 12.7457ZM4.10884 1.26845C2.38326 1.26845 0.976744 2.66765 0.976744 4.38924C0.976744 8.79315 5.25488 11.2434 6.75907 11.7527C6.87628 11.7914 7.13023 11.7914 7.24744 11.7527C8.74512 11.2434 13.0298 8.7996 13.0298 4.38924C13.0298 2.66765 11.6233 1.26845 9.89768 1.26845C8.90791 1.26845 7.98977 1.72626 7.39721 2.51935C7.21488 2.76437 6.79814 2.76437 6.61581 2.51935C6.01023 1.71981 5.0986 1.26845 4.10884 1.26845Z" fill="#151820"/>
</svg>
