<svg width="20" height="20" viewBox="0 0 20 20" fill="none" xmlns="http://www.w3.org/2000/svg">
<path d="M7.4987 8.95833C6.23203 8.95833 5.20703 7.93333 5.20703 6.66667C5.20703 5.4 6.23203 4.375 7.4987 4.375C8.76536 4.375 9.79036 5.4 9.79036 6.66667C9.79036 7.93333 8.76536 8.95833 7.4987 8.95833ZM7.4987 5.625C6.9237 5.625 6.45703 6.09167 6.45703 6.66667C6.45703 7.24167 6.9237 7.70833 7.4987 7.70833C8.0737 7.70833 8.54036 7.24167 8.54036 6.66667C8.54036 6.09167 8.0737 5.625 7.4987 5.625Z" fill="white"/>
<path d="M12.5013 18.9596H7.5013C2.9763 18.9596 1.04297 17.0263 1.04297 12.5013V7.5013C1.04297 2.9763 2.9763 1.04297 7.5013 1.04297H10.8346C11.1763 1.04297 11.4596 1.3263 11.4596 1.66797C11.4596 2.00964 11.1763 2.29297 10.8346 2.29297H7.5013C3.65964 2.29297 2.29297 3.65964 2.29297 7.5013V12.5013C2.29297 16.343 3.65964 17.7096 7.5013 17.7096H12.5013C16.343 17.7096 17.7096 16.343 17.7096 12.5013V8.33464C17.7096 7.99297 17.993 7.70964 18.3346 7.70964C18.6763 7.70964 18.9596 7.99297 18.9596 8.33464V12.5013C18.9596 17.0263 17.0263 18.9596 12.5013 18.9596Z" fill="white"/>
<path d="M13.0597 8.12682C12.7347 8.12682 12.4347 8.01015 12.218 7.78515C11.9597 7.52682 11.8347 7.14349 11.893 6.75182L12.0597 5.59349C12.1014 5.30182 12.2764 4.94349 12.493 4.73515L15.518 1.71015C16.7264 0.501821 17.7764 1.19349 18.293 1.71015C18.7847 2.20182 19.0097 2.71849 18.9597 3.25182C18.918 3.67682 18.7014 4.08515 18.293 4.48515L15.268 7.51015C15.0597 7.71849 14.7014 7.89349 14.4097 7.94349L13.2514 8.11015C13.1847 8.12682 13.118 8.12682 13.0597 8.12682ZM16.393 2.60182L13.368 5.62682C13.343 5.65182 13.3014 5.74349 13.293 5.78515L13.1347 6.86849L14.2264 6.71849C14.2597 6.71015 14.3514 6.66849 14.3847 6.63515L17.4097 3.61015C17.593 3.42682 17.7014 3.26015 17.7097 3.13515C17.7264 2.96015 17.5514 2.74349 17.4097 2.60182C16.9764 2.16849 16.7764 2.21849 16.393 2.60182Z" fill="white"/>
<path d="M17.4169 5.1083C17.3586 5.1083 17.3002 5.09997 17.2502 5.0833C16.1336 4.76663 15.2419 3.87497 14.9252 2.7583C14.8336 2.42497 15.0252 2.0833 15.3586 1.99163C15.6919 1.89997 16.0336 2.09163 16.1252 2.42497C16.3252 3.12497 16.8836 3.69163 17.5919 3.89163C17.9252 3.9833 18.1169 4.3333 18.0252 4.6583C17.9336 4.92497 17.6836 5.1083 17.4169 5.1083Z" fill="white"/>
<path d="M2.22443 16.4148C2.02443 16.4148 1.82443 16.3148 1.70776 16.1398C1.5161 15.8565 1.5911 15.4648 1.87443 15.2732L5.98276 12.5148C6.88276 11.9148 8.12443 11.9815 8.9411 12.6732L9.2161 12.9148C9.63276 13.2732 10.3411 13.2732 10.7494 12.9148L14.2161 9.93984C15.0994 9.18151 16.4911 9.18151 17.3828 9.93984L18.7411 11.1065C18.9994 11.3315 19.0328 11.7232 18.8078 11.9898C18.5828 12.2482 18.1911 12.2815 17.9244 12.0565L16.5661 10.8898C16.1494 10.5315 15.4411 10.5315 15.0328 10.8898L11.5661 13.8648C10.6828 14.6232 9.2911 14.6232 8.39943 13.8648L8.12443 13.6232C7.7411 13.2982 7.10776 13.2648 6.68276 13.5565L2.58276 16.3148C2.4661 16.3815 2.3411 16.4148 2.22443 16.4148Z" fill="white"/>
</svg>
