<svg width="25" height="24" viewBox="0 0 25 24" fill="none" xmlns="http://www.w3.org/2000/svg">
<path d="M12.5 4.64C14.7534 4.64 16.2734 5.61333 17.14 6.42667L20.5267 3.12C18.4467 1.18667 15.74 0 12.5 0C7.8067 0 3.75336 2.69333 1.78003 6.61333L5.66003 9.62667C6.63336 6.73333 9.3267 4.64 12.5 4.64Z" fill="#EA4335"/>
<path d="M24.02 12.2666C24.02 11.2799 23.94 10.5599 23.7667 9.81323H12.5V14.2666H19.1133C18.98 15.3732 18.26 17.0399 16.66 18.1599L20.4467 21.0932C22.7133 18.9999 24.02 15.9199 24.02 12.2666Z" fill="#4285F4"/>
<path d="M5.67333 14.3733C5.42 13.6266 5.27333 12.8266 5.27333 11.9999C5.27333 11.1733 5.42 10.3733 5.66 9.62661L1.78 6.61328C0.966667 8.23995 0.5 10.0666 0.5 11.9999C0.5 13.9333 0.966667 15.7599 1.78 17.3866L5.67333 14.3733Z" fill="#FBBC05"/>
<path d="M12.5001 24C15.7401 24 18.4601 22.9333 20.4468 21.0933L16.6601 18.16C15.6468 18.8666 14.2868 19.36 12.5001 19.36C9.32679 19.36 6.63346 17.2666 5.67346 14.3733L1.79346 17.3866C3.76679 21.3066 7.80679 24 12.5001 24Z" fill="#34A853"/>
</svg>
