<svg width="50" height="50" viewBox="0 0 50 50" fill="none" xmlns="http://www.w3.org/2000/svg">
<path d="M16.4609 12.3211L27.7301 15.3406M38.9992 18.3602L27.7301 15.3406M27.7301 15.3406C28.3771 12.9258 30.634 10.9424 31.6547 10.3531M35.6639 24.3681C35.4257 25.2573 34.5118 25.7849 33.6227 25.5467C32.7336 25.3084 32.2059 24.3945 32.4442 23.5054C32.6824 22.6163 33.5963 22.0887 34.4854 22.3269C35.3745 22.5651 35.9021 23.479 35.6639 24.3681ZM27.6145 22.2113C27.3763 23.1004 26.4624 23.6281 25.5733 23.3898C24.6842 23.1516 24.1565 22.2377 24.3948 21.3486C24.633 20.4595 25.5469 19.9318 26.436 20.1701C27.3251 20.4083 27.8528 21.3222 27.6145 22.2113ZM19.5651 20.0545C19.3269 20.9436 18.413 21.4712 17.5239 21.233C16.6348 20.9948 16.1072 20.0809 16.3454 19.1918C16.5836 18.3027 17.4975 17.775 18.3866 18.0133C19.2757 18.2515 19.8034 19.1654 19.5651 20.0545ZM21.433 29.1823C21.1948 30.0714 20.2809 30.599 19.3918 30.3608C18.5027 30.1226 17.975 29.2087 18.2133 28.3196C18.4515 27.4304 19.3654 26.9028 20.2545 27.141C21.1436 27.3793 21.6712 28.2932 21.433 29.1823ZM29.4824 31.3391C29.2442 32.2282 28.3303 32.7559 27.4412 32.5176C26.552 32.2794 26.0244 31.3655 26.2626 30.4764C26.5009 29.5873 27.4148 29.0596 28.3039 29.2979C29.193 29.5361 29.7206 30.45 29.4824 31.3391ZM23.3009 38.3101C23.0626 39.1992 22.1487 39.7268 21.2596 39.4886C20.3705 39.2504 19.8429 38.3365 20.0811 37.4474C20.3194 36.5582 21.2333 36.0306 22.1224 36.2688C23.0115 36.5071 23.5391 37.421 23.3009 38.3101Z" stroke="black" stroke-width="2" stroke-linecap="round" stroke-linejoin="round"/>
</svg>
