<svg width="40" height="40" viewBox="0 0 40 40" fill="none" xmlns="http://www.w3.org/2000/svg">
<g clip-path="url(#clip0_2343_3923)">
<path fill-rule="evenodd" clip-rule="evenodd" d="M8.83712 19.2006C10.0335 18.4789 11.4582 18.334 12.5013 18.334H28.057V20.5562H12.5013C11.6 20.5562 10.6636 20.6941 9.98496 21.1034C9.3986 21.4571 8.8902 22.0754 8.8902 23.4038C8.8902 24.2609 9.11058 24.7699 9.35623 25.0869C9.60914 25.4134 9.96578 25.635 10.393 25.78C11.1514 26.0373 11.8901 25.9981 12.2938 25.9766C12.3788 25.9721 12.449 25.9684 12.5013 25.9684H27.5014C28.4666 25.9684 29.8797 26.1171 31.0883 26.8291C32.3835 27.5921 33.3348 28.9437 33.3348 31.0382C33.3348 32.3187 32.973 33.3427 32.3633 34.1277C31.7642 34.899 30.9853 35.3633 30.2656 35.6435C29.5475 35.9229 28.847 36.0357 28.3387 36.0814C28.0813 36.1045 27.8649 36.1111 27.7091 36.1118C27.631 36.1121 27.5676 36.111 27.5212 36.1096C27.5094 36.1092 27.4988 36.1089 27.4892 36.1085C27.4842 36.1083 27.4795 36.1081 27.4752 36.1079H12.5013V33.8857L27.501 33.8857C27.5011 33.8857 27.5014 33.8857 27.5014 34.9968L27.501 33.8857C27.5218 33.8857 27.5431 33.8863 27.5638 33.8875C27.5638 33.8875 27.5639 33.8875 27.5638 33.8875M27.5653 33.8875C27.5688 33.8877 27.5763 33.888 27.5877 33.8884C27.6105 33.889 27.6485 33.8898 27.6996 33.8896C27.802 33.8892 27.9545 33.8847 28.1399 33.8681C28.517 33.8342 28.997 33.7526 29.4595 33.5726C29.9203 33.3932 30.322 33.133 30.6083 32.7645C30.884 32.4095 31.1126 31.8784 31.1126 31.0382C31.1126 29.7395 30.5851 29.1118 29.9604 28.7438C29.249 28.3247 28.301 28.1906 27.5014 28.1906H12.5013C12.5245 28.1906 11.0527 28.3504 9.67905 27.8844C8.96046 27.6406 8.18863 27.2083 7.59952 26.4479C7.00315 25.6782 6.66797 24.6673 6.66797 23.4038C6.66797 21.339 7.54847 19.9779 8.83712 19.2006" fill="#151820"/>
<path fill-rule="evenodd" clip-rule="evenodd" d="M30.0013 20.5538C30.615 20.5538 31.1124 20.0564 31.1124 19.4427C31.1124 18.8291 30.615 18.3316 30.0013 18.3316C29.3877 18.3316 28.8902 18.8291 28.8902 19.4427C28.8902 20.0564 29.3877 20.5538 30.0013 20.5538ZM30.0013 22.7761C31.8423 22.7761 33.3347 21.2837 33.3347 19.4427C33.3347 17.6018 31.8423 16.1094 30.0013 16.1094C28.1604 16.1094 26.668 17.6018 26.668 19.4427C26.668 21.2837 28.1604 22.7761 30.0013 22.7761Z" fill="#151820"/>
<path fill-rule="evenodd" clip-rule="evenodd" d="M10.0013 36.1105C10.615 36.1105 11.1124 35.613 11.1124 34.9994C11.1124 34.3857 10.615 33.8883 10.0013 33.8883C9.38767 33.8883 8.8902 34.3857 8.8902 34.9994C8.8902 35.613 9.38767 36.1105 10.0013 36.1105ZM10.0013 38.3327C11.8423 38.3327 13.3347 36.8403 13.3347 34.9994C13.3347 33.1584 11.8423 31.666 10.0013 31.666C8.16036 31.666 6.66797 33.1584 6.66797 34.9994C6.66797 36.8403 8.16036 38.3327 10.0013 38.3327Z" fill="#151820"/>
<path fill-rule="evenodd" clip-rule="evenodd" d="M19.6156 4.05638C20.4807 2.78132 21.8645 1.66602 23.732 1.66602C26.1015 1.66602 27.3438 3.55501 27.6645 4.15948C28.1228 5.02327 28.3707 5.92059 28.3317 6.96109C28.2938 7.97156 27.9875 9.04767 27.4586 10.2831C27.4531 10.296 27.4473 10.3088 27.4413 10.3215L24.7362 16.0307C24.5508 16.422 24.1551 16.6699 23.7222 16.6661C23.2893 16.6622 22.8981 16.4073 22.7197 16.0129C22.3137 15.1153 21.2044 12.7163 20.0305 10.3374C19.1627 8.57868 18.2061 6.37847 19.585 4.10416C19.5948 4.08798 19.605 4.07205 19.6156 4.05638ZM21.471 5.27996C20.7976 6.41377 21.1301 7.54381 22.0233 9.35405C22.6462 10.6163 23.2506 11.8831 23.7442 12.9343L25.4239 9.38933C25.8936 8.28838 26.0876 7.50233 26.111 6.8778C26.1335 6.27969 26.002 5.76743 25.7015 5.20095C25.4766 4.77705 24.8053 3.88825 23.732 3.88825C22.8531 3.88825 22.0791 4.39496 21.471 5.27996Z" fill="#151820"/>
<path d="M25.0004 6.94358C25.0004 7.71065 24.3786 8.33248 23.6116 8.33248C22.8445 8.33248 22.2227 7.71065 22.2227 6.94358C22.2227 6.17652 22.8445 5.55469 23.6116 5.55469C24.3786 5.55469 25.0004 6.17652 25.0004 6.94358Z" fill="#151820"/>
</g>
<defs>
<clipPath id="clip0_2343_3923">
<rect width="40" height="40" fill="white"/>
</clipPath>
</defs>
</svg>
