<svg width="15" height="15" viewBox="0 0 15 15" fill="none" xmlns="http://www.w3.org/2000/svg">
<path d="M9.80354 1.02517H9.72771C7.13771 1.02517 5.88938 2.046 5.67354 4.33267C5.65021 4.57183 5.82521 4.78767 6.07021 4.811C6.30354 4.83434 6.52521 4.6535 6.54854 4.41434C6.71771 2.58267 7.58104 1.90017 9.73354 1.90017H9.80938C12.1835 1.90017 13.0235 2.74017 13.0235 5.11433V8.91767C13.0235 11.2918 12.1835 12.1318 9.80938 12.1318H9.73354C7.56938 12.1318 6.70604 11.4377 6.54854 9.571C6.51938 9.33184 6.31521 9.151 6.07021 9.17434C5.82521 9.19184 5.65021 9.40767 5.66771 9.64684C5.86604 11.9685 7.12021 13.0068 9.72771 13.0068H9.80354C12.6677 13.0068 13.8927 11.7818 13.8927 8.91767V5.11433C13.8927 2.25017 12.6677 1.02517 9.80354 1.02517Z" fill="#292D32"/>
<path d="M9.66372 6.57861H3.02539C2.78622 6.57861 2.58789 6.77695 2.58789 7.01611C2.58789 7.25528 2.78622 7.45361 3.02539 7.45361H9.66372C9.90289 7.45361 10.1012 7.25528 10.1012 7.01611C10.1012 6.77695 9.90289 6.57861 9.66372 6.57861Z" fill="#292D32"/>
<path d="M4.32624 4.62438C4.21541 4.62438 4.10458 4.66521 4.01708 4.75271L2.06291 6.70688C1.89374 6.87604 1.89374 7.15604 2.06291 7.32521L4.01708 9.27938C4.18624 9.44854 4.46624 9.44854 4.63541 9.27938C4.80458 9.11021 4.80458 8.83021 4.63541 8.66104L2.99041 7.01604L4.63541 5.37104C4.80458 5.20188 4.80458 4.92187 4.63541 4.75271C4.55374 4.66521 4.43708 4.62438 4.32624 4.62438Z" fill="#292D32"/>
</svg>
