<svg width="85" height="72" viewBox="0 0 85 72" fill="none" xmlns="http://www.w3.org/2000/svg">
<g clip-path="url(#clip0_159_7002)">
<path fill-rule="evenodd" clip-rule="evenodd" d="M42.5443 1.69593C23.9535 1.69593 8.88092 16.8828 8.88092 35.6145C8.88092 54.3463 23.9535 69.5331 42.5443 69.5331C61.1351 69.5331 76.2077 54.3463 76.2077 35.6145C76.2077 16.8828 61.1351 1.69593 42.5443 1.69593ZM7.19775 35.6145C7.19775 15.9462 23.0239 0 42.5443 0C62.0647 0 77.8908 15.9462 77.8908 35.6145C77.8908 55.2829 62.0647 71.2291 42.5443 71.2291C23.0239 71.2291 7.19775 55.2829 7.19775 35.6145Z" fill="white"/>
<path fill-rule="evenodd" clip-rule="evenodd" d="M42.5444 2.75601C24.5336 2.75601 9.933 17.4673 9.933 35.6147C9.933 53.762 24.5336 68.4733 42.5444 68.4733C60.5552 68.4733 75.1558 53.762 75.1558 35.6147C75.1558 17.4673 60.5552 2.75601 42.5444 2.75601ZM9.51221 35.6147C9.51221 17.2332 24.3012 2.33203 42.5444 2.33203C60.7876 2.33203 75.5766 17.2332 75.5766 35.6147C75.5766 53.9961 60.7876 68.8973 42.5444 68.8973C24.3012 68.8973 9.51221 53.9961 9.51221 35.6147Z" fill="white"/>
<path fill-rule="evenodd" clip-rule="evenodd" d="M42.544 13.9909C30.6917 13.9909 21.0836 23.6718 21.0836 35.614C21.0836 47.5561 30.6917 57.2371 42.544 57.2371C54.3962 57.2371 64.0043 47.5561 64.0043 35.614C64.0043 23.6718 54.3962 13.9909 42.544 13.9909ZM19.4004 35.614C19.4004 22.7352 29.7621 12.2949 42.544 12.2949C55.3258 12.2949 65.6875 22.7352 65.6875 35.614C65.6875 48.4927 55.3258 58.933 42.544 58.933C29.7621 58.933 19.4004 48.4927 19.4004 35.614Z" fill="white"/>
<path fill-rule="evenodd" clip-rule="evenodd" d="M42.5442 11.8712C29.53 11.8712 18.9799 22.5014 18.9799 35.6143C18.9799 48.7272 29.53 59.3573 42.5442 59.3573C55.5585 59.3573 66.1086 48.7272 66.1086 35.6143C66.1086 22.5014 55.5585 11.8712 42.5442 11.8712ZM18.5591 35.6143C18.5591 22.2672 29.2976 11.4473 42.5442 11.4473C55.7909 11.4473 66.5294 22.2672 66.5294 35.6143C66.5294 48.9613 55.7909 59.7813 42.5442 59.7813C29.2976 59.7813 18.5591 48.9613 18.5591 35.6143Z" fill="white"/>
<path d="M82.4752 25.0762H2.52475C1.13037 25.0762 0 26.2151 0 27.6201V44.7914C0 46.1963 1.13037 47.3353 2.52475 47.3353H82.4752C83.8696 47.3353 85 46.1963 85 44.7914V27.6201C85 26.2151 83.8696 25.0762 82.4752 25.0762Z" fill="#F4C031"/>
<path d="M17.1113 50.7547L19.0596 49.6291L18.6178 48.851L19.0343 48.6094L20.1831 50.6297L19.7665 50.8713L19.3247 50.0933L17.3764 51.219L17.1113 50.7526V50.7547Z" fill="white"/>
<path d="M18.1193 52.461L20.3432 50.8711L21.0312 51.8505C21.048 51.8738 21.0669 51.9035 21.0922 51.9438C21.1174 51.984 21.1385 52.0201 21.1532 52.054C21.231 52.2066 21.2668 52.3529 21.2626 52.4886C21.2584 52.6243 21.2205 52.7515 21.1469 52.8638C21.0733 52.9762 20.9765 53.08 20.8523 53.1691C20.6651 53.3026 20.4715 53.3684 20.2716 53.3662C20.0718 53.3662 19.8824 53.2708 19.7078 53.0864L19.5584 52.902L19.1776 52.3614L18.4244 52.8998L18.1172 52.461H18.1193ZM19.0387 53.769L19.6215 52.6645L20.0213 53.0546L19.3859 54.263L19.0366 53.7669H19.0387V53.769ZM19.5731 52.0837L19.9392 52.6052C19.956 52.6285 19.9729 52.6518 19.9939 52.6773C20.015 52.7027 20.036 52.7239 20.0591 52.743C20.1159 52.7917 20.1749 52.8172 20.2338 52.8235C20.2927 52.8299 20.3495 52.8235 20.4021 52.8023C20.4547 52.7833 20.5031 52.7578 20.5431 52.7303C20.583 52.7027 20.6209 52.6645 20.6567 52.62C20.6924 52.5755 20.7177 52.5246 20.7324 52.4653C20.7471 52.408 20.7408 52.3423 20.7135 52.2724C20.703 52.2448 20.6903 52.2172 20.6735 52.1897C20.6567 52.1621 20.6398 52.1367 20.6251 52.1134L20.259 51.5919L19.5731 52.0816V52.0837Z" fill="white"/>
<path d="M19.6763 54.6433L22.2978 53.4922L22.8196 54.0964L21.33 56.5555L20.9702 56.14L22.2789 53.9649L22.3462 54.0434L20.036 55.0609L19.6763 54.6433ZM20.4442 54.6603L20.8061 54.3423L21.7844 55.4722L21.4226 55.7902L20.4442 54.6603Z" fill="white"/>
<path d="M21.9819 57.1895L23.2506 54.6074L23.6462 54.9911L22.6005 57.111L24.6708 55.9832L25.0663 56.367L22.5542 57.7449L21.9819 57.1895Z" fill="white"/>
<path d="M23.5791 58.6784L25.2833 56.5352L26.7203 57.6947L26.4194 58.0721L25.399 57.2474L25.035 57.7053L25.8724 58.3816L25.5716 58.7589L24.7342 58.0827L24.2966 58.6339L25.317 59.4585L25.0161 59.8359L23.5791 58.6763V58.6784Z" fill="white"/>
<path d="M25.5947 60.2592L27.1201 57.9824L27.5619 58.2834L26.3059 60.1596L27.3116 60.8443L27.0423 61.245L25.5947 60.2592Z" fill="white"/>
<path d="M28.5464 60.9691L28.7378 60.6172L29.7688 61.1853L29.5773 61.5372L28.5464 60.9691Z" fill="white"/>
<path d="M31.6601 63.6688C31.3992 63.5607 31.1951 63.4144 31.052 63.2257C30.9089 63.0371 30.8248 62.823 30.8016 62.5813C30.7806 62.3396 30.8227 62.0874 30.93 61.8245C31.0373 61.5616 31.1804 61.3496 31.3634 61.1927C31.5464 61.0359 31.7547 60.9405 31.9883 60.9066C32.2218 60.8726 32.4701 60.9108 32.731 61.0168C33.0318 61.1397 33.2528 61.3157 33.3979 61.5447C33.5431 61.7736 33.6083 62.028 33.5915 62.3099L33.0403 62.24C33.055 62.0662 33.0213 61.9135 32.9414 61.78C32.8614 61.6485 32.731 61.5447 32.5479 61.4705C32.3817 61.4026 32.2302 61.3814 32.0893 61.409C31.9483 61.4365 31.8263 61.5023 31.7169 61.6104C31.6075 61.7185 31.5191 61.8605 31.4476 62.0365C31.376 62.2124 31.3424 62.3778 31.3445 62.5325C31.3466 62.6873 31.3886 62.8208 31.4707 62.9396C31.5528 63.0561 31.6769 63.1494 31.841 63.2173C32.0219 63.2915 32.1881 63.3084 32.3375 63.2703C32.4869 63.2321 32.6174 63.1452 32.7268 63.0116L33.1686 63.3508C32.9855 63.5628 32.7625 63.7006 32.4995 63.7621C32.2365 63.8236 31.9567 63.7918 31.6558 63.6688H31.6601Z" fill="white"/>
<path d="M34.6605 64.714C34.3891 64.6356 34.1724 64.5105 34.0083 64.3388C33.8442 64.1671 33.739 63.9615 33.6927 63.724C33.6464 63.4866 33.6612 63.2301 33.739 62.9566C33.8169 62.6832 33.9389 62.4584 34.103 62.2825C34.2671 62.1065 34.4649 61.9899 34.6942 61.9327C34.9235 61.8755 35.1739 61.8861 35.4453 61.9645C35.7167 62.0429 35.9334 62.168 36.0976 62.3397C36.2617 62.5114 36.3669 62.7171 36.4131 62.9545C36.4594 63.1919 36.4447 63.4484 36.3669 63.7219C36.289 63.9954 36.167 64.2201 36.0029 64.396C35.8388 64.572 35.641 64.6886 35.4117 64.7458C35.1823 64.8031 34.932 64.7925 34.6605 64.714ZM34.7952 64.2455C34.9656 64.2985 35.1192 64.3028 35.256 64.2625C35.3906 64.2201 35.5063 64.1395 35.6031 64.0187C35.6999 63.8979 35.7735 63.7474 35.8261 63.5629C35.8787 63.3785 35.8956 63.2131 35.8766 63.0605C35.8577 62.91 35.803 62.7807 35.7083 62.6726C35.6136 62.5644 35.4832 62.4839 35.3128 62.433C35.1424 62.38 34.9888 62.3758 34.852 62.416C34.7174 62.4584 34.6016 62.539 34.5049 62.6577C34.4081 62.7786 34.3344 62.9291 34.2818 63.1135C34.2292 63.2958 34.2124 63.4633 34.2313 63.6159C34.2503 63.7664 34.305 63.8957 34.3997 64.0039C34.4922 64.112 34.6248 64.1904 34.7952 64.2434V64.2455Z" fill="white"/>
<path d="M36.6152 65.1738L37.0928 62.4688L37.6251 62.5641L38.5151 64.5844L38.8328 62.7804L39.3651 62.8758L38.8875 65.5808L38.3552 65.4854L37.4652 63.4651L37.1475 65.2692L36.6152 65.1738Z" fill="white"/>
<path d="M39.668 65.6803L39.8721 62.9414L40.4107 62.9817L41.4984 64.9002L41.6331 63.0728L42.1717 63.1131L41.9676 65.852L41.429 65.8118L40.3412 63.8932L40.2066 65.7206L39.668 65.6803Z" fill="white"/>
<path d="M42.7419 65.863L42.6978 63.1156L44.5387 63.0859L44.5471 63.5714L43.2385 63.5926L43.2469 64.1798L44.3199 64.1629L44.3283 64.6483L43.2553 64.6653L43.2658 65.3712L44.5745 65.35L44.5829 65.8355L42.7419 65.8651V65.863Z" fill="white"/>
<path d="M46.3858 65.7383C46.106 65.768 45.8577 65.7341 45.641 65.6366C45.4264 65.539 45.2518 65.3885 45.1192 65.1871C44.9867 64.9857 44.9067 64.742 44.8773 64.4579C44.8478 64.1738 44.8773 63.9194 44.9636 63.6947C45.0519 63.47 45.1908 63.2856 45.3801 63.1457C45.5716 63.0057 45.8072 62.921 46.0871 62.8913C46.409 62.8574 46.6867 62.9061 46.9223 63.0397C47.158 63.1711 47.3326 63.3661 47.4504 63.6226L46.9329 63.824C46.8634 63.665 46.7624 63.5442 46.6299 63.4658C46.4973 63.3873 46.3332 63.3577 46.1376 63.3789C45.9587 63.3979 45.8157 63.4509 45.7041 63.5421C45.5926 63.6311 45.5148 63.7498 45.4706 63.8961C45.4264 64.0424 45.4138 64.212 45.4327 64.4007C45.4517 64.5914 45.5001 64.7526 45.5737 64.8861C45.6473 65.0197 45.7483 65.1193 45.8746 65.185C46.0008 65.2507 46.1544 65.2719 46.3311 65.2529C46.5268 65.2317 46.6804 65.1702 46.794 65.0642C46.9076 64.9582 46.9812 64.8204 47.017 64.6508L47.5662 64.7377C47.5051 65.0133 47.3726 65.2401 47.1685 65.4182C46.9665 65.5963 46.7035 65.7023 46.3816 65.7383H46.3858Z" fill="white"/>
<path d="M48.9463 65.2965L48.5023 63.0791L47.6313 63.2571L47.5366 62.7823L49.8026 62.3223L49.8973 62.7971L49.0262 62.9752L49.4702 65.1926L48.9484 65.2986H48.9463V65.2965Z" fill="white"/>
<path d="M51.2521 63.7157L51.1343 63.332L52.2578 62.9844L52.3756 63.3681L51.2521 63.7157Z" fill="white"/>
<path d="M54.2082 63.7863L53.1226 61.2657L53.9599 60.8989C53.981 60.8905 54.0231 60.8714 54.0862 60.8459C54.1493 60.8184 54.2124 60.7972 54.2755 60.7781C54.4943 60.7124 54.7005 60.7039 54.8962 60.759C55.0919 60.812 55.2644 60.9116 55.418 61.0579C55.5716 61.2042 55.6936 61.3844 55.7862 61.5985C55.8787 61.8126 55.925 62.0246 55.9271 62.2387C55.9271 62.4507 55.883 62.6479 55.7883 62.8281C55.6936 63.0082 55.5463 63.1566 55.3485 63.2711C55.2938 63.3029 55.2328 63.3347 55.1697 63.3644C55.1066 63.3941 55.0645 63.4132 55.0456 63.4216L54.2082 63.7884V63.7863ZM54.5112 63.1185L54.852 62.9701C54.8836 62.9552 54.9278 62.9362 54.9825 62.9107C55.0372 62.8853 55.0835 62.8577 55.1255 62.8302C55.2286 62.7581 55.2981 62.6669 55.3359 62.5567C55.3717 62.4443 55.3843 62.3256 55.3696 62.1963C55.3549 62.067 55.3212 61.9441 55.2707 61.8232C55.216 61.6981 55.1466 61.5858 55.0624 61.4883C54.9782 61.3907 54.8836 61.3187 54.7784 61.272C54.6732 61.2254 54.5617 61.2148 54.4438 61.2424C54.3955 61.253 54.3429 61.2699 54.2882 61.2911C54.2334 61.3144 54.1893 61.3335 54.1556 61.3462L53.8148 61.4967L54.5154 63.1206H54.5112V63.1185Z" fill="white"/>
<path d="M56.9476 62.5215L55.6831 60.0879L56.1544 59.8398L57.4189 62.2735L56.9476 62.5215Z" fill="white"/>
<path d="M59.0475 61.3947C58.8687 61.5049 58.6898 61.5749 58.511 61.6024C58.3322 61.63 58.1596 61.6151 57.9976 61.5579C57.8356 61.5007 57.6947 61.401 57.5747 61.2569L58.006 60.8944C58.1218 61.0089 58.2543 61.0682 58.4016 61.0767C58.551 61.0852 58.6919 61.047 58.8245 60.9643C58.8981 60.9177 58.9654 60.8626 59.0201 60.7947C59.0749 60.7269 59.1127 60.6591 59.1317 60.587C59.1506 60.5149 59.138 60.445 59.098 60.3814C59.0833 60.358 59.0664 60.3368 59.0454 60.3199C59.0244 60.3029 58.9991 60.2881 58.9718 60.2796C58.9444 60.2711 58.9086 60.2669 58.8666 60.269C58.8245 60.269 58.7782 60.2796 58.7214 60.2944L57.9892 60.5022C57.9345 60.5191 57.8693 60.534 57.7935 60.5467C57.7178 60.5615 57.6357 60.5637 57.5516 60.5552C57.4674 60.5467 57.3833 60.517 57.2991 60.4683C57.2171 60.4195 57.1413 60.339 57.0719 60.2266C56.9751 60.0697 56.9372 59.915 56.9541 59.7602C56.9709 59.6055 57.0319 59.4613 57.1371 59.3256C57.2423 59.19 57.377 59.0734 57.5411 58.9716C57.7073 58.872 57.8735 58.8063 58.0355 58.7787C58.1975 58.7511 58.3532 58.7617 58.5047 58.8084C58.6562 58.855 58.7929 58.9398 58.9213 59.0607L58.4815 59.4465C58.4184 59.3808 58.3448 59.3384 58.2669 59.315C58.1891 59.2917 58.107 59.2896 58.0229 59.3023C57.9408 59.3172 57.863 59.3447 57.7893 59.3871C57.7178 59.4295 57.6568 59.4804 57.6063 59.5397C57.5558 59.5991 57.5242 59.6627 57.5095 59.7263C57.4948 59.7899 57.5032 59.8514 57.5369 59.9065C57.5684 59.9574 57.6105 59.9892 57.661 60.0019C57.7136 60.0146 57.7683 60.0146 57.8293 60.0019C57.8903 59.9913 57.9492 59.9765 58.0081 59.9574L58.4921 59.809C58.5636 59.7857 58.6456 59.7645 58.7382 59.7454C58.8308 59.7242 58.9255 59.7157 59.0244 59.7199C59.1232 59.7242 59.2179 59.7496 59.3105 59.7984C59.4031 59.8471 59.4851 59.9298 59.5567 60.0485C59.6345 60.1736 59.6745 60.3008 59.6766 60.428C59.6808 60.5552 59.6555 60.6781 59.6008 60.7947C59.5482 60.9135 59.4725 61.0216 59.3757 61.1233C59.2789 61.2251 59.1695 61.3141 59.0475 61.3904V61.3947Z" fill="white"/>
<path d="M61.5304 59.6711C61.3073 59.845 61.078 59.9446 60.8424 59.9764C60.6088 60.0061 60.3816 59.97 60.1649 59.8683C59.9482 59.7665 59.7525 59.6012 59.58 59.3743C59.4075 59.1475 59.3002 58.9164 59.2581 58.6769C59.216 58.4373 59.2391 58.2084 59.3296 57.99C59.4201 57.7696 59.5758 57.5745 59.8009 57.4007C60.0576 57.2014 60.3206 57.0976 60.5899 57.087C60.8592 57.0764 61.1096 57.1484 61.3431 57.3074L61.0044 57.7505C60.8634 57.6509 60.714 57.6021 60.5604 57.6042C60.4068 57.6063 60.2512 57.6678 60.0955 57.7886C59.9524 57.8989 59.8577 58.0197 59.8093 58.1554C59.7609 58.2911 59.7567 58.431 59.7925 58.5815C59.8304 58.7299 59.9061 58.8804 60.0218 59.033C60.1375 59.1835 60.2617 59.298 60.3942 59.3722C60.5268 59.4464 60.6635 59.4782 60.8066 59.4676C60.9476 59.457 61.0906 59.3955 61.2316 59.2853C61.3873 59.1645 61.4862 59.0309 61.5283 58.8804C61.5703 58.7299 61.5619 58.5751 61.5051 58.4119L62.0185 58.1978C62.1089 58.4649 62.1132 58.7278 62.0332 58.9864C61.9533 59.245 61.7849 59.474 61.5262 59.6732H61.5304V59.6711Z" fill="white"/>
<path d="M63.9456 57.5865C63.7415 57.7816 63.5248 57.9088 63.2954 57.9639C63.0661 58.019 62.8368 58.0084 62.6095 57.93C62.3823 57.8515 62.1719 57.7095 61.9763 57.5017C61.7806 57.2961 61.6501 57.0756 61.5828 56.8446C61.5155 56.6135 61.5134 56.3824 61.5807 56.1535C61.6459 55.9245 61.7806 55.7125 61.9847 55.5154C62.1887 55.3182 62.4055 55.1931 62.6348 55.138C62.8641 55.0829 63.0934 55.0935 63.3207 55.172C63.5479 55.2504 63.7583 55.3924 63.954 55.598C64.1496 55.8037 64.2801 56.0242 64.3474 56.2552C64.4147 56.4884 64.4168 56.7174 64.3495 56.9463C64.2843 57.1753 64.1475 57.3873 63.9456 57.5844V57.5865ZM63.611 57.2346C63.7415 57.1117 63.8235 56.9802 63.8572 56.8424C63.8909 56.7046 63.8782 56.5626 63.8235 56.4185C63.7688 56.2743 63.6762 56.1323 63.5458 55.9945C63.4154 55.8567 63.2807 55.757 63.1418 55.6977C63.003 55.6383 62.8641 55.6214 62.7253 55.6468C62.5864 55.6722 62.4517 55.7486 62.3192 55.8715C62.1866 55.9945 62.1067 56.1259 62.073 56.2637C62.0394 56.4015 62.052 56.5435 62.1067 56.6877C62.1614 56.8318 62.254 56.9739 62.3844 57.1117C62.5149 57.2495 62.6495 57.3491 62.7884 57.4085C62.9272 57.4678 63.0661 57.4848 63.205 57.4593C63.3438 57.4339 63.4785 57.3576 63.611 57.2346Z" fill="white"/>
<path d="M65.6329 55.7407L63.0029 54.6086L63.3606 54.1889L65.5214 55.1217L64.2884 53.1014L64.6461 52.6816L66.1526 55.1301L65.635 55.7386H65.6329V55.7407Z" fill="white"/>
<path d="M67.0173 54.0508L64.7935 52.4609L65.8602 50.9473L66.2515 51.2271L65.4941 52.3019L65.9696 52.6411L66.5902 51.7592L66.9816 52.039L66.3609 52.9209L66.9332 53.33L67.6906 52.2553L68.0819 52.5351L67.0152 54.0487H67.0173V54.0508Z" fill="white"/>
<path d="M68.4648 51.9466L66.1021 50.5751L66.6975 49.5363C66.7101 49.513 66.7311 49.4812 66.7543 49.4409C66.7795 49.4006 66.8027 49.3667 66.8279 49.3392C66.9331 49.2056 67.0488 49.1102 67.1751 49.0593C67.2992 49.0063 67.4297 48.9894 67.5622 49.0063C67.6947 49.0254 67.8273 49.072 67.9599 49.1484C68.1576 49.2628 68.2986 49.4134 68.3806 49.5978C68.4627 49.7822 68.4585 49.9921 68.3659 50.2316L68.2607 50.4436L67.9325 51.0181L68.7341 51.4824L68.469 51.9466H68.4648ZM67.5138 50.7743L67.8315 50.221C67.8441 50.1977 67.8589 50.1702 67.8736 50.1405C67.8883 50.1108 67.8988 50.0811 67.9051 50.0536C67.9241 49.9815 67.9241 49.9179 67.9051 49.8607C67.8862 49.8034 67.8568 49.7547 67.8168 49.7144C67.7768 49.6741 67.7347 49.6402 67.6926 49.6169C67.6506 49.5914 67.6022 49.5723 67.5454 49.5575C67.4907 49.5427 67.4339 49.5405 67.375 49.5533C67.316 49.566 67.2613 49.5978 67.2087 49.6508C67.1877 49.6699 67.1688 49.6953 67.1498 49.7207C67.1309 49.7483 67.1162 49.7737 67.1014 49.7971L66.7858 50.3504L67.5138 50.7722V50.7743ZM69.2601 50.5602L68.0209 50.4881L68.206 49.9582L69.561 50.0345L69.2601 50.5602Z" fill="white"/>
<path d="M4.14468 39.7288V32.4023H5.36077V38.5798H8.57141V39.7288H4.14258H4.14468Z" fill="#212D94"/>
<path d="M12.3247 39.8817C11.5967 39.8817 10.9739 39.7206 10.4564 39.4005C9.93879 39.0804 9.53903 38.6331 9.26131 38.0607C8.98359 37.4883 8.84473 36.8227 8.84473 36.0658C8.84473 35.309 8.98359 34.6455 9.26131 34.071C9.53903 33.4986 9.93668 33.0513 10.4564 32.7312C10.9739 32.4111 11.5967 32.25 12.3247 32.25C13.0526 32.25 13.6754 32.4111 14.1951 32.7312C14.7148 33.0513 15.1145 33.4986 15.3923 34.071C15.67 34.6434 15.8088 35.309 15.8088 36.0658C15.8088 36.8227 15.67 37.4862 15.3923 38.0607C15.1145 38.6331 14.7148 39.0804 14.1951 39.4005C13.6754 39.7206 13.0505 39.8817 12.3247 39.8817ZM12.3247 38.7263C12.8128 38.7306 13.2189 38.6203 13.545 38.3999C13.869 38.1794 14.113 37.8699 14.2772 37.4692C14.4413 37.0686 14.5212 36.6001 14.5212 36.0658C14.5212 35.5316 14.4392 35.0652 14.2772 34.6688C14.113 34.2745 13.869 33.965 13.545 33.7445C13.221 33.5241 12.8128 33.4096 12.3247 33.4032C11.8366 33.399 11.4305 33.5092 11.1086 33.7297C10.7846 33.9502 10.5426 34.2597 10.3785 34.6603C10.2144 35.061 10.1345 35.5295 10.1345 36.0637C10.1345 36.5979 10.2144 37.0643 10.3764 37.4607C10.5384 37.855 10.7804 38.1646 11.1065 38.385C11.4326 38.6055 11.8387 38.72 12.3268 38.7263H12.3247Z" fill="#212D94"/>
<path d="M19.914 39.8817C19.1861 39.8817 18.5633 39.7206 18.0457 39.4005C17.5281 39.0804 17.1284 38.6331 16.8507 38.0607C16.5729 37.4883 16.4341 36.8227 16.4341 36.0658C16.4341 35.309 16.5729 34.6455 16.8507 34.071C17.1284 33.4986 17.526 33.0513 18.0457 32.7312C18.5633 32.4111 19.1861 32.25 19.914 32.25C20.7514 32.25 21.4499 32.462 22.0096 32.8839C22.5692 33.3057 22.9606 33.876 23.1857 34.5904L21.9591 34.9317C21.8181 34.4526 21.5762 34.0795 21.2374 33.8103C20.8987 33.541 20.4569 33.4054 19.914 33.4054C19.4259 33.4054 19.0198 33.5156 18.6937 33.7361C18.3676 33.9565 18.1257 34.266 17.9616 34.6646C17.7974 35.0631 17.7154 35.5295 17.7112 36.0658C17.7112 36.6022 17.7932 37.0686 17.9552 37.4671C18.1194 37.8656 18.3634 38.1752 18.6895 38.3956C19.0156 38.6161 19.4238 38.7263 19.9119 38.7263C20.4548 38.7263 20.8945 38.5907 21.2353 38.3193C21.5762 38.048 21.816 37.6749 21.957 37.2L23.1836 37.5413C22.9585 38.2578 22.565 38.826 22.0075 39.2478C21.4478 39.6697 20.7493 39.8817 19.9119 39.8817H19.914Z" fill="#212D94"/>
<path d="M23.6104 39.7288L25.9037 32.4023H27.6857L29.979 39.7288H28.7272L26.6464 33.1549H26.9199L24.8643 39.7288H23.6104ZM24.8875 38.1409V36.9962H28.704V38.1409H24.8875Z" fill="#212D94"/>
<path d="M31.008 39.7288V32.4023H32.2241V38.5798H35.4347V39.7288H31.0059H31.008Z" fill="#212D94"/>
<path d="M40.5409 39.8808C40.0086 39.8808 39.531 39.7876 39.1039 39.601C38.6789 39.4145 38.3275 39.1474 38.054 38.7997C37.7805 38.452 37.6059 38.0386 37.5322 37.5617L38.7946 37.3688C38.9019 37.8033 39.1228 38.1383 39.4595 38.3757C39.7961 38.6131 40.1811 38.7319 40.6187 38.7319C40.8775 38.7319 41.1216 38.6916 41.3509 38.6089C41.5802 38.5283 41.7654 38.4096 41.9085 38.2528C42.0515 38.0959 42.1231 37.9051 42.1231 37.6783C42.1231 37.5765 42.1062 37.4832 42.0726 37.3963C42.0389 37.3094 41.9884 37.2331 41.9232 37.1652C41.858 37.0974 41.7738 37.0359 41.6707 36.9787C41.5676 36.9236 41.4498 36.8748 41.3151 36.8345L39.4363 36.2749C39.2743 36.2282 39.0997 36.1646 38.9145 36.0841C38.7294 36.0035 38.5505 35.8933 38.3843 35.7534C38.2181 35.6135 38.0814 35.4333 37.9762 35.2149C37.871 34.9966 37.8163 34.7252 37.8163 34.403C37.8163 33.9324 37.9341 33.5359 38.1718 33.2158C38.4096 32.8957 38.7294 32.6562 39.1312 32.4951C39.5331 32.3361 39.9812 32.2576 40.4715 32.2619C40.9701 32.2661 41.414 32.3509 41.8054 32.5184C42.1967 32.6859 42.5228 32.9297 42.7858 33.2476C43.0488 33.5656 43.234 33.9515 43.3413 34.403L42.0326 34.6319C41.9779 34.3733 41.8748 34.155 41.7212 33.9726C41.5676 33.7903 41.3804 33.6525 41.1616 33.5571C40.9427 33.4618 40.7071 33.4109 40.4567 33.4045C40.2148 33.4003 39.9897 33.4384 39.7835 33.5148C39.5773 33.5911 39.409 33.7013 39.2827 33.8433C39.1565 33.9854 39.0934 34.1528 39.0934 34.3415C39.0934 34.5302 39.1481 34.668 39.2554 34.7825C39.3627 34.8969 39.4973 34.986 39.6572 35.0517C39.8171 35.1174 39.9791 35.1725 40.1453 35.217L41.4477 35.5838C41.6265 35.6304 41.8264 35.6961 42.0494 35.7767C42.2724 35.8573 42.4849 35.9717 42.6911 36.118C42.8973 36.2643 43.0656 36.4551 43.1982 36.6925C43.3307 36.9299 43.3981 37.231 43.3981 37.5977C43.3981 37.9644 43.3202 38.3121 43.1624 38.5983C43.0046 38.8845 42.7942 39.124 42.5291 39.3127C42.264 39.5014 41.959 39.6455 41.6181 39.7409C41.2773 39.8363 40.9196 39.883 40.5451 39.883H40.5409V39.8808Z" fill="#212D94"/>
<path d="M44.5112 39.7288V32.4023H49.2073V33.5513H45.7273V35.3575H48.6013V36.5065H45.7273V38.5776H49.2073V39.7266H44.5112V39.7288Z" fill="#212D94"/>
<path d="M53.2617 39.8817C52.5337 39.8817 51.9109 39.7206 51.3934 39.4005C50.8758 39.0804 50.476 38.6331 50.1983 38.0607C49.9206 37.4883 49.7817 36.8227 49.7817 36.0658C49.7817 35.309 49.9206 34.6455 50.1983 34.071C50.476 33.4986 50.8737 33.0513 51.3934 32.7312C51.9109 32.4111 52.5337 32.25 53.2617 32.25C54.0991 32.25 54.7976 32.462 55.3572 32.8839C55.9169 33.3057 56.3082 33.876 56.5333 34.5904L55.3067 34.9317C55.1658 34.4526 54.9238 34.0795 54.5851 33.8103C54.2463 33.541 53.8045 33.4054 53.2617 33.4054C52.7736 33.4054 52.3675 33.5156 52.0414 33.7361C51.7153 33.9565 51.4733 34.266 51.3092 34.6646C51.1451 35.0631 51.063 35.5295 51.0588 36.0658C51.0588 36.6022 51.1409 37.0686 51.3029 37.4671C51.467 37.8656 51.7111 38.1752 52.0372 38.3956C52.3633 38.6161 52.7715 38.7263 53.2596 38.7263C53.8024 38.7263 54.2421 38.5907 54.583 38.3193C54.9238 38.048 55.1637 37.6749 55.3046 37.2L56.5312 37.5413C56.3061 38.2578 55.9127 38.826 55.3551 39.2478C54.7955 39.6697 54.097 39.8817 53.2596 39.8817H53.2617Z" fill="#212D94"/>
<path d="M57.665 39.7288V32.4023H60.6695C60.741 32.4023 60.8315 32.4023 60.943 32.4108C61.0545 32.4151 61.1576 32.4278 61.2502 32.4447C61.671 32.5083 62.0181 32.6504 62.2938 32.8666C62.5673 33.0828 62.7714 33.3584 62.9039 33.6891C63.0365 34.0198 63.1038 34.3866 63.1038 34.7915C63.1038 35.3893 62.9544 35.9023 62.6535 36.3305C62.3548 36.7588 61.894 37.0259 61.2754 37.1276L60.7558 37.1743H58.8832V39.733H57.6671V39.7288H57.665ZM58.879 36.0253H60.6169C60.6842 36.0253 60.76 36.021 60.8441 36.0147C60.9283 36.0083 61.0061 35.9935 61.0756 35.9744C61.2775 35.9235 61.4374 35.8345 61.5532 35.7052C61.6689 35.5758 61.7509 35.4296 61.8014 35.2685C61.8498 35.1052 61.8751 34.9462 61.8751 34.7894C61.8751 34.6325 61.8498 34.4735 61.8014 34.3081C61.753 34.1428 61.671 33.9965 61.5532 33.8672C61.4374 33.7379 61.2775 33.6489 61.0756 33.598C61.004 33.5768 60.9283 33.5641 60.8441 33.5598C60.76 33.5556 60.6842 33.5513 60.6169 33.5513H58.879V36.0232V36.0253ZM61.8372 39.7309L60.4023 36.7503L61.6394 36.4768L63.2153 39.733H61.8372V39.7309Z" fill="#212D94"/>
<path d="M64.3496 39.7288V32.4023H69.0457V33.5513H65.5657V35.3575H68.4397V36.5065H65.5657V38.5776H69.0457V39.7266H64.3496V39.7288Z" fill="#212D94"/>
<path d="M72.0246 39.7288V33.5513H69.6724V32.4023H75.595V33.5513H73.2428V39.7288H72.0246Z" fill="#212D94"/>
<path d="M79.1151 39.8808C78.5828 39.8808 78.1052 39.7876 77.6781 39.601C77.2531 39.4145 76.9017 39.1474 76.6282 38.7997C76.3547 38.452 76.1801 38.0386 76.1064 37.5617L77.3688 37.3688C77.4761 37.8033 77.697 38.1383 78.0337 38.3757C78.3703 38.6131 78.7553 38.7319 79.193 38.7319C79.4517 38.7319 79.6958 38.6916 79.9251 38.6089C80.1545 38.5283 80.3396 38.4096 80.4827 38.2528C80.6258 38.0959 80.6973 37.9051 80.6973 37.6783C80.6973 37.5765 80.6805 37.4832 80.6468 37.3963C80.6131 37.3094 80.5626 37.2331 80.4974 37.1652C80.4322 37.0974 80.348 37.0359 80.2449 36.9787C80.1418 36.9236 80.024 36.8748 79.8894 36.8345L78.0105 36.2749C77.8485 36.2282 77.6739 36.1646 77.4887 36.0841C77.3036 36.0035 77.1248 35.8933 76.9585 35.7534C76.7923 35.6135 76.6556 35.4333 76.5504 35.2149C76.4452 34.9966 76.3905 34.7252 76.3905 34.403C76.3905 33.9324 76.5083 33.5359 76.746 33.2158C76.9838 32.8957 77.3036 32.6562 77.7055 32.4951C78.1073 32.3361 78.5555 32.2576 79.0457 32.2619C79.5443 32.2661 79.9883 32.3509 80.3796 32.5184C80.7709 32.6859 81.097 32.9297 81.36 33.2476C81.623 33.5656 81.8082 33.9515 81.9155 34.403L80.6068 34.6319C80.5521 34.3733 80.449 34.155 80.2954 33.9726C80.1418 33.7903 79.9546 33.6525 79.7358 33.5571C79.517 33.4618 79.2813 33.4109 79.0309 33.4045C78.789 33.4003 78.5639 33.4384 78.3577 33.5148C78.1515 33.5911 77.9832 33.7013 77.8569 33.8433C77.7307 33.9854 77.6676 34.1528 77.6676 34.3415C77.6676 34.5302 77.7223 34.668 77.8296 34.7825C77.9369 34.8969 78.0715 34.986 78.2314 35.0517C78.3913 35.1174 78.5533 35.1725 78.7196 35.217L80.0219 35.5838C80.2007 35.6304 80.4006 35.6961 80.6236 35.7767C80.8467 35.8573 81.0592 35.9717 81.2654 36.118C81.4715 36.2643 81.6399 36.4551 81.7724 36.6925C81.905 36.9299 81.9723 37.231 81.9723 37.5977C81.9723 37.9644 81.8944 38.3121 81.7366 38.5983C81.5788 38.8845 81.3685 39.124 81.1034 39.3127C80.8383 39.5014 80.5332 39.6455 80.1923 39.7409C79.8515 39.8363 79.4938 39.883 79.1193 39.883H79.1151V39.8808Z" fill="#212D94"/>
</g>
<defs>
<clipPath id="clip0_159_7002">
<rect width="85" height="71.2291" fill="white"/>
</clipPath>
</defs>
</svg>
