<svg width="30" height="30" viewBox="0 0 30 30" fill="none" xmlns="http://www.w3.org/2000/svg">
<path d="M11.25 5.25V9.53939C11.25 9.67129 11.1853 9.7948 11.0768 9.86988L2.54805 15.7744C1.89167 16.2288 1.5 16.9764 1.5 17.7747C1.5 19.391 3.04706 20.558 4.6012 20.1139L11.5 18.1429C11.7506 18.0713 12 18.2594 12 18.52V22.1272C12 22.2905 12 22.3721 11.9755 22.4474C11.9674 22.4723 11.9574 22.4965 11.9455 22.5199C11.9096 22.5904 11.8518 22.6482 11.7364 22.7636L9.2636 25.2364C9.14817 25.3518 9.09045 25.4096 9.0545 25.4801C9.04261 25.5035 9.03257 25.5277 9.02447 25.5526C9 25.6279 9 25.7095 9 25.8728V27.6262C9 28.2585 9 28.5747 9.17067 28.7241C9.22428 28.771 9.2873 28.806 9.35551 28.8265C9.57266 28.8921 9.84077 28.7245 10.377 28.3894L14.523 25.7981C14.7286 25.6696 14.8313 25.6054 14.9443 25.5927C14.9813 25.5886 15.0187 25.5886 15.0557 25.5927C15.1687 25.6054 15.2714 25.6696 15.477 25.7981L19.623 28.3894C20.1592 28.7245 20.4273 28.8921 20.6445 28.8265C20.7127 28.806 20.7757 28.771 20.8293 28.7241C21 28.5747 21 28.2585 21 27.6262V25.8728C21 25.7095 21 25.6279 20.9755 25.5526C20.9674 25.5277 20.9574 25.5035 20.9455 25.4801C20.9096 25.4096 20.8518 25.3518 20.7364 25.2364L18.2636 22.7636C18.1482 22.6482 18.0904 22.5904 18.0545 22.5199C18.0426 22.4965 18.0326 22.4723 18.0245 22.4474C18 22.3721 18 22.2905 18 22.1272V18.52C18 18.2594 18.2494 18.0713 18.5 18.1429L25.3988 20.1139C26.9529 20.558 28.5 19.391 28.5 17.7747C28.5 16.9764 28.1083 16.2288 27.452 15.7744L18.9232 9.86988C18.8147 9.7948 18.75 9.67129 18.75 9.53939V5.25C18.75 3.17893 17.0711 1.5 15 1.5C12.9289 1.5 11.25 3.17893 11.25 5.25Z" stroke="black" stroke-width="2" stroke-linejoin="round"/>
</svg>
