<svg width="24" height="24" viewBox="0 0 24 24" fill="none" xmlns="http://www.w3.org/2000/svg">
<path d="M9.75 4.75C9.75 3.36818 10.8682 2.25 12.25 2.25C13.6318 2.25 14.75 3.36818 14.75 4.75C14.75 6.13182 13.6318 7.25 12.25 7.25C10.8682 7.25 9.75 6.13182 9.75 4.75ZM11.7955 5.20455C11.7955 4.57727 12.4227 4.75 11.7955 4.75C11.1682 4.75 13.1591 4.12273 13.1591 4.75C13.1591 5.37727 12.0773 5.20455 12.7045 5.20455C13.3318 5.20455 11.7955 5.83182 11.7955 5.20455Z" fill="#151820"/>
<path d="M9.75 11.75C9.75 10.3682 10.8682 9.25 12.25 9.25C13.6318 9.25 14.75 10.3682 14.75 11.75C14.75 13.1318 13.6318 14.25 12.25 14.25C10.8682 14.25 9.75 13.1318 9.75 11.75ZM11.7955 12.2045C11.7955 11.5773 12.4227 11.75 11.7955 11.75C11.1682 11.75 13.1591 11.1227 13.1591 11.75C13.1591 12.3773 12.0773 12.2045 12.7045 12.2045C13.3318 12.2045 11.7955 12.8318 11.7955 12.2045Z" fill="#151820"/>
<path d="M9.75 18.75C9.75 17.3682 10.8682 16.25 12.25 16.25C13.6318 16.25 14.75 17.3682 14.75 18.75C14.75 20.1318 13.6318 21.25 12.25 21.25C10.8682 21.25 9.75 20.1318 9.75 18.75ZM11.7955 19.2045C11.7955 18.5773 12.4227 18.75 11.7955 18.75C11.1682 18.75 13.1591 18.1227 13.1591 18.75C13.1591 19.3773 12.0773 19.2045 12.7045 19.2045C13.3318 19.2045 11.7955 19.8318 11.7955 19.2045Z" fill="#151820"/>
</svg>
