<svg width="40" height="40" viewBox="0 0 40 40" fill="none" xmlns="http://www.w3.org/2000/svg">
<path d="M29.9997 13.1834C29.9497 13.1834 29.9164 13.1834 29.8664 13.1834H29.7831C26.6331 13.0834 24.2831 10.6501 24.2831 7.6501C24.2831 4.58343 26.7831 2.1001 29.8331 2.1001C32.8831 2.1001 35.3831 4.6001 35.3831 7.6501C35.3664 10.6668 33.0164 13.1001 30.0164 13.2001C30.0164 13.1834 30.0164 13.1834 29.9997 13.1834ZM29.8331 4.58344C28.1498 4.58344 26.7831 5.95011 26.7831 7.63344C26.7831 9.28344 28.0664 10.6168 29.7164 10.6834C29.7331 10.6668 29.8664 10.6668 30.0164 10.6834C31.6331 10.6001 32.8831 9.26678 32.8997 7.63344C32.8997 5.95011 31.5331 4.58344 29.8331 4.58344Z" fill="#292D32"/>
<path d="M30.0166 25.4668C29.3666 25.4668 28.7166 25.4167 28.0666 25.3001C27.3833 25.1834 26.9333 24.5334 27.05 23.8501C27.1666 23.1667 27.8166 22.7167 28.5 22.8334C30.55 23.1834 32.7166 22.8001 34.1666 21.8334C34.95 21.3168 35.3666 20.6667 35.3666 20.0167C35.3666 19.3667 34.9333 18.7334 34.1666 18.2167C32.7166 17.2501 30.5166 16.8667 28.45 17.2334C27.7666 17.3667 27.1166 16.9001 27 16.2167C26.8833 15.5334 27.3333 14.8834 28.0166 14.7668C30.7333 14.2834 33.55 14.8001 35.55 16.1334C37.0166 17.1167 37.8666 18.5167 37.8666 20.0167C37.8666 21.5001 37.0333 22.9168 35.55 23.9168C34.0333 24.9168 32.0666 25.4668 30.0166 25.4668Z" fill="#292D32"/>
<path d="M9.94993 13.1833C9.93326 13.1833 9.9166 13.1833 9.9166 13.1833C6.9166 13.0833 4.56659 10.6499 4.54993 7.64991C4.54993 4.58325 7.04993 2.08325 10.0999 2.08325C13.1499 2.08325 15.6499 4.58325 15.6499 7.63326C15.6499 10.6499 13.2999 13.0833 10.2999 13.1833L9.94993 11.9333L10.0666 13.1833C10.0333 13.1833 9.98326 13.1833 9.94993 13.1833ZM10.1166 10.6833C10.2166 10.6833 10.2999 10.6832 10.3999 10.6999C11.8833 10.6332 13.1833 9.29991 13.1833 7.64991C13.1833 5.96658 11.8166 4.59991 10.1333 4.59991C8.44993 4.59991 7.08326 5.96658 7.08326 7.64991C7.08326 9.28325 8.34993 10.5999 9.96659 10.6999C9.98326 10.6832 10.0499 10.6833 10.1166 10.6833Z" fill="#292D32"/>
<path d="M9.93337 25.4668C7.88337 25.4668 5.91671 24.9168 4.40004 23.9168C2.93337 22.9334 2.08337 21.5167 2.08337 20.0167C2.08337 18.5334 2.93337 17.1167 4.40004 16.1334C6.40004 14.8001 9.21671 14.2834 11.9334 14.7668C12.6167 14.8834 13.0667 15.5334 12.95 16.2167C12.8334 16.9001 12.1834 17.3667 11.5 17.2334C9.43338 16.8667 7.25004 17.2501 5.78338 18.2167C5.00004 18.7334 4.58337 19.3667 4.58337 20.0167C4.58337 20.6667 5.01671 21.3168 5.78338 21.8334C7.23338 22.8001 9.40004 23.1834 11.45 22.8334C12.1334 22.7167 12.7834 23.1834 12.9 23.8501C13.0167 24.5334 12.5667 25.1834 11.8834 25.3001C11.2334 25.4167 10.5834 25.4668 9.93337 25.4668Z" fill="#292D32"/>
<path d="M19.9997 25.6334C19.9497 25.6334 19.9164 25.6334 19.8664 25.6334H19.7831C16.6331 25.5334 14.2831 23.1001 14.2831 20.1001C14.2831 17.0334 16.7831 14.55 19.8331 14.55C22.8831 14.55 25.3831 17.0501 25.3831 20.1001C25.3664 23.1167 23.0164 25.5501 20.0164 25.6501C20.0164 25.6334 20.0164 25.6334 19.9997 25.6334ZM19.8331 17.0334C18.1498 17.0334 16.7831 18.4001 16.7831 20.0834C16.7831 21.7334 18.0664 23.0667 19.7164 23.1334C19.7331 23.1167 19.8664 23.1167 20.0164 23.1334C21.6331 23.0501 22.8831 21.7167 22.8998 20.0834C22.8998 18.4167 21.5331 17.0334 19.8331 17.0334Z" fill="#292D32"/>
<path d="M19.9996 37.9332C17.9996 37.9332 15.9996 37.4166 14.4496 36.3666C12.9829 35.3832 12.1329 33.9832 12.1329 32.4832C12.1329 30.9999 12.9663 29.5665 14.4496 28.5832C17.5663 26.5165 22.4496 26.5165 25.5496 28.5832C27.0163 29.5665 27.8663 30.9665 27.8663 32.4665C27.8663 33.9499 27.0329 35.3832 25.5496 36.3666C23.9996 37.3999 21.9996 37.9332 19.9996 37.9332ZM15.8329 30.6832C15.0496 31.1999 14.6329 31.8499 14.6329 32.4999C14.6329 33.1499 15.0663 33.7832 15.8329 34.2999C18.0829 35.8165 21.8996 35.8165 24.1496 34.2999C24.9329 33.7832 25.3496 33.1332 25.3496 32.4832C25.3496 31.8332 24.9163 31.1999 24.1496 30.6832C21.9163 29.1666 18.0996 29.1832 15.8329 30.6832Z" fill="#292D32"/>
</svg>
