<svg width="32" height="32" viewBox="0 0 32 32" fill="none" xmlns="http://www.w3.org/2000/svg">
<path d="M11.4819 11.3666C11.7524 10.5333 12.2477 9.79169 12.9137 9.22252C13.5797 8.65334 14.391 8.27932 15.2563 8.14204C16.1215 8.00476 17.0073 8.1093 17.8168 8.44438C18.6263 8.77946 19.3273 9.33218 19.8424 10.0409C20.3574 10.7495 20.6659 11.5866 20.7348 12.4599C20.8036 13.3333 20.6294 14.2089 20.2318 14.9895C19.8341 15.7702 19.229 16.4251 18.482 16.8829C17.7351 17.3407 16.8761 17.583 16 17.583V19.167M16 30.25C8.12994 30.25 1.75 23.8701 1.75 16C1.75 8.12994 8.12994 1.75 16 1.75C23.8701 1.75 30.25 8.12994 30.25 16C30.25 23.8701 23.8701 30.25 16 30.25ZM16.0789 23.9167V24.075L15.9211 24.0753V23.9167H16.0789Z" stroke="black" stroke-width="2" stroke-linecap="round" stroke-linejoin="round"/>
</svg>
