<svg width="24" height="24" viewBox="0 0 24 24" fill="none" xmlns="http://www.w3.org/2000/svg">
<path fill-rule="evenodd" clip-rule="evenodd" d="M16 2.75C14.7574 2.75 13.75 3.75736 13.75 5C13.75 6.24264 14.7574 7.25 16 7.25C17.2426 7.25 18.25 6.24264 18.25 5C18.25 3.75736 17.2426 2.75 16 2.75ZM12.25 5C12.25 2.92893 13.9289 1.25 16 1.25C18.0711 1.25 19.75 2.92893 19.75 5C19.75 7.07107 18.0711 8.75 16 8.75C14.6864 8.75 13.5305 8.07454 12.8607 7.05199L8.42117 10.4621C8.63244 10.9314 8.75 11.452 8.75 12C8.75 12.548 8.63243 13.0686 8.42115 13.5379L12.8607 16.9481C13.5304 15.9255 14.6863 15.25 16 15.25C18.0711 15.25 19.75 16.9289 19.75 19C19.75 21.0711 18.0711 22.75 16 22.75C13.9289 22.75 12.25 21.0711 12.25 19C12.25 18.798 12.266 18.5997 12.2967 18.4063L7.54372 14.7554C6.87528 15.3728 5.98169 15.75 5 15.75C2.92893 15.75 1.25 14.0711 1.25 12C1.25 9.92893 2.92893 8.25 5 8.25C5.98171 8.25 6.87532 8.62724 7.54376 9.24466L12.2967 5.59376C12.266 5.40037 12.25 5.20205 12.25 5ZM2.75 12C2.75 10.7574 3.75736 9.75 5 9.75C6.24264 9.75 7.25 10.7574 7.25 12C7.25 13.2426 6.24264 14.25 5 14.25C3.75736 14.25 2.75 13.2426 2.75 12ZM13.75 19C13.75 17.7574 14.7574 16.75 16 16.75C17.2426 16.75 18.25 17.7574 18.25 19C18.25 20.2426 17.2426 21.25 16 21.25C14.7574 21.25 13.75 20.2426 13.75 19Z" fill="#151820"/>
</svg>
