<svg width="22" height="22" viewBox="0 0 22 22" fill="none" xmlns="http://www.w3.org/2000/svg">
<path d="M11.6148 18.5383L11.6148 18.5383L11.6112 18.5362C11.3524 18.3859 11.0273 18.3336 10.7514 18.3336C10.4775 18.3336 10.1518 18.3852 9.89468 18.5388C9.89408 18.5391 9.89347 18.5395 9.89287 18.5398L6.89604 20.308L6.89502 20.3086C6.0724 20.7966 5.46271 20.9179 5.03766 20.9051C4.61702 20.8924 4.33492 20.7472 4.1653 20.625C4.00152 20.5035 3.7777 20.2787 3.63822 19.8807C3.49749 19.4792 3.42868 18.8614 3.64686 17.933L3.64726 17.9313L4.35642 14.8649C4.42454 14.5867 4.38259 14.2742 4.31044 14.0247C4.2373 13.7718 4.10504 13.4864 3.90367 13.285L1.42367 10.805C0.860761 10.2421 0.629399 9.74893 0.544253 9.3692C0.458749 8.98787 0.512788 8.68538 0.575365 8.49396C0.63858 8.3006 0.77365 8.02195 1.06675 7.76042C1.35842 7.50018 1.83289 7.23332 2.61253 7.10176C2.61277 7.10172 2.61301 7.10167 2.61325 7.10163L5.80207 6.57183L5.80232 6.57179C6.06185 6.52854 6.31873 6.38632 6.51237 6.24221C6.70421 6.09945 6.91375 5.89548 7.02859 5.65969L8.79708 2.13271L8.79789 2.13109C9.16238 1.39754 9.56471 1.01239 9.90294 0.807493C10.2422 0.601949 10.5488 0.558594 10.7501 0.558594C10.9514 0.558594 11.258 0.601949 11.5973 0.807493C11.9355 1.01239 12.3379 1.39754 12.7023 2.13109L12.7029 2.1322L14.4629 5.6522L14.4629 5.65222L14.4662 5.65875C14.5851 5.88792 14.7936 6.08966 14.9881 6.23331C15.1818 6.37637 15.4385 6.51855 15.6979 6.56179L15.6982 6.56183L18.8875 7.09171C18.8875 7.09172 18.8876 7.09173 18.8876 7.09174C19.6732 7.22346 20.1499 7.49071 20.441 7.75042C20.7333 8.01128 20.8644 8.28776 20.9222 8.47564C20.9824 8.67112 21.0343 8.97628 20.9485 9.3592C20.863 9.74044 20.6331 10.234 20.0751 10.7965L17.5966 13.285C17.3942 13.4874 17.2646 13.7715 17.193 14.0229C17.1211 14.2753 17.0833 14.5803 17.141 14.8523L17.1409 14.8524L17.143 14.8613L17.8528 17.9307C17.8529 17.9308 17.8529 17.9309 17.8529 17.931C18.0666 18.8603 17.998 19.4792 17.8579 19.8817C17.7193 20.28 17.4977 20.5041 17.3354 20.6247C17.1513 20.7566 16.852 20.9086 16.4101 20.9086C15.9899 20.9086 15.397 20.7742 14.6043 20.308C14.6041 20.3079 14.6038 20.3078 14.6036 20.3076L11.6148 18.5383Z" fill="#F4C031" stroke="#F4C031"/>
</svg>
