<svg width="22" height="22" viewBox="0 0 22 22" fill="none" xmlns="http://www.w3.org/2000/svg">
<path d="M16.1891 20.7798C15.7033 20.7798 15.0799 20.624 14.3008 20.1657L11.5599 18.5431C11.2758 18.3782 10.7258 18.3782 10.4508 18.5431L7.70076 20.1657C6.07826 21.1282 5.12493 20.7432 4.69409 20.4315C4.27243 20.1198 3.61243 19.3223 4.04326 17.489L4.69409 14.6748C4.76743 14.3815 4.62076 13.8773 4.40076 13.6573L2.12743 11.384C0.990759 10.2473 1.08243 9.27565 1.23826 8.79898C1.39409 8.32232 1.88909 7.47898 3.46576 7.21315L6.38993 6.72732C6.66493 6.68148 7.05909 6.38815 7.17826 6.14065L8.80076 2.90482C9.53409 1.42898 10.4966 1.20898 11.0008 1.20898C11.5049 1.20898 12.4674 1.42898 13.2008 2.90482L14.8141 6.13148C14.9424 6.37898 15.3366 6.67232 15.6116 6.71815L18.5358 7.20398C20.1216 7.46982 20.6166 8.31315 20.7633 8.78982C20.9099 9.26648 21.0016 10.2382 19.8741 11.3748L17.6008 13.6573C17.3808 13.8773 17.2433 14.3723 17.3074 14.6748L17.9583 17.489C18.3799 19.3223 17.7291 20.1198 17.3074 20.4315C17.0783 20.5965 16.7116 20.7798 16.1891 20.7798ZM11.0008 17.0398C11.4499 17.0398 11.8991 17.1498 12.2566 17.3607L14.9974 18.9832C15.7949 19.4598 16.2991 19.4598 16.4916 19.3223C16.6841 19.1848 16.8216 18.699 16.6199 17.8007L15.9691 14.9865C15.7949 14.2257 16.0791 13.2448 16.6291 12.6857L18.9024 10.4123C19.3516 9.96315 19.5533 9.52315 19.4616 9.22065C19.3608 8.91815 18.9391 8.67065 18.3158 8.56982L15.3916 8.08398C14.6858 7.96482 13.9158 7.39648 13.5949 6.75482L11.9816 3.52815C11.6883 2.94148 11.3216 2.59315 11.0008 2.59315C10.6799 2.59315 10.3133 2.94148 10.0291 3.52815L8.40659 6.75482C8.08576 7.39648 7.31576 7.96482 6.60993 8.08398L3.69493 8.56982C3.07159 8.67065 2.64993 8.91815 2.54909 9.22065C2.44826 9.52315 2.65909 9.97232 3.10826 10.4123L5.38159 12.6857C5.93159 13.2357 6.21576 14.2257 6.04159 14.9865L5.39076 17.8007C5.17993 18.7082 5.32659 19.1848 5.51909 19.3223C5.71159 19.4598 6.20659 19.4506 7.01326 18.9832L9.75409 17.3607C10.1024 17.1498 10.5516 17.0398 11.0008 17.0398Z" fill="#F4C031"/>
</svg>
