<svg width="349" height="223" viewBox="0 0 349 223" fill="none" xmlns="http://www.w3.org/2000/svg">
<path fill-rule="evenodd" clip-rule="evenodd" d="M64.4219 0C29.0757 0 0.421875 28.6538 0.421875 64L0.421875 714C0.421875 749.346 29.0757 778 64.4219 778H284.578C319.925 778 348.578 749.346 348.578 714V64C348.578 28.6538 319.925 0 284.578 0L64.4219 0ZM62.1094 14.7488C35.5997 14.7488 14.1094 36.2391 14.1094 62.7488L14.1094 715.251C14.1094 741.761 35.5997 763.251 62.1094 763.251H286.893C313.402 763.251 334.893 741.761 334.893 715.251V62.7488C334.893 36.2391 313.402 14.7488 286.893 14.7488L62.1094 14.7488Z" fill="#151820"/>
</svg>
