<svg width="24" height="23" viewBox="0 0 24 23" fill="none" xmlns="http://www.w3.org/2000/svg">
<path d="M10 17.7011C10 18.726 10.9 19.5645 12 19.5645C13.1 19.5645 14 18.726 14 17.7011C14 16.6763 13.1 15.8378 12 15.8378C10.9 15.8378 10 16.6763 10 17.7011Z" fill="#151820"/>
<path d="M10 4.658C10 5.68281 10.9 6.5213 12 6.5213C13.1 6.5213 14 5.68281 14 4.658C14 3.63318 13.1 2.79469 12 2.79469C10.9 2.79469 10 3.63318 10 4.658Z" fill="#151820"/>
<path d="M10 11.1875C10 12.2123 10.9 13.0508 12 13.0508C13.1 13.0508 14 12.2123 14 11.1875C14 10.1627 13.1 9.32417 12 9.32417C10.9 9.32417 10 10.1627 10 11.1875Z" fill="#151820"/>
</svg>
