<svg width="38" height="38" viewBox="0 0 38 38" fill="none" xmlns="http://www.w3.org/2000/svg">
<path d="M26.916 32.8543H11.0827C4.10018 32.8543 1.97852 30.7327 1.97852 23.7502V22.9585C1.97852 22.3093 2.51685 21.771 3.16602 21.771C4.68602 21.771 5.93685 20.5202 5.93685 19.0002C5.93685 17.4802 4.68602 16.2293 3.16602 16.2293C2.51685 16.2293 1.97852 15.691 1.97852 15.0418V14.2502C1.97852 7.26766 4.10018 5.146 11.0827 5.146H26.916C33.8985 5.146 36.0202 7.26766 36.0202 14.2502V15.8335C36.0202 16.4827 35.4818 17.021 34.8327 17.021C33.3127 17.021 32.0618 18.2718 32.0618 19.7918C32.0618 21.3118 33.3127 22.5627 34.8327 22.5627C35.4818 22.5627 36.0202 23.101 36.0202 23.7502C36.0202 30.7327 33.8985 32.8543 26.916 32.8543ZM4.35352 24.0035C4.38518 29.4502 5.50935 30.4793 11.0827 30.4793H26.916C32.2043 30.4793 33.4868 29.5452 33.6293 24.7952C31.3652 24.2568 29.6868 22.2143 29.6868 19.7918C29.6868 17.3693 31.381 15.3268 33.6452 14.7885V14.2502C33.6452 8.59766 32.5843 7.521 26.916 7.521H11.0827C5.50935 7.521 4.38518 8.55016 4.35352 13.9968C6.61768 14.5352 8.31185 16.5777 8.31185 19.0002C8.31185 21.4227 6.61768 23.4652 4.35352 24.0035Z" fill="#292D32"/>
<path d="M15.834 11.4793C15.1848 11.4793 14.6465 10.941 14.6465 10.2918V6.3335C14.6465 5.68433 15.1848 5.146 15.834 5.146C16.4832 5.146 17.0215 5.68433 17.0215 6.3335V10.2918C17.0215 10.941 16.4832 11.4793 15.834 11.4793Z" fill="#292D32"/>
<path d="M15.834 23.0848C15.1848 23.0848 14.6465 22.5464 14.6465 21.8973V16.0864C14.6465 15.4373 15.1848 14.8989 15.834 14.8989C16.4832 14.8989 17.0215 15.4373 17.0215 16.0864V21.8973C17.0215 22.5623 16.4832 23.0848 15.834 23.0848Z" fill="#292D32"/>
<path d="M15.834 32.8543C15.1848 32.8543 14.6465 32.316 14.6465 31.6668V27.7085C14.6465 27.0593 15.1848 26.521 15.834 26.521C16.4832 26.521 17.0215 27.0593 17.0215 27.7085V31.6668C17.0215 32.316 16.4832 32.8543 15.834 32.8543Z" fill="#292D32"/>
</svg>
