<svg width="20" height="18" viewBox="0 0 20 18" fill="none" xmlns="http://www.w3.org/2000/svg">
<path d="M10 17.7778C9.71163 17.7778 9.43256 17.7409 9.2 17.658C5.64651 16.4514 0 12.1681 0 5.83995C0 2.616 2.63256 0 5.86977 0C7.44186 0 8.91163 0.607945 10 1.69488C11.0884 0.607945 12.5581 0 14.1302 0C17.3674 0 20 2.62522 20 5.83995C20 12.1773 14.3535 16.4514 10.8 17.658C10.5674 17.7409 10.2884 17.7778 10 17.7778ZM5.86977 1.38169C3.40465 1.38169 1.39535 3.38054 1.39535 5.83995C1.39535 12.1313 7.50698 15.6316 9.65581 16.3592C9.82326 16.4145 10.186 16.4145 10.3535 16.3592C12.493 15.6316 18.614 12.1405 18.614 5.83995C18.614 3.38054 16.6047 1.38169 14.1395 1.38169C12.7256 1.38169 11.414 2.03569 10.5674 3.16868C10.307 3.51871 9.71163 3.51871 9.45116 3.16868C8.58605 2.02648 7.28372 1.38169 5.86977 1.38169Z" fill="#151820"/>
</svg>
