<svg width="20" height="20" viewBox="0 0 20 20" fill="none" xmlns="http://www.w3.org/2000/svg">
<path d="M10.0013 18.9596C5.05964 18.9596 1.04297 14.943 1.04297 10.0013C1.04297 5.05964 5.05964 1.04297 10.0013 1.04297C14.943 1.04297 18.9596 5.05964 18.9596 10.0013C18.9596 14.943 14.943 18.9596 10.0013 18.9596Z" fill="#66C397"/>
<path d="M8.81719 12.9846C8.65052 12.9846 8.49219 12.918 8.37552 12.8013L6.01719 10.443C5.77552 10.2013 5.77552 9.8013 6.01719 9.55964C6.25885 9.31797 6.65885 9.31797 6.90052 9.55964L8.81719 11.4763L13.1005 7.19297C13.3422 6.9513 13.7422 6.9513 13.9839 7.19297C14.2255 7.43464 14.2255 7.83463 13.9839 8.0763L9.25885 12.8013C9.14219 12.918 8.98385 12.9846 8.81719 12.9846Z" fill="white"/>
<path d="M10.0013 18.9596C5.05964 18.9596 1.04297 14.943 1.04297 10.0013C1.04297 5.05964 5.05964 1.04297 10.0013 1.04297C14.943 1.04297 18.9596 5.05964 18.9596 10.0013C18.9596 14.943 14.943 18.9596 10.0013 18.9596Z" fill="#EF2215"/>
<path d="M7.64245 12.9841C7.48411 12.9841 7.32578 12.9258 7.20078 12.8008C6.95911 12.5591 6.95911 12.1591 7.20078 11.9174L11.9174 7.20078C12.1591 6.95911 12.5591 6.95911 12.8008 7.20078C13.0424 7.44245 13.0424 7.84245 12.8008 8.08411L8.08411 12.8008C7.96745 12.9258 7.80078 12.9841 7.64245 12.9841Z" fill="white"/>
<path d="M12.3591 12.9841C12.2008 12.9841 12.0424 12.9258 11.9174 12.8008L7.20078 8.08411C6.95911 7.84245 6.95911 7.44245 7.20078 7.20078C7.44245 6.95911 7.84245 6.95911 8.08411 7.20078L12.8008 11.9174C13.0424 12.1591 13.0424 12.5591 12.8008 12.8008C12.6758 12.9258 12.5174 12.9841 12.3591 12.9841Z" fill="white"/>
<path d="M10.0013 18.9596C5.05964 18.9596 1.04297 14.943 1.04297 10.0013C1.04297 5.05964 5.05964 1.04297 10.0013 1.04297C14.943 1.04297 18.9596 5.05964 18.9596 10.0013C18.9596 14.943 14.943 18.9596 10.0013 18.9596Z" fill="#EF2215"/>
<path d="M10 11.4596C9.65833 11.4596 9.375 11.1763 9.375 10.8346V6.66797C9.375 6.3263 9.65833 6.04297 10 6.04297C10.3417 6.04297 10.625 6.3263 10.625 6.66797V10.8346C10.625 11.1763 10.3417 11.4596 10 11.4596Z" fill="white"/>
<path d="M10.0013 14.1664C9.89297 14.1664 9.78464 14.1414 9.68464 14.0997C9.58464 14.0581 9.49297 13.9997 9.40964 13.9247C9.33464 13.8414 9.2763 13.7581 9.23464 13.6497C9.19297 13.5497 9.16797 13.4414 9.16797 13.3331C9.16797 13.2247 9.19297 13.1164 9.23464 13.0164C9.2763 12.9164 9.33464 12.8247 9.40964 12.7414C9.49297 12.6664 9.58464 12.6081 9.68464 12.5664C9.88464 12.4831 10.118 12.4831 10.318 12.5664C10.418 12.6081 10.5096 12.6664 10.593 12.7414C10.668 12.8247 10.7263 12.9164 10.768 13.0164C10.8096 13.1164 10.8346 13.2247 10.8346 13.3331C10.8346 13.4414 10.8096 13.5497 10.768 13.6497C10.7263 13.7581 10.668 13.8414 10.593 13.9247C10.5096 13.9997 10.418 14.0581 10.318 14.0997C10.218 14.1414 10.1096 14.1664 10.0013 14.1664Z" fill="white"/>
</svg>
