<svg width="18" height="13" viewBox="0 0 18 13" fill="none" xmlns="http://www.w3.org/2000/svg">
<path fill-rule="evenodd" clip-rule="evenodd" d="M9.0049 3.10398C11.492 3.10408 13.884 4.02616 15.6865 5.67964C15.8223 5.8073 16.0392 5.80569 16.1729 5.67603L17.4704 4.41257C17.5381 4.34681 17.5758 4.25773 17.5753 4.16505C17.5747 4.07237 17.5359 3.98372 17.4674 3.91873C12.7364 -0.455983 5.27266 -0.455983 0.54165 3.91873C0.473118 3.98368 0.434234 4.07229 0.433602 4.16497C0.43297 4.25766 0.470642 4.34676 0.538283 4.41257L1.83615 5.67603C1.96974 5.80588 2.18687 5.8075 2.32252 5.67964C4.12526 4.02606 6.51754 3.10397 9.0049 3.10398ZM9.00154 7.32425C10.3589 7.32417 11.6677 7.83591 12.6739 8.76004C12.8099 8.89119 13.0243 8.88835 13.157 8.75363L14.4442 7.43432C14.512 7.36512 14.5496 7.27124 14.5487 7.17369C14.5477 7.07614 14.5082 6.98306 14.439 6.91527C11.3752 4.02442 6.63047 4.02442 3.56664 6.91527C3.49743 6.98306 3.45795 7.07619 3.45704 7.17377C3.45613 7.27135 3.49388 7.36522 3.56181 7.43432L4.84872 8.75363C4.98137 8.88835 5.19574 8.89119 5.33182 8.76004C6.33728 7.83652 7.64512 7.32482 9.00154 7.32425ZM11.526 10.1178C11.5279 10.2232 11.4908 10.3247 11.4235 10.3985L9.24686 12.8533C9.18306 12.9254 9.09606 12.966 9.00529 12.966C8.91453 12.966 8.82753 12.9254 8.76373 12.8533L6.5867 10.3985C6.51945 10.3247 6.48245 10.2231 6.48444 10.1177C6.48644 10.0124 6.52725 9.9126 6.59723 9.84199C7.98733 8.52809 10.0233 8.52809 11.4134 9.84199C11.4833 9.91266 11.524 10.0125 11.526 10.1178Z" fill="#151820"/>
</svg>
